<svg width="831" height="569" viewBox="0 0 831 569" fill="none" xmlns="http://www.w3.org/2000/svg">
<path opacity="0.4" d="M705.766 51.6726C658.287 40.2527 604.165 57.7321 567.536 79.4971C530.907 101.262 503.484 137.619 456.885 148.314C373.528 167.438 285.73 134.434 198.125 136.92C140.936 138.539 82.891 155.474 46.3008 184.555C-54.4323 264.584 64.1297 461.364 218.79 491.829C356.644 519.02 516.458 491.92 632.326 432.956C742.835 376.699 816.779 300.579 818.916 185.047C819.395 158.879 824.095 80.1316 705.766 51.6726Z" fill="#D1E2FF"/>
<g style="mix-blend-mode:multiply">
<path d="M511.615 88.7288V72.091H471.452V88.7288H446.281V35.721H435.612V26.567H429.385V18.2027H418.69V26.567H407.581V35.721H397.857V132.855H359.053V64.6461H329.584V52.5141L281.172 37.7667V132.855H250.758V28.9882H246.084V22.0741H231.091V18.2027H189.93V22.0741H182.317V28.9882H178.303V93.9209H154.013V54.767H119.87V52.7342V48.5004L86.8145 37.7667V330.346H540.838V235.426V136.998V88.7288H511.615Z" fill="#E3EEFF"/>
</g>
<path d="M105.032 182.25V135.677L63.4178 157.119V182.25H36.6678V330.346H126.823V182.25H105.032Z" fill="#B8D3FF"/>
<path d="M267.202 202.928V177.343L246.395 197.451V202.928H233.02V330.346H278.091V202.928H267.202Z" fill="#B8D3FF"/>
<path d="M202.126 147.175V129.695H191.82V112.747H165.057V129.695H154.57V147.175H139.304V330.346H217.573V147.175H202.126Z" fill="#B8D3FF"/>
<path d="M353.899 147.175V129.695H343.58V112.747H316.83V129.695H306.342V147.175H291.064V330.346H369.346V147.175H353.899Z" fill="#B8D3FF"/>
<path d="M507.187 169.056V153.662H490.277V138.759H446.424V153.662H429.216V169.056H404.188V330.346H532.5V169.056H507.187Z" fill="#B8D3FF"/>
<path d="M322.838 98.7244C317.667 98.6851 312.539 99.6648 307.747 101.607C302.955 103.55 298.593 106.417 294.909 110.046C291.225 113.674 288.292 117.993 286.277 122.755C284.262 127.517 283.205 132.63 283.166 137.801C283.168 140.318 283.415 142.828 283.904 145.297C285.963 160.148 301.332 171.283 322.838 223.916C342.958 172.992 359.726 160.148 361.785 145.297C362.273 142.828 362.521 140.318 362.522 137.801C362.484 132.629 361.426 127.515 359.41 122.752C357.395 117.989 354.461 113.67 350.775 110.041C347.09 106.413 342.726 103.545 337.932 101.604C333.139 99.6618 328.01 98.6834 322.838 98.7244V98.7244ZM322.838 164.602C317.427 164.521 312.162 162.842 307.702 159.776C303.243 156.711 299.79 152.396 297.775 147.374C295.761 142.351 295.276 136.846 296.382 131.549C297.487 126.252 300.134 121.399 303.989 117.602C307.843 113.804 312.735 111.231 318.048 110.205C323.361 109.179 328.858 109.746 333.85 111.836C338.842 113.925 343.104 117.443 346.103 121.947C349.101 126.452 350.701 131.742 350.701 137.153C350.643 144.485 347.677 151.494 342.455 156.64C337.234 161.787 330.182 164.651 322.851 164.602H322.838Z" fill="#D82429"/>
<path d="M294.974 137.153C295.032 129.821 298 122.811 303.225 117.666C308.451 112.521 315.505 109.662 322.838 109.717V98.7245C317.667 98.6852 312.539 99.6649 307.747 101.607C302.955 103.55 298.593 106.417 294.909 110.046C291.225 113.675 288.292 117.993 286.277 122.755C284.262 127.518 283.205 132.63 283.166 137.801C283.168 140.318 283.415 142.828 283.904 145.297C285.963 160.148 301.332 171.283 322.838 223.916V164.602C319.206 164.63 315.604 163.941 312.238 162.577C308.872 161.212 305.808 159.198 303.221 156.649C300.634 154.1 298.574 151.066 297.159 147.721C295.744 144.376 295.001 140.785 294.974 137.153Z" fill="#BB1418"/>
<g style="mix-blend-mode:multiply" opacity="0.5">
<path d="M181.281 409.909C276.194 409.909 353.136 408.698 353.136 407.203C353.136 405.709 276.194 404.497 181.281 404.497C86.368 404.497 9.42603 405.709 9.42603 407.203C9.42603 408.698 86.368 409.909 181.281 409.909Z" fill="#B5B5B5"/>
</g>
<path d="M340.848 305.098L326.308 290.532L313.619 276.121C311.716 274.01 309.528 271.602 307.003 268.844C297.098 257.981 293.498 250.135 287.465 249.306C273.585 247.39 239.804 247.39 239.804 247.39V377.993L359.92 378.291V314.446C359.907 306.626 340.848 305.098 340.848 305.098Z" fill="#D82429"/>
<g style="mix-blend-mode:multiply">
<path d="M252.234 377.993H239.791V247.39H252.338L252.234 377.993Z" fill="#BA1C28"/>
</g>
<path d="M362.522 365.408H347.27V380.466H362.522V365.408Z" fill="#B5B5B5"/>
<path d="M359.907 313.281V323.225C356.164 321.672 352.829 319.277 350.164 316.225C347.498 313.173 345.573 309.547 344.538 305.629C346.7 305.849 359.907 304.839 359.907 313.281Z" fill="#FBE130"/>
<g style="mix-blend-mode:multiply" opacity="0.5">
<path d="M285.82 259.548H256.3V359.659H335.514V314.692L285.82 259.548Z" fill="#BA1C28"/>
</g>
<path d="M285.484 270.877H266.062C264.829 270.877 263.647 271.367 262.776 272.239C261.904 273.11 261.414 274.293 261.414 275.525V303.738C261.414 304.971 261.904 306.153 262.776 307.025C263.647 307.897 264.829 308.387 266.062 308.387H313.308C314.18 308.392 315.036 308.152 315.777 307.694C316.519 307.236 317.117 306.579 317.503 305.797L285.484 270.877Z" fill="#6FADAE"/>
<path d="M278.855 316.686C278.855 317.263 278.625 317.816 278.217 318.224C277.81 318.632 277.256 318.861 276.679 318.861H263.602C263.025 318.861 262.472 318.632 262.064 318.224C261.656 317.816 261.427 317.263 261.427 316.686C261.427 316.109 261.656 315.556 262.064 315.148C262.472 314.74 263.025 314.511 263.602 314.511H276.679C277.256 314.511 277.81 314.74 278.217 315.148C278.625 315.556 278.855 316.109 278.855 316.686V316.686Z" fill="#282B4D"/>
<path opacity="0.4" d="M270.141 308.425L277.832 270.877H283.244L275.617 308.425H270.141Z" fill="white"/>
<path opacity="0.4" d="M288.423 274.088L281.017 308.425H286.882L292.747 278.801L288.423 274.088Z" fill="white"/>
<path d="M338.789 380.855C338.789 372.933 335.642 365.335 330.041 359.733C324.439 354.132 316.841 350.984 308.919 350.984C300.997 350.984 293.399 354.132 287.798 359.733C282.196 365.335 279.049 372.933 279.049 380.855H338.789Z" fill="#427985"/>
<path d="M335.514 381.709C335.514 386.969 333.954 392.111 331.032 396.484C328.109 400.858 323.956 404.267 319.096 406.279C314.237 408.292 308.89 408.819 303.731 407.793C298.572 406.767 293.833 404.234 290.114 400.514C286.395 396.795 283.862 392.056 282.836 386.898C281.809 381.739 282.336 376.391 284.349 371.532C286.362 366.672 289.771 362.519 294.144 359.597C298.517 356.674 303.659 355.115 308.919 355.115C315.972 355.115 322.737 357.917 327.724 362.904C332.712 367.892 335.514 374.656 335.514 381.709V381.709Z" fill="#282B4D"/>
<path d="M324.184 381.709C324.187 384.732 323.293 387.688 321.615 390.202C319.937 392.717 317.551 394.677 314.759 395.835C311.967 396.993 308.894 397.297 305.929 396.708C302.964 396.118 300.24 394.663 298.103 392.526C295.965 390.388 294.51 387.665 293.921 384.7C293.332 381.735 293.635 378.662 294.793 375.869C295.951 373.077 297.912 370.691 300.426 369.013C302.941 367.336 305.896 366.441 308.919 366.444C312.968 366.444 316.85 368.052 319.713 370.915C322.576 373.778 324.184 377.661 324.184 381.709V381.709Z" fill="#BA1C28"/>
<path d="M322.359 381.709C322.361 384.371 321.574 386.974 320.097 389.188C318.62 391.402 316.519 393.129 314.06 394.148C311.601 395.168 308.895 395.436 306.285 394.917C303.674 394.398 301.276 393.117 299.394 391.235C297.511 389.352 296.23 386.954 295.711 384.343C295.193 381.733 295.46 379.027 296.48 376.568C297.5 374.109 299.226 372.008 301.44 370.531C303.654 369.054 306.257 368.267 308.919 368.27C312.482 368.273 315.899 369.69 318.419 372.21C320.938 374.729 322.355 378.146 322.359 381.709V381.709Z" fill="#427985"/>
<path d="M316.04 381.709C316.043 383.121 315.626 384.503 314.843 385.678C314.06 386.853 312.946 387.769 311.642 388.311C310.338 388.852 308.903 388.995 307.518 388.72C306.132 388.445 304.86 387.765 303.861 386.767C302.863 385.768 302.183 384.496 301.908 383.111C301.634 381.726 301.776 380.29 302.317 378.986C302.859 377.682 303.775 376.568 304.951 375.785C306.126 375.002 307.507 374.585 308.919 374.588C310.807 374.591 312.616 375.343 313.951 376.678C315.286 378.012 316.037 379.822 316.04 381.709V381.709Z" fill="#282B4D"/>
<path d="M232.087 217.727C232.087 219.475 231.026 220.886 229.731 220.886H211.216C209.921 220.886 208.859 219.475 208.859 217.727C208.859 215.992 209.921 214.58 211.216 214.58H229.731C231.026 214.58 232.087 215.992 232.087 217.727Z" fill="#45335B"/>
<path d="M243.598 367.726C243.533 371.096 242.133 374.302 239.705 376.64C237.277 378.978 234.02 380.257 230.65 380.194H12.9996C9.62948 380.257 6.37248 378.978 3.94457 376.64C1.51665 374.302 0.116519 371.096 0.0518799 367.726V222.038C0.116537 218.667 1.51624 215.459 3.94377 213.119C6.37131 210.779 9.62827 209.498 12.9996 209.557H230.65C232.32 209.526 233.98 209.824 235.534 210.435C237.088 211.045 238.507 211.956 239.71 213.115C240.912 214.274 241.874 215.659 242.542 217.19C243.209 218.721 243.568 220.369 243.598 222.038V367.726Z" fill="#D82429"/>
<path d="M243.611 323.872H0.0388184V363.945H243.611V323.872Z" fill="#FFD757"/>
<g style="mix-blend-mode:multiply" opacity="0.2">
<path d="M12.9995 209.557H36.7456V320.324C36.7456 325.38 38.7532 330.229 42.327 333.806C45.9009 337.382 50.7486 339.393 55.8045 339.396H243.546V367.726C243.481 371.096 242.081 374.302 239.653 376.64C237.226 378.979 233.969 380.257 230.598 380.194H12.9477C9.5776 380.257 6.3206 378.979 3.89269 376.64C1.46477 374.302 0.0646389 371.096 0 367.726V222.038C0.0319681 220.365 0.39382 218.714 1.0648 217.18C1.73578 215.646 2.7027 214.26 3.91023 213.101C5.11776 211.941 6.54212 211.031 8.10179 210.423C9.66147 209.815 11.3259 209.521 12.9995 209.557V209.557Z" fill="#B5B5B5"/>
</g>
<path d="M90.4525 379.897C90.4525 371.974 87.3054 364.377 81.7036 358.775C76.1018 353.173 68.5043 350.026 60.5822 350.026C52.6601 350.026 45.0624 353.173 39.4607 358.775C33.8589 364.377 30.7118 371.974 30.7118 379.897H90.4525Z" fill="#427985"/>
<path d="M87.1768 381.709C87.1768 386.969 85.6171 392.111 82.6949 396.484C79.7726 400.858 75.619 404.267 70.7595 406.279C65.9 408.292 60.5528 408.819 55.3939 407.793C50.2351 406.767 45.4964 404.234 41.777 400.514C38.0577 396.795 35.5249 392.056 34.4987 386.898C33.4725 381.739 33.9992 376.391 36.0121 371.532C38.0249 366.672 41.4336 362.519 45.8071 359.597C50.1805 356.674 55.3224 355.115 60.5823 355.115C64.0753 355.113 67.5342 355.8 70.7616 357.136C73.9889 358.472 76.9214 360.43 79.3913 362.9C81.8611 365.37 83.82 368.303 85.1559 371.53C86.4918 374.757 87.1785 378.216 87.1768 381.709V381.709Z" fill="#282B4D"/>
<path d="M75.8605 381.709C75.8631 384.732 74.9692 387.687 73.292 390.201C71.6148 392.715 69.2295 394.675 66.438 395.834C63.6465 396.992 60.5741 397.297 57.6095 396.709C54.645 396.12 51.9215 394.666 49.7835 392.53C47.6455 390.394 46.1892 387.672 45.5986 384.708C45.008 381.744 45.3098 378.671 46.4658 375.878C47.6218 373.086 49.5801 370.699 52.0928 369.02C54.6056 367.34 57.56 366.444 60.5823 366.444C64.6321 366.444 68.5163 368.052 71.3811 370.914C74.246 373.777 75.8571 377.659 75.8605 381.709V381.709Z" fill="#BA1C28"/>
<path d="M74.022 381.709C74.022 384.367 73.2337 386.966 71.757 389.176C70.2802 391.386 68.1811 393.109 65.7254 394.126C63.2696 395.143 60.5674 395.409 57.9604 394.891C55.3533 394.372 52.9585 393.092 51.0789 391.212C49.1993 389.333 47.9194 386.938 47.4009 384.331C46.8823 381.724 47.1483 379.022 48.1655 376.566C49.1827 374.11 50.9054 372.011 53.1156 370.535C55.3257 369.058 57.9242 368.27 60.5823 368.27C64.1467 368.27 67.5651 369.685 70.0856 372.206C72.606 374.726 74.022 378.145 74.022 381.709V381.709Z" fill="#427985"/>
<path d="M67.6516 381.709C67.6516 383.118 67.234 384.495 66.4515 385.666C65.669 386.837 64.5568 387.749 63.2555 388.288C61.9543 388.827 60.5225 388.968 59.1411 388.694C57.7597 388.419 56.4909 387.741 55.495 386.745C54.499 385.749 53.8208 384.48 53.546 383.099C53.2712 381.717 53.4123 380.285 53.9513 378.984C54.4903 377.683 55.4029 376.571 56.574 375.788C57.7451 375.006 59.1219 374.588 60.5304 374.588C62.418 374.591 64.2272 375.343 65.562 376.678C66.8967 378.012 67.6482 379.822 67.6516 381.709V381.709Z" fill="#282B4D"/>
<path d="M130.824 240.761C137.618 244.01 143.296 249.202 147.14 255.678C150.984 262.155 152.821 269.626 152.419 277.147C152.016 284.668 149.393 291.9 144.88 297.93C140.367 303.96 134.168 308.516 127.065 311.022C119.963 313.528 112.277 313.872 104.979 312.01C97.6818 310.148 91.1001 306.164 86.0669 300.561C81.0336 294.959 77.7747 287.989 76.7024 280.534C75.6301 273.08 76.7925 265.474 80.0427 258.68C84.4007 249.57 92.199 242.565 101.722 239.204C111.245 235.843 121.713 236.403 130.824 240.761V240.761Z" fill="#F8C331"/>
<path d="M129.801 242.78C136.195 245.841 141.538 250.73 145.154 256.828C148.77 262.926 150.496 269.959 150.114 277.038C149.733 284.117 147.26 290.924 143.009 296.597C138.758 302.271 132.92 306.556 126.233 308.911C119.547 311.266 112.312 311.585 105.443 309.828C98.5754 308.071 92.3828 304.316 87.6489 299.039C82.9151 293.762 79.8526 287.199 78.849 280.181C77.8454 273.163 78.9457 266.005 82.0107 259.612C86.1184 251.045 93.4599 244.46 102.421 241.304C111.383 238.147 121.231 238.678 129.801 242.78V242.78Z" fill="white"/>
<path d="M114.587 273.428C115.035 273.643 115.378 274.027 115.543 274.495C115.708 274.964 115.681 275.478 115.468 275.927V275.927C115.255 276.376 114.872 276.723 114.403 276.891C113.935 277.058 113.419 277.033 112.969 276.82L98.6228 269.958C98.1754 269.742 97.8315 269.358 97.6665 268.89C97.5015 268.422 97.5287 267.907 97.7422 267.459V267.459C97.9553 267.009 98.3382 266.662 98.8067 266.495C99.2753 266.327 99.7913 266.353 100.241 266.565L114.587 273.428Z" fill="#282B4D"/>
<path d="M103.711 297.459C104.202 297.733 104.57 298.184 104.74 298.72C104.91 299.256 104.87 299.837 104.628 300.344C104.386 300.852 103.959 301.248 103.436 301.453C102.912 301.658 102.33 301.655 101.808 301.447C101.527 301.334 101.271 301.165 101.058 300.95C100.845 300.735 100.678 300.479 100.568 300.197C100.457 299.915 100.406 299.613 100.417 299.31C100.428 299.008 100.501 298.71 100.632 298.437C100.762 298.164 100.947 297.92 101.176 297.721C101.404 297.522 101.671 297.372 101.959 297.281C102.248 297.189 102.552 297.157 102.854 297.188C103.155 297.219 103.447 297.311 103.711 297.459V297.459Z" fill="#D82429"/>
<path d="M124.401 298.676C124.794 298.864 125.121 299.165 125.343 299.539C125.564 299.913 125.67 300.345 125.646 300.78C125.623 301.214 125.471 301.632 125.21 301.98C124.949 302.328 124.591 302.591 124.18 302.736C123.77 302.881 123.326 302.9 122.904 302.793C122.482 302.685 122.102 302.455 121.811 302.131C121.521 301.808 121.332 301.405 121.27 300.974C121.208 300.544 121.275 300.104 121.462 299.712C121.717 299.186 122.168 298.783 122.719 298.589C123.269 298.395 123.874 298.426 124.401 298.676V298.676Z" fill="#D82429"/>
<path d="M126.991 248.788C127.381 248.978 127.707 249.28 127.927 249.655C128.146 250.029 128.25 250.461 128.225 250.894C128.2 251.328 128.047 251.745 127.786 252.092C127.524 252.439 127.166 252.701 126.756 252.844C126.346 252.988 125.903 253.007 125.482 252.9C125.061 252.792 124.682 252.563 124.391 252.24C124.101 251.917 123.912 251.515 123.85 251.085C123.787 250.655 123.853 250.217 124.039 249.824C124.162 249.56 124.337 249.323 124.553 249.128C124.769 248.932 125.022 248.782 125.297 248.685C125.572 248.589 125.863 248.548 126.154 248.566C126.445 248.584 126.73 248.659 126.991 248.788V248.788Z" fill="#D82429"/>
<path d="M89.7662 282.103C90.1631 282.289 90.4958 282.589 90.7218 282.965C90.9479 283.341 91.0574 283.775 91.0362 284.213C91.015 284.651 90.8642 285.073 90.603 285.425C90.3417 285.778 89.9817 286.044 89.5687 286.192C89.1556 286.339 88.7083 286.361 88.2831 286.253C87.8579 286.146 87.474 285.915 87.1803 285.589C86.8867 285.263 86.6963 284.858 86.6335 284.424C86.5706 283.99 86.6381 283.547 86.8272 283.151C87.0794 282.624 87.53 282.218 88.0806 282.021C88.6312 281.825 89.2371 281.854 89.7662 282.103V282.103Z" fill="#D82429"/>
<path d="M140.081 284.809C140.343 284.933 140.578 285.107 140.772 285.322C140.967 285.537 141.117 285.788 141.214 286.061C141.312 286.334 141.354 286.623 141.34 286.913C141.325 287.202 141.254 287.486 141.13 287.748C141.006 288.01 140.831 288.245 140.616 288.439C140.402 288.633 140.15 288.784 139.878 288.881C139.605 288.978 139.315 289.021 139.026 289.007C138.736 288.992 138.453 288.921 138.191 288.797C137.929 288.673 137.694 288.498 137.5 288.283C137.305 288.068 137.155 287.817 137.058 287.544C136.96 287.271 136.918 286.982 136.932 286.692C136.947 286.403 137.018 286.119 137.142 285.857C137.266 285.596 137.441 285.361 137.655 285.166C137.87 284.972 138.121 284.822 138.394 284.724C138.667 284.627 138.957 284.584 139.246 284.599C139.536 284.613 139.819 284.685 140.081 284.809V284.809Z" fill="#D82429"/>
<path d="M141.156 263.911C141.552 264.099 141.884 264.4 142.109 264.777C142.335 265.153 142.443 265.588 142.42 266.027C142.398 266.465 142.245 266.886 141.983 267.238C141.72 267.589 141.359 267.855 140.945 268.001C140.531 268.147 140.083 268.166 139.658 268.057C139.233 267.948 138.85 267.715 138.558 267.388C138.265 267.06 138.077 266.654 138.016 266.219C137.956 265.785 138.025 265.342 138.217 264.947C138.341 264.686 138.516 264.452 138.732 264.258C138.947 264.065 139.198 263.916 139.471 263.819C139.744 263.723 140.034 263.682 140.323 263.698C140.612 263.713 140.895 263.786 141.156 263.911Z" fill="#D82429"/>
<path d="M90.7117 263.911C91.1083 264.099 91.4402 264.4 91.6654 264.777C91.8905 265.153 91.9985 265.588 91.9759 266.027C91.9533 266.465 91.8011 266.886 91.5384 267.238C91.2758 267.589 90.9147 267.855 90.5008 268.001C90.087 268.147 89.6391 268.166 89.2141 268.057C88.7891 267.948 88.4061 267.715 88.1138 267.388C87.8214 267.06 87.6329 266.654 87.5721 266.219C87.5113 265.785 87.5811 265.342 87.7725 264.947C88.0296 264.424 88.4812 264.023 89.0306 263.829C89.5801 263.636 90.1836 263.665 90.7117 263.911V263.911Z" fill="#D82429"/>
<path d="M106.417 247.299C106.943 247.556 107.347 248.01 107.541 248.563C107.734 249.115 107.703 249.722 107.453 250.251C107.178 250.742 106.727 251.11 106.191 251.28C105.655 251.451 105.075 251.411 104.567 251.168C104.06 250.926 103.663 250.5 103.458 249.976C103.254 249.452 103.256 248.87 103.465 248.348C103.72 247.82 104.173 247.413 104.725 247.217C105.278 247.02 105.886 247.05 106.417 247.299V247.299Z" fill="#D82429"/>
<path d="M138.553 265.581C138.916 265.457 139.312 265.482 139.657 265.649C140.001 265.816 140.265 266.113 140.392 266.475V266.475C140.515 266.835 140.491 267.23 140.323 267.573C140.156 267.915 139.859 268.177 139.498 268.3L114.898 276.794C114.719 276.855 114.53 276.881 114.342 276.869C114.154 276.857 113.969 276.808 113.8 276.725C113.63 276.643 113.479 276.527 113.354 276.385C113.229 276.244 113.133 276.079 113.072 275.901V275.901C112.948 275.54 112.973 275.145 113.141 274.803C113.308 274.46 113.605 274.199 113.966 274.075L138.553 265.581Z" fill="#282B4D"/>
<path d="M116.024 271.693C116.679 272.005 117.226 272.504 117.596 273.128C117.967 273.751 118.144 274.47 118.106 275.194C118.067 275.918 117.815 276.614 117.38 277.195C116.946 277.776 116.349 278.214 115.666 278.455C114.982 278.697 114.242 278.73 113.539 278.55C112.837 278.371 112.203 277.987 111.719 277.447C111.235 276.907 110.922 276.236 110.819 275.518C110.717 274.801 110.829 274.069 111.143 273.415C111.563 272.54 112.312 271.867 113.227 271.544C114.143 271.222 115.148 271.275 116.024 271.693V271.693Z" fill="#282B4D"/>
<path d="M20.0819 238.132V310.989" stroke="#282B4D" stroke-width="0.75" stroke-miterlimit="10"/>
<path d="M44.2552 225.534H193.581" stroke="#282B4D" stroke-width="0.75" stroke-miterlimit="10"/>
<path d="M476.967 177.576C453.856 163.618 424.607 137.749 431.65 100.55C440.183 55.3497 467.334 14.681 510.269 3.13162C525.223 -0.882167 553.436 0.542094 550.536 20.5851C544.684 60.9301 496.674 40.1621 512.47 24.7672C537.796 0.063043 574.269 12.5705 597.148 19.0443C661.329 37.1711 722.443 124.918 644.756 265.322C624.92 301.175 610.6 339.28 587.165 347.864C567.743 354.985 553.138 346.569 560.972 329.996C565.452 320.506 577.972 317.385 596.021 318.874C610.549 320.065 654.079 335.706 665.11 365.395" stroke="#282B4D" stroke-width="0.75" stroke-miterlimit="10" stroke-dasharray="2.01 2.01"/>
<g style="mix-blend-mode:multiply" opacity="0.5">
<path d="M800.789 553.629C800.789 562.692 765.299 568.04 710.893 568.04C656.487 568.04 620.997 563.573 620.997 554.47C620.997 545.368 657.328 534.207 711.735 534.207C766.141 534.207 800.789 544.565 800.789 553.629Z" fill="#B5B5B5"/>
</g>
<path d="M725.783 301.809C721.07 286.66 709.43 275.836 705.067 269.789C703.881 268.102 702.168 266.856 700.196 266.249C698.225 265.642 696.108 265.708 694.178 266.436C694.178 266.436 673.358 320.972 668.58 364.554C663.802 408.135 663.945 406.75 660.151 450.863C656.357 494.976 651.463 535.722 651.463 535.722C651.324 536.324 651.034 536.881 650.622 537.341C648.499 538.779 646.285 540.077 643.992 541.225C640.911 542.804 636.69 543.504 636.729 544.371C636.749 544.915 636.89 545.449 637.14 545.932C637.391 546.416 637.746 546.838 638.179 547.168C639.474 548.463 641.869 547.958 646.427 546.948C650.984 545.938 661.834 542.494 663.038 540.811C664.243 539.127 669.512 515.2 675.442 495.131C682.395 471.514 684.506 458.502 687.989 444.531C691.472 430.561 695.615 404.73 695.615 404.73L726.56 322.24C726.56 322.24 730.496 316.958 725.783 301.809Z" fill="#E8755D"/>
<path d="M663.647 539.089C659.763 542.882 654.83 543.607 649.599 545.329C644.368 547.051 641.519 547.466 637.946 543.348C637.946 543.348 637.868 543.206 637.816 543.141H637.752C631.602 544.967 628.766 548.942 630.773 550.431C632.78 551.92 646.401 552.023 650.661 550.573C654.92 549.123 657.872 547.712 657.872 547.712L658.843 552.14L662.572 552.256C662.991 549.876 663.588 547.53 664.359 545.239C664.696 544.41 664.54 542.17 663.647 539.089Z" fill="#F8C331"/>
<path d="M764.587 297.679C755.032 285.016 740.414 278.762 734.212 274.58C732.527 273.389 730.494 272.794 728.433 272.888C726.372 272.982 724.401 273.759 722.831 275.098C722.831 275.098 721.679 333.453 731.894 376.09C742.11 418.727 741.799 417.367 753.142 460.159C764.484 502.952 773.664 543.025 773.664 543.025C773.737 543.64 773.653 544.264 773.418 544.837C771.905 546.908 770.261 548.88 768.498 550.741C766.128 553.331 762.386 555.364 762.736 556.167C763.085 556.969 763.435 557.565 765.04 558.316C766.646 559.067 768.782 557.798 772.719 555.312C776.655 552.826 785.666 545.912 786.275 543.918C786.883 541.924 783.685 517.621 782.507 496.724C781.07 472.123 778.7 459.175 777.198 444.933C775.696 430.69 770.932 404.795 770.932 404.795L772.227 316.751C772.227 316.751 774.143 310.342 764.587 297.679Z" fill="#E8755D"/>
<path d="M786.339 541.976C783.931 546.883 779.568 549.214 775.23 552.606C770.893 555.998 768.342 557.345 763.577 554.665C763.511 554.62 763.45 554.568 763.396 554.509H763.331C758.152 558.316 756.858 563.016 759.227 563.728C761.596 564.44 774.466 559.947 777.975 557.138C781.484 554.328 783.815 551.959 783.815 551.959L786.223 555.843L789.771 554.691C789.354 552.312 789.121 549.906 789.071 547.492C789.123 546.65 788.256 544.565 786.339 541.976Z" fill="#F8C331"/>
<path d="M790.34 414.143C791.104 407.333 790.263 345.106 783.866 305.525C777.25 264.934 747.937 233.109 747.937 233.109C747.937 233.109 691.886 232.72 688.131 241.926C669.422 287.644 661.744 326.19 658.649 351.787C657.808 358.831 652.939 403.112 653.716 409.935L790.34 414.143Z" fill="#282B4D"/>
<g style="mix-blend-mode:multiply" opacity="0.2">
<path d="M783.828 305.525C777.211 264.934 747.898 233.109 747.898 233.109C747.898 233.109 691.847 232.72 688.092 241.926C685.386 248.529 682.913 254.951 680.686 261.231C681.334 261.231 681.981 261.14 682.628 261.14C716.15 261.14 743.327 309.617 743.327 369.422C743.375 383.928 741.702 398.388 738.342 412.499L790.366 414.104C791.104 407.32 790.263 345.171 783.828 305.525Z" fill="#282B4D"/>
</g>
<path d="M699.15 151.059C693.97 147.576 691.251 147.019 682.693 159.1L647.268 207.472L603.686 177.913L594.519 185.681L641.817 231.102C643.535 232.269 645.489 233.043 647.54 233.368C652.085 234.662 660.786 229.859 664.45 226.492C680.142 212.082 694.553 188.335 694.553 188.335C698.062 183.221 704.29 154.542 699.15 151.059Z" fill="#E8755D"/>
<path d="M622.473 212.522L628.844 195.56C628.844 195.56 616.984 184.361 614.601 182.043C612.219 179.725 608.283 166.674 608.283 166.674C608.283 166.674 607.428 160.55 605.551 161.21C603.673 161.87 601.912 163.631 602.961 167.153L603.997 170.688L590.493 158.025C590.493 158.025 586.22 154.93 585.456 156.989C584.692 159.048 594.519 169.108 594.519 169.108C594.519 169.108 582.711 161.832 581.429 161.21C580.147 160.589 580.355 163.075 580.821 164.214C581.287 165.353 593.561 173.808 593.561 173.808C593.561 173.808 580.613 167.671 579.228 168.085C577.843 168.5 577.636 170.209 578.477 171.788C579.319 173.368 590.285 179.557 590.285 179.557L580.212 177.498C580.212 177.498 575.396 178.793 579.15 180.981C582.905 183.169 593.471 186.16 597.834 188.75C602.197 191.339 622.473 212.522 622.473 212.522Z" fill="#E8755D"/>
<path d="M694.32 147.511C683.755 149.687 676.867 161.961 668.761 168.422C662.844 173.148 652.227 184.969 645.015 193.023C649.34 199.147 675.973 224.395 675.973 224.395C675.973 224.395 698.075 205.336 702.011 200.157C710.103 189.617 718.027 177.149 713.509 163.696C710.621 155.086 701.26 146.696 692.015 147.835" fill="#427985"/>
<path d="M671.273 254.187C671.586 257.779 673.088 261.165 675.541 263.807C677.994 266.45 681.258 268.2 684.817 268.78C692.132 270.139 699.473 265.271 706.439 267.485C710.064 268.637 712.719 272.353 716.189 273.868C721.122 276.004 726.961 274.645 731.571 272.288C736.478 269.777 739.339 265.581 745.049 264.74C749.4 264.092 752.546 265.685 756.806 263.704C759.758 262.332 764.173 259.625 765.597 256.803C767.397 253.229 767.5 250.756 762.723 245.992C757.945 241.227 756.689 240.579 750.008 234.857C739.378 241.33 723.401 242.224 710.984 240.8C706.569 240.295 687.756 242.198 688.092 241.887C688.092 241.926 671.131 252.698 671.273 254.187Z" fill="#6FADAE"/>
<path d="M749.775 235.983C749.477 227.425 749.62 219.073 752.481 210.89C757.233 197.321 763.862 185.124 761.053 170.248C759.861 163.89 760.807 151.732 751.989 148.936C733.254 142.993 722.21 142.552 715.27 143.122C708.27 143.812 701.359 145.214 694.644 147.304C680.401 151.318 672.957 182.263 674.743 192.466C676.168 200.532 680.919 203.64 683.004 210.243C686.021 220.537 687.594 231.2 687.678 241.926C692.223 243.454 722.197 244.593 733.629 242.444C738.808 241.473 746.499 241.149 749.801 236.617C749.801 236.41 749.788 236.19 749.775 235.983Z" fill="#6FADAE"/>
<path d="M683.366 203.342C688.727 207.511 697.026 211.408 703.267 214.05C708.252 216.147 722.378 220.731 729.162 217.338" stroke="#282B4D" stroke-width="0.75" stroke-miterlimit="10"/>
<path d="M695.615 218.607C703.74 226.041 714.294 230.261 725.304 230.48" stroke="#282B4D" stroke-width="0.75" stroke-miterlimit="10"/>
<path d="M696.508 227.93C699.318 230.273 706.193 237.679 709.223 239.803" stroke="#282B4D" stroke-width="0.75" stroke-miterlimit="10"/>
<path d="M761.053 170.248C759.861 163.89 760.807 151.732 751.989 148.936C747.82 147.641 750.915 148.262 747.471 147.434C750.448 152.613 746.033 156.29 747.315 161.987C748.96 168.517 748.164 175.424 745.075 181.408C742.162 187.131 738.368 192.427 736.581 198.668C733.992 207.731 733.034 217.144 731.001 226.298C729.706 231.866 729.162 239.427 726.469 244.762C729.616 244.58 746.499 241.11 749.775 236.63C749.775 236.423 749.775 236.203 749.775 235.996C749.477 227.437 749.62 219.086 752.481 210.903C757.233 197.321 763.862 185.124 761.053 170.248Z" fill="#427985"/>
<path d="M688.092 241.926C700.393 249.526 719.581 248.4 744.596 240.295" stroke="#282B4D" stroke-width="0.75" stroke-miterlimit="10"/>
<path d="M733.254 122.341C731.635 136.286 731.092 139.082 737.669 144.922C740.776 147.68 710.479 156.238 710.103 150.671C709.857 146.592 710.103 144.287 710.103 140.804C709.976 135.185 709.452 129.583 708.537 124.037C714.803 123.973 726.599 123.247 733.254 122.341Z" fill="#E8755D"/>
<g style="mix-blend-mode:multiply" opacity="0.3">
<path d="M710.181 142.863C709.935 137.93 709.236 128.491 708.511 124.037C714.26 124.037 726.171 123.17 733.254 122.341C727.79 131.392 719.594 140.986 710.181 142.863Z" fill="#FF6A29"/>
</g>
<path d="M731.545 95.4617C733.168 96.142 734.604 97.2031 735.731 98.5553C736.858 99.9074 737.642 101.511 738.019 103.23C738.692 106.662 738.415 110.213 737.216 113.498C735.451 118.807 732.327 123.561 728.153 127.287C725.254 130.075 721.58 131.921 717.613 132.583C707.928 133.813 701.946 128.375 701.157 121.124C700.561 115.608 703.202 108.409 704.834 103.14C706.465 97.8699 710.349 93.0146 715.71 91.5644C722.184 89.8294 728.852 93.1829 731.532 95.4487" fill="#E8755D"/>
<path d="M732.84 86.5407C734.769 86.3724 737.592 87.952 739.042 89.2597C740.441 90.5789 741.529 92.1933 742.227 93.9856C744.816 99.9286 743.923 106.661 741.618 112.617C740.906 114.167 739.878 115.552 738.601 116.683C737.216 116.994 734.834 115.595 733.578 116.269C734.044 112.514 735.662 108.863 734.872 105.134C734.083 101.405 730.496 97.2744 727.013 95.6947C727.894 93.3124 732.775 86.5018 732.775 86.5018" fill="#D82429"/>
<path d="M733.241 86.5277C730.982 89.454 728.922 92.5296 727.078 95.7335C722.935 92.7038 716.81 92.4319 712.11 94.3093C706.452 96.5752 706.323 99.7991 704.121 105.651C702.516 99.7732 705.636 86.2299 719.244 83.1225C723.569 82.1126 729.693 83.1225 732.956 86.3464L733.241 86.5277Z" fill="#D82429"/>
<path d="M735.507 113.783C737.306 112.902 739.805 112.177 741.981 114.029C742.601 114.573 743.079 115.262 743.372 116.034C743.665 116.805 743.766 117.637 743.664 118.457C743.347 119.713 742.667 120.848 741.709 121.72C740.638 123.018 739.317 124.088 737.824 124.866C736.949 125.266 736.002 125.483 735.04 125.503C734.078 125.523 733.122 125.346 732.231 124.982C731.631 124.78 731.077 124.46 730.602 124.043C730.126 123.625 729.738 123.117 729.46 122.548C729.306 121.998 729.306 121.415 729.46 120.865C729.845 119.294 730.593 117.836 731.643 116.606C732.693 115.376 734.016 114.409 735.507 113.783Z" fill="#E8755D"/>
<path d="M727.984 109.523C727.749 108.204 727.012 107.028 725.928 106.24C724.844 105.453 723.497 105.117 722.171 105.302" stroke="#282B4D" stroke-width="0.5" stroke-miterlimit="10" stroke-linecap="round"/>
<path d="M715.257 102.285C712.499 100.537 710.777 100.006 708.64 100.757" stroke="#282B4D" stroke-width="0.5" stroke-miterlimit="10" stroke-linecap="round"/>
<path d="M714.635 104.965C713.716 110.015 707.371 111.931 712.24 115.207" stroke="#282B4D" stroke-width="0.5" stroke-miterlimit="10" stroke-linecap="round"/>
<path d="M715.645 115.634C715.161 115.714 714.666 115.714 714.182 115.634" stroke="#282B4D" stroke-width="0.5" stroke-miterlimit="10" stroke-linecap="round"/>
<path d="M707.113 116.864C708.407 119.454 710.803 123.001 716.318 120.748" stroke="#282B4D" stroke-width="0.5" stroke-miterlimit="10" stroke-linecap="round"/>
<path d="M720.604 109.16C720.586 109.434 720.651 109.707 720.788 109.944C720.926 110.181 721.131 110.372 721.378 110.493C721.624 110.614 721.901 110.658 722.172 110.621C722.444 110.585 722.699 110.468 722.905 110.286C723.11 110.104 723.257 109.866 723.327 109.6C723.396 109.335 723.385 109.055 723.296 108.796C723.206 108.536 723.041 108.309 722.822 108.144C722.604 107.978 722.341 107.881 722.067 107.865C721.702 107.844 721.342 107.968 721.068 108.211C720.794 108.454 720.627 108.795 720.604 109.16Z" fill="#282B4D"/>
<path d="M708.446 104.227C708.428 104.591 708.554 104.946 708.796 105.218C709.039 105.489 709.378 105.654 709.741 105.677C710.089 105.667 710.42 105.526 710.668 105.283C710.917 105.039 711.065 104.711 711.083 104.364C711.101 104.017 710.987 103.675 710.765 103.408C710.543 103.14 710.228 102.966 709.883 102.92C709.521 102.909 709.169 103.039 708.9 103.283C708.632 103.527 708.47 103.865 708.446 104.227Z" fill="#282B4D"/>
<path d="M703.228 107.749C701.726 114.313 695.99 125.241 706.737 130.576C721.212 137.762 728.217 129.475 732.71 123.597C722.702 116.191 722.106 114.339 711.437 109.885C708.824 108.763 706.057 108.043 703.228 107.749V107.749Z" fill="white"/>
<path d="M737.656 115.699C739.261 116.01 740.686 116.424 740.245 118.444C739.943 119.231 739.445 119.929 738.8 120.472C738.155 121.016 737.383 121.387 736.555 121.551" stroke="#282B4D" stroke-width="0.5" stroke-miterlimit="10" stroke-linecap="round"/>
<path d="M733.448 90.3214C736.038 83.1872 733.345 72.4407 743.664 72.596C747.794 72.596 749.71 72.5183 752.572 69.4886C756.987 64.8274 759.136 59.5706 766.387 58.5348C775.671 57.24 781.756 63.0018 785.679 70.4985C789.602 77.9952 795.727 77.9952 803.094 75.0561C813.983 70.6798 820.677 74.3957 826.659 84.5597C834.673 98.1677 827.953 110.973 817.038 120.347C814.28 122.835 811.136 124.86 807.729 126.342C809.257 129.721 811.859 131.884 811.341 135.975C810.707 140.999 805.826 143.912 802.278 146.851C795.558 152.38 789.408 149.894 781.445 148.275C778.235 147.766 775.16 146.62 772.4 144.903C769.64 143.186 767.252 140.934 765.377 138.28C761.091 132.453 761.208 127.404 760.768 120.606C760.133 110.662 753.789 109.808 746.318 106.364C740.673 103.774 740.893 92.3542 734.005 93.5972C733.609 92.9414 733.393 92.1933 733.377 91.4276C733.361 90.6619 733.546 89.9055 733.914 89.2338" fill="#D82429"/>
<path d="M766.296 318.576C766.802 317.248 766.764 315.775 766.193 314.474C765.621 313.173 764.561 312.149 763.241 311.623L724.1 295.97C723.453 295.703 722.76 295.567 722.061 295.571C721.362 295.574 720.671 295.717 720.027 295.991C719.383 296.264 718.801 296.663 718.313 297.164C717.825 297.665 717.442 298.258 717.186 298.909L708.821 320.363C708.32 321.693 708.361 323.166 708.935 324.467C709.509 325.767 710.57 326.79 711.89 327.316L751.083 343.047C751.729 343.312 752.422 343.447 753.121 343.442C753.819 343.438 754.51 343.295 755.153 343.021C755.796 342.748 756.379 342.35 756.867 341.85C757.355 341.35 757.739 340.758 757.997 340.108L766.296 318.576Z" fill="#427985"/>
<path d="M760.353 318.822C760.757 317.768 760.729 316.596 760.276 315.562C759.823 314.527 758.981 313.712 757.932 313.294L726.858 300.696C726.345 300.483 725.794 300.374 725.239 300.375C724.683 300.377 724.134 300.489 723.622 300.704C723.11 300.92 722.646 301.235 722.257 301.631C721.868 302.028 721.561 302.497 721.355 303.013L714.648 320.052C714.248 321.109 714.28 322.28 714.735 323.314C715.19 324.348 716.033 325.162 717.082 325.581L748.157 338.179C748.668 338.394 749.218 338.504 749.773 338.503C750.328 338.502 750.878 338.391 751.389 338.175C751.9 337.959 752.363 337.643 752.751 337.246C753.138 336.849 753.443 336.378 753.646 335.862L760.353 318.822Z" fill="#B5B5B5"/>
<path d="M730.224 314.718C731.946 311.546 737.76 313.721 739.741 314.355C741.114 314.929 742.607 315.156 744.088 315.016C745.569 314.876 746.993 314.373 748.234 313.553C747.833 319.224 744.959 326.034 741.838 330.928C741.037 329.239 740.074 327.63 738.964 326.125C737.863 324.61 732.192 322.124 730.548 321.231C727.984 319.806 729.046 316.867 730.224 314.718Z" fill="#282B4D"/>
<path d="M725.9 305.901L729.033 310.018" stroke="white" stroke-width="0.5" stroke-miterlimit="10"/>
<path d="M725.718 321.179L720.759 321.852" stroke="white" stroke-width="0.5" stroke-miterlimit="10"/>
<path d="M726.858 315.805L722.067 313.98" stroke="white" stroke-width="0.5" stroke-miterlimit="10"/>
<path d="M772.589 162.272C769.391 155.604 757.997 154.84 751.161 157.675C744.324 160.511 735.481 174.158 744.687 191.119C751.161 203.044 770.427 238.922 770.427 238.922L741.514 294.209L761.583 291.27L795.468 242.314C797.902 238.598 797.41 234.235 795.817 230.39C795.597 229.936 783.659 185.306 772.589 162.272Z" fill="#E8755D"/>
<path d="M753.88 270.191C753.88 270.191 743.612 291.192 741.877 293.341C740.142 295.491 737.993 298.171 738.627 299.569C739.676 303.283 740.014 307.162 739.624 311.002C739.029 314.498 737.967 316.492 739.197 317.929C740.427 319.366 742.292 320.259 743.431 318.926C743.832 318.434 744.104 318.123 744.298 317.903C744.318 317.978 744.345 318.052 744.376 318.123C744.397 318.15 744.423 318.172 744.453 318.187C744.484 318.202 744.517 318.209 744.551 318.209C744.585 318.209 744.618 318.202 744.648 318.187C744.679 318.172 744.705 318.15 744.726 318.123C744.855 319.081 745.515 320.713 748.377 321.554C749.283 321.826 750.539 320.609 750.837 319.547C750.864 319.498 750.894 319.45 750.928 319.405C751.109 320.997 754.398 322.37 755.951 321.023C756.676 320.376 758.023 320.117 759.175 316.194C760.677 311.131 760.47 308.801 760.237 301.951C760.004 295.102 761.532 290.972 762.257 289.755C762.982 288.538 771.476 276.924 771.476 276.924L753.88 270.191Z" fill="#E8755D"/>
<path d="M734.225 300.139L739.404 302.042L742.46 296.915L740.828 294.843L734.225 300.139Z" fill="#E8755D"/>
<path d="M742.058 149.661C730.535 157.429 734.393 171.801 736.284 184.62C738.057 196.674 741.463 212.768 746.719 223.566C753.193 213.208 761.169 211.913 772.796 210.903C784.423 209.893 788.256 203.484 795.597 194.978C783.827 191.093 780.409 167.606 773.431 158.349C769.21 152.755 765.662 149.946 758.385 148.107C755.029 147.496 751.619 147.227 748.208 147.304C746.092 147.905 744.034 148.694 742.058 149.661V149.661Z" fill="#6FADAE"/>
<g style="mix-blend-mode:multiply" opacity="0.5">
<path d="M561.865 552.399C561.865 561.061 524.317 568.078 478.003 568.078C431.689 568.078 394.141 561.061 394.141 552.399C394.141 543.737 431.689 536.706 478.003 536.706C524.317 536.706 561.865 543.724 561.865 552.399Z" fill="#B5B5B5"/>
</g>
<path d="M524.382 525.701C532.06 533.158 540.955 531.203 550.186 535.774C551.396 536.306 552.471 537.102 553.333 538.105C553.82 538.774 554.158 539.539 554.326 540.35C554.493 541.16 554.486 541.997 554.304 542.805C553.964 544.046 553.282 545.168 552.337 546.042C551.392 546.916 550.221 547.508 548.956 547.751C546.321 548.204 543.628 548.204 540.994 547.751L511.214 544.501C509.772 544.464 508.363 544.058 507.122 543.322C504.831 541.73 504.766 529.689 504.662 527.008C510.916 527.345 520.031 529.326 524.33 525.714" fill="#1F0C3D"/>
<path d="M534.986 531.009C534.947 532.454 534.539 533.865 533.8 535.107C533.061 536.349 532.016 537.381 530.765 538.105C530.403 538.299 529.885 538.441 529.639 538.105C529.547 537.939 529.51 537.749 529.535 537.561C529.626 536.512 530.532 535.813 531.244 535.088C532.17 534.126 532.838 532.946 533.186 531.657C533.253 531.277 533.398 530.915 533.613 530.595C533.719 530.44 533.88 530.332 534.064 530.293C534.247 530.254 534.439 530.288 534.598 530.388C534.895 530.647 534.843 531.126 534.986 531.035" fill="#F8C331"/>
<path d="M532.008 529.455C532.135 530.186 532.094 530.936 531.89 531.649C531.686 532.362 531.324 533.02 530.83 533.573C529.702 535.152 528.399 536.598 526.945 537.884C526.585 538.25 526.14 538.521 525.651 538.674C525.412 538.743 525.158 538.733 524.925 538.647C524.692 538.561 524.492 538.403 524.356 538.195C524.241 537.938 524.207 537.652 524.258 537.374C524.309 537.097 524.442 536.842 524.641 536.641C525.045 536.269 525.509 535.967 526.013 535.748C528.057 534.58 529.573 532.669 530.247 530.414C530.415 529.87 530.597 529.248 531.089 529.041C531.245 528.98 531.417 528.97 531.579 529.012C531.742 529.054 531.887 529.145 531.995 529.274C532.215 529.546 532.267 529.96 531.995 529.455" fill="#F8C331"/>
<path d="M529.354 528.031C529.353 529.347 528.975 530.635 528.263 531.741C527.552 532.847 526.537 533.726 525.34 534.272C525.04 534.408 524.711 534.47 524.382 534.453C524.211 534.438 524.048 534.374 523.912 534.268C523.777 534.162 523.675 534.02 523.618 533.858C523.579 533.689 523.585 533.513 523.635 533.347C523.685 533.182 523.777 533.032 523.903 532.913C524.148 532.682 524.439 532.506 524.757 532.395C525.719 532.191 526.584 531.668 527.211 530.911C527.838 530.155 528.192 529.208 528.214 528.225C528.214 527.954 528.318 527.656 528.551 527.539C528.784 527.423 529.198 527.746 529.25 528.096C529.302 528.446 529.172 528.795 529.354 528.096" fill="#F8C331"/>
<path d="M550.601 552.541C540.074 555.286 518.516 553.499 507.213 549.952C504.546 549.11 505.621 542.973 505.646 539.671C509.375 545.459 517.299 545.407 540.346 546.767C546.587 547.142 552.362 548.579 554.589 541.445C556.401 546.896 553.035 551.907 550.601 552.541Z" fill="#FFD757"/>
<path d="M504.468 530.569C504.468 530.569 491.767 477.82 491.598 410.026C491.598 393.116 479.013 317.683 474.546 285.845C472.252 268.986 472.576 251.875 475.504 235.115L524.705 243.855C524.705 243.855 535.193 367.26 535.297 391.459C535.439 426.638 529.936 434.523 529.936 434.523L529.25 528.899L504.468 530.569Z" fill="#6FADAE"/>
<path d="M513.052 529.999L504.416 530.556C504.416 530.556 491.702 477.82 491.546 410.026C491.546 393.116 476.54 320.117 472.125 288.318C468.24 260.661 475.439 235.154 475.439 235.154L483.713 266.98C496.57 305.823 514.451 396.288 509.893 411.347C498.214 449.957 517.558 495.999 513.052 529.999Z" fill="#427985"/>
<path d="M517.532 458.683C516.743 453.608 523.165 443.405 526.013 440.44" stroke="#282B4D" stroke-width="0.75" stroke-miterlimit="10"/>
<path d="M520.07 481.575C520.134 475.944 520.957 470.348 522.517 464.937C523.411 461.402 527.308 452.3 526.855 449.775" stroke="#282B4D" stroke-width="0.75" stroke-miterlimit="10"/>
<path d="M432.777 533.443C438.81 542.274 447.926 542.131 456.083 548.45C457.155 549.212 458.041 550.208 458.672 551.363C459.014 552.117 459.191 552.936 459.191 553.765C459.191 554.593 459.014 555.412 458.672 556.167C458.088 557.313 457.195 558.274 456.095 558.942C454.995 559.61 453.731 559.958 452.444 559.947C449.785 559.876 447.157 559.351 444.676 558.393L416.191 549.33C414.787 549.008 413.489 548.33 412.423 547.362C410.494 545.342 412.811 533.534 413.265 530.88C419.324 532.446 427.857 536.201 432.803 533.469" fill="#1F0C3D"/>
<path d="M442.138 540.759C441.817 542.169 441.139 543.474 440.168 544.546C439.198 545.619 437.968 546.423 436.596 546.883C436.208 547 435.664 547.025 435.496 546.624C435.444 546.442 435.444 546.249 435.496 546.067C435.806 545.057 436.79 544.552 437.671 543.996C438.773 543.239 439.664 542.214 440.26 541.018C440.406 540.658 440.616 540.329 440.882 540.047C440.948 539.98 441.027 539.927 441.113 539.891C441.2 539.855 441.293 539.837 441.387 539.837C441.481 539.837 441.574 539.855 441.66 539.891C441.747 539.927 441.826 539.98 441.892 540.047C442.138 540.344 441.982 540.811 442.138 540.746" fill="#F8C331"/>
<path d="M439.535 538.648C439.514 539.389 439.325 540.116 438.982 540.773C438.638 541.43 438.15 542.001 437.554 542.442C436.141 543.767 434.582 544.927 432.906 545.899C432.49 546.175 432.016 546.352 431.521 546.417C431.272 546.44 431.023 546.382 430.811 546.251C430.598 546.12 430.434 545.924 430.343 545.692C430.28 545.418 430.302 545.131 430.406 544.869C430.51 544.608 430.691 544.385 430.925 544.229C431.396 543.949 431.907 543.744 432.44 543.62C434.662 542.876 436.515 541.31 437.619 539.244C437.891 538.739 438.202 538.169 438.72 538.066C438.886 538.038 439.056 538.063 439.207 538.137C439.358 538.211 439.482 538.331 439.561 538.48C439.73 538.778 439.691 539.205 439.561 538.648" fill="#F8C331"/>
<path d="M437.218 536.719C436.956 538.009 436.329 539.197 435.41 540.141C434.492 541.084 433.322 541.744 432.039 542.041C431.72 542.119 431.387 542.119 431.068 542.041C430.904 541.988 430.758 541.891 430.647 541.761C430.535 541.631 430.461 541.472 430.433 541.303C430.432 541.129 430.475 540.958 430.559 540.806C430.643 540.654 430.765 540.526 430.912 540.435C431.201 540.258 431.522 540.144 431.858 540.098C432.84 540.09 433.791 539.748 434.556 539.13C435.32 538.512 435.852 537.653 436.066 536.693C436.156 536.447 436.286 536.162 436.532 536.098C436.778 536.033 437.127 536.421 437.101 536.771C437.075 537.12 436.881 537.457 437.218 536.771" fill="#F8C331"/>
<path d="M453.156 564.971C442.293 565.554 421.525 559.52 411.167 553.745C408.72 552.386 410.999 546.585 411.672 543.387C414.171 549.861 421.939 551.324 444.261 557.241C450.308 558.847 455.681 561.41 459.281 554.859C459.967 560.595 455.681 564.829 453.156 564.971Z" fill="#FFD757"/>
<path d="M447.705 240.657C447.705 240.657 436.493 249.811 429.902 302.197C424.943 341.714 430.912 369.875 425.72 398.425C419.246 433.979 411.258 534.648 411.258 534.648C411.258 534.648 426.406 536.913 431.87 537.12C437.334 537.328 438.655 534.155 438.655 534.155C438.655 534.155 456.277 445.308 462.414 437.397C470.364 427.143 489.086 321.334 493.618 264.028C495.185 244.179 474.805 245.953 447.705 240.657Z" fill="#6FADAE"/>
<path d="M441.245 302.003C446.424 260.428 461.961 247.765 465.133 243.622C459.799 242.793 442.384 240.709 436.143 239.492C436.143 239.492 436.467 249.85 429.876 302.288C424.917 341.792 430.886 369.953 425.694 398.502C419.22 434.07 411.232 534.725 411.232 534.725L430.653 537.095L429.98 536.136C427.202 516.941 426.672 497.488 428.4 478.17C428.4 478.17 432.052 436.737 435.793 420.993C438.163 410.958 443.73 403.798 444.443 399.914C449.609 371.364 436.286 341.52 441.245 302.003Z" fill="#427985"/>
<path d="M434.848 469.702C439.769 460.043 446.204 450.19 455.189 442.991" stroke="#282B4D" stroke-width="0.75" stroke-miterlimit="10"/>
<path d="M442.475 468.433C443.666 464.756 447.913 461.622 449.259 458.683" stroke="#282B4D" stroke-width="0.75" stroke-miterlimit="10"/>
<path opacity="0.3" d="M527.14 269.31C527.165 269.055 527.088 268.799 526.925 268.6C526.763 268.401 526.528 268.275 526.272 268.249C523.463 268.173 520.654 268.403 517.895 268.935C513.674 269.518 509.31 269.168 505.064 269.272C496.764 269.492 488.465 269.272 480.165 269.362C471.866 269.453 463.644 269.531 455.383 269.284C449.233 269.116 441.141 270.333 435.431 267.77C434.473 267.329 433.812 268.3 433.994 269.064C433.904 269.094 433.825 269.151 433.77 269.228C433.714 269.305 433.684 269.397 433.683 269.492C433.683 270.087 433.683 270.683 433.683 271.278C433.513 271.778 433.468 272.311 433.554 272.832C433.554 272.949 433.554 273.052 433.554 273.156C433.249 274.522 433.067 275.913 433.01 277.312C433.001 277.41 433.022 277.509 433.068 277.595C433.115 277.682 433.186 277.753 433.273 277.8C433.36 277.847 433.458 277.867 433.556 277.859C433.655 277.85 433.748 277.813 433.826 277.752C433.826 277.998 434.071 278.218 434.317 278.011C437.525 275.189 441.703 273.722 445.97 273.92C450.049 274.243 454.127 274.748 458.219 275.214C465.742 275.94 473.264 276.716 480.8 277.157C488 277.552 495.22 277.396 502.396 276.691C506.876 276.276 511.304 275.655 515.797 275.603C519.342 275.671 522.885 275.393 526.376 274.774C526.624 274.724 526.844 274.581 526.991 274.374C527.138 274.167 527.2 273.912 527.165 273.661C526.937 272.22 526.928 270.753 527.14 269.31V269.31Z" fill="#427985"/>
<path d="M444.805 126.355C422.6 132.829 435.224 179.583 436.415 205.931C437.109 226.552 436.017 247.195 433.152 267.627C433.152 267.627 467.425 272.081 491.585 271.511C508.702 271.097 529.936 270.023 529.936 270.023C529.936 270.023 527.644 206.579 528.331 189.436C528.913 174.689 532.707 154.166 528.577 139.911C524.304 125.164 490.096 121.784 479.596 120.878C469.095 119.972 462.764 121.176 444.805 126.355Z" fill="#FFD757"/>
<path d="M529.884 270.074C525.029 270.54 505.128 272.159 490.549 272.495C466.402 273.091 431.974 267.575 431.974 267.575C434.839 247.147 435.931 226.509 435.237 205.893C434.059 179.518 421.422 132.725 443.627 126.303C459.669 121.668 466.467 120.218 475.219 120.593C475.983 121.007 476.747 121.422 477.511 121.784C459.177 122.432 475.154 181.654 478.404 192.569C480.89 200.934 482.548 209.777 487.468 217.17C492.945 225.521 500.972 227.968 508.391 233.86C515.228 239.285 512.47 244.373 514.334 251.766C515.927 258.136 530.778 245.474 529.884 270.074Z" fill="#F8C331"/>
<path d="M520.62 114.705L520.508 172.905L589.156 173.037L589.268 114.837L520.62 114.705Z" fill="#6FADAE"/>
<path d="M534.006 114.704L533.923 157.975L589.158 158.081L589.241 114.81L534.006 114.704Z" fill="#B4D3D3"/>
<path d="M585.453 122.488L559.973 122.737L560.101 135.891L585.581 135.642L585.453 122.488Z" fill="#F8C331"/>
<path d="M525.897 118.392L526.337 162.544" stroke="#282B4D" stroke-width="0.75" stroke-miterlimit="10"/>
<path d="M494.227 172.183L494.048 265.212L615.588 265.445L615.766 172.416L494.227 172.183Z" fill="#B5B5B5"/>
<path d="M521.301 172.21L521.173 238.981L615.367 239.162L615.495 172.39L521.301 172.21Z" fill="#E1DCD7"/>
<path d="M579.345 192.485L532.205 192.954L532.354 207.973L579.494 207.504L579.345 192.485Z" fill="#F6C130"/>
<path d="M611.259 217.562L564.116 218.033L564.266 233.053L611.409 232.581L611.259 217.562Z" fill="#FFD757"/>
<path d="M508.689 185.603L509.31 248.788" stroke="#282B4D" stroke-width="0.75" stroke-miterlimit="10"/>
<path d="M480.8 99.9157C478.34 108.578 478.586 113.834 473.614 122.704C471.516 126.445 502.863 137.101 503.73 131.43C504.365 127.287 504.248 124.957 504.662 121.357C505.343 115.619 506.416 109.935 507.873 104.344C501.4 103.709 487.52 101.456 480.8 99.9157Z" fill="#FF9646"/>
<path d="M505.076 118.263C505.739 113.573 506.673 108.925 507.873 104.344C501.995 103.761 489.889 101.832 482.729 100.33C487.429 110.093 495.612 115.466 505.076 118.263Z" fill="#FF6A29"/>
<path d="M486.898 72.9974C485.177 73.5581 483.616 74.525 482.347 75.8163C481.078 77.1077 480.139 78.6855 479.609 80.4164C478.595 83.8592 478.55 87.5151 479.479 90.9817C480.775 96.5659 483.512 101.713 487.416 105.91C490.137 109.045 493.751 111.273 497.774 112.294C507.563 114.443 514.166 109.445 515.655 102.104C516.781 96.5234 514.736 88.9101 513.557 83.3685C512.379 77.8269 508.857 72.5054 503.497 70.5373C497.101 68.1679 489.915 70.9776 486.963 72.9974" fill="#FF9646"/>
<path d="M486.406 63.7527C484.438 63.4031 481.421 64.7756 479.816 65.9668C478.245 67.1966 476.971 68.7628 476.087 70.5503C472.953 76.3897 473.186 83.3556 474.999 89.6482C475.577 91.3029 476.5 92.8165 477.705 94.0892C479.09 94.5294 481.589 93.3253 482.884 94.0892C482.755 90.2049 481.447 86.3206 482.56 82.5917C483.674 78.8627 487.74 74.9525 491.468 73.6577C490.782 71.1459 486.419 63.7139 486.419 63.7139" fill="#282B4D"/>
<path d="M485.992 63.7139C488.032 66.917 489.857 70.2518 491.456 73.6965C495.961 70.9775 502.254 71.2753 506.876 73.6189C512.47 76.4544 512.301 79.7561 514.011 85.958C516.186 80.0927 514.244 65.9797 500.623 61.5128C496.298 60.0885 489.941 60.5546 486.302 63.5585L485.992 63.7139Z" fill="#282B4D"/>
<path d="M481.175 91.3961C479.401 90.3344 476.915 89.3633 474.585 91.0595C473.9 91.5593 473.347 92.2197 472.977 92.9828C472.607 93.7459 472.43 94.5882 472.461 95.4358C472.668 96.7473 473.258 97.9683 474.157 98.9446C475.113 100.368 476.346 101.584 477.783 102.518C478.638 103.008 479.586 103.318 480.565 103.427C481.545 103.536 482.537 103.443 483.48 103.153C484.113 103.003 484.71 102.729 485.237 102.347C485.764 101.964 486.21 101.481 486.548 100.926C486.774 100.381 486.842 99.7845 486.743 99.2036C486.486 97.5587 485.849 95.9963 484.883 94.6409C483.916 93.2854 482.647 92.1744 481.175 91.3961V91.3961Z" fill="#FF9646"/>
<path d="M489.242 87.7578C491.053 86.0561 493.214 84.7703 495.573 83.99" stroke="#282B4D" stroke-width="0.5" stroke-miterlimit="10" stroke-linecap="round"/>
<path d="M502.927 81.4781C505.905 79.9503 507.731 79.5619 509.828 80.5459" stroke="#282B4D" stroke-width="0.5" stroke-miterlimit="10" stroke-linecap="round"/>
<path d="M503.316 84.2748C503.795 89.4539 510.1 92.0435 504.818 94.9697" stroke="#282B4D" stroke-width="0.5" stroke-miterlimit="10" stroke-linecap="round"/>
<path d="M501.296 95.0991C501.779 95.2448 502.281 95.3148 502.785 95.3063" stroke="#282B4D" stroke-width="0.5" stroke-miterlimit="10" stroke-linecap="round"/>
<path d="M509.906 97.1448C508.275 99.6567 505.569 103.075 500.144 100.265" stroke="#282B4D" stroke-width="0.5" stroke-miterlimit="10" stroke-linecap="round"/>
<path d="M496.829 88.0297C496.819 88.3111 496.725 88.5832 496.56 88.8114C496.395 89.0396 496.166 89.2138 495.902 89.3119C495.638 89.4101 495.351 89.4278 495.077 89.3628C494.803 89.2978 494.554 89.1531 494.363 88.9468C494.171 88.7406 494.045 88.4821 494 88.2041C493.955 87.9261 493.993 87.6411 494.11 87.385C494.228 87.1288 494.418 86.9131 494.657 86.7651C494.897 86.6172 495.175 86.5436 495.457 86.5537C495.833 86.5705 496.188 86.7347 496.445 87.0108C496.702 87.2869 496.84 87.6529 496.829 88.0297V88.0297Z" fill="#282B4D"/>
<path d="M509.712 84.0935C509.698 84.469 509.537 84.824 509.263 85.0811C508.989 85.3381 508.624 85.4765 508.249 85.466C507.882 85.4394 507.541 85.2697 507.299 84.9935C507.056 84.7173 506.933 84.3568 506.954 83.99C506.968 83.6145 507.129 83.2595 507.403 83.0025C507.677 82.7454 508.042 82.607 508.417 82.6175C508.78 82.6535 509.115 82.8259 509.356 83.1C509.596 83.374 509.724 83.7292 509.712 84.0935V84.0935Z" fill="#282B4D"/>
<path d="M493.255 76.5321C500.166 74.3364 507.31 72.9547 514.541 72.4147C510.45 60.0497 498.227 52.8767 486.989 56.3726C475.75 59.8684 469.755 72.6996 473.394 85.207C479.65 81.5447 486.317 78.633 493.255 76.5321V76.5321Z" fill="#FFD757"/>
<path d="M482.405 75.5481C481.504 72.3652 481.348 69.0177 481.947 65.7645C482.546 62.5114 483.886 59.4396 485.862 56.7869C475.362 60.7748 469.872 73.1269 473.394 85.2718C476.801 83.2094 480.368 81.4254 484.063 79.9374C483.364 78.5337 482.809 77.0632 482.405 75.5481V75.5481Z" fill="#F8C331"/>
<path d="M500.286 73.9555C492.012 76.8299 484.127 79.5878 484.179 79.782C484.839 82.255 492.673 85.9451 497.813 84.5338C501.697 83.4592 504.287 82.7082 507.096 81.8148C516.276 78.9145 522.711 73.0492 518.452 71.5861C514.192 70.123 514.321 70.369 513.544 69.877C513.544 69.877 507.058 71.612 500.286 73.9555Z" fill="#D82429"/>
<path d="M514.723 88.1851C515.668 95.0344 520.51 106.726 509.026 111.193C493.566 117.201 487.17 108.099 483.13 101.664C494.045 95.0214 494.783 93.1828 506.151 89.6093C508.919 88.699 511.81 88.2187 514.723 88.1851V88.1851Z" fill="white"/>
<path d="M478.793 93.1311C477.123 93.3124 475.633 93.5972 475.957 95.7206C476.194 96.5365 476.633 97.2796 477.232 97.8815C477.832 98.4833 478.573 98.9246 479.388 99.1647" stroke="#282B4D" stroke-width="0.5" stroke-miterlimit="10" stroke-linecap="round"/>
<path d="M422.302 191.236C422.302 191.236 417.473 230.985 422.38 243.35C426.976 255.003 431.793 254.524 442.526 255.327C453.26 256.13 490.821 251.65 490.821 251.65L480.593 235.064L447.498 231.904L451.279 185.616L422.302 191.236Z" fill="#FF9646"/>
<g style="mix-blend-mode:multiply" opacity="0.4">
<path d="M421.305 201.18L420.476 213.066L449.868 202.902L450.347 193.502L421.551 197.256L421.305 201.18Z" fill="#E8755D"/>
</g>
<path d="M450.658 126.821C450.658 126.821 432.142 120.632 422.173 147.447C415.323 165.768 411.996 200.027 411.996 200.027L462.828 200.299C462.828 200.299 463.035 160.381 462.013 148.91C460.045 127.455 450.658 126.821 450.658 126.821Z" fill="#D82429"/>
<path d="M480.593 235.115L482.315 252.569L504.701 250.95C504.701 250.95 522.012 251.209 524.421 244.917C531.102 227.425 509.466 233.782 509.466 233.782C510.981 229.613 514.282 225.871 513.35 224.874C509.466 220.99 501.257 234.222 491.093 235.051C487.403 235.297 480.593 235.115 480.593 235.115Z" fill="white"/>
<path d="M519.526 238.819C521.455 237.983 523.452 237.316 525.495 236.825" stroke="#282B4D" stroke-width="0.5" stroke-miterlimit="10"/>
<path d="M519.526 242.237C521.591 241.972 523.637 241.574 525.65 241.046" stroke="#282B4D" stroke-width="0.5" stroke-miterlimit="10"/>
<path d="M519.656 245.888C521.276 245.719 522.874 245.376 524.421 244.865" stroke="#282B4D" stroke-width="0.5" stroke-miterlimit="10"/>
<path d="M509.945 233.575C511.177 233.419 512.395 233.159 513.583 232.798C514.435 232.612 515.302 232.5 516.173 232.461C518.302 232.263 520.41 231.891 522.478 231.348C523.763 230.781 524.975 230.064 526.091 229.211C526.738 228.745 531.27 225.327 532.875 226.622C534.481 227.917 526.311 235.815 525.107 236.242C523.903 236.669 522.595 236.242 521.158 236.242C519.306 236.387 517.442 236.257 515.629 235.854C515.065 235.589 514.568 235.202 514.174 234.72C513.78 234.238 513.498 233.674 513.35 233.07" fill="white"/>
</svg>
