<svg width="383" height="240" viewBox="0 0 383 240" fill="none" xmlns="http://www.w3.org/2000/svg">
<path d="M107.828 131.779C106.908 127.13 102.547 123.613 98.0299 126.289C93.5126 128.965 90.6609 134.493 89.4871 139.502C88.0354 146.951 87.8715 154.593 89.0025 162.097C82.9857 153.223 77.4831 144.011 72.5219 134.506C75.1741 131.982 77.4704 129.179 79.9102 126.46C82.9661 123.279 85.5554 119.681 87.6007 115.773C89.6413 111.835 90.3569 107.344 89.6411 102.967C88.7359 98.3125 84.3603 94.8005 79.843 97.4765C75.3258 100.152 72.474 105.681 71.2954 110.675C69.9838 117.221 69.7198 123.933 70.5132 130.561C65.916 121.408 61.8431 112.001 58.3141 102.386C61.2327 99.5747 63.998 96.6087 66.5981 93.5006C69.6491 90.3156 72.2379 86.7179 74.2886 82.813C76.3154 78.8707 77.0302 74.3842 76.329 70.0072C75.4089 65.3576 71.0482 61.8407 66.5111 64.5067C61.9741 67.1727 59.157 72.7062 57.9833 77.7151C56.5329 85.11 56.3625 92.6989 57.4794 100.151C51.6503 83.8851 47.4449 67.082 44.9247 49.9876C45.8783 46.8672 46.5197 43.7009 47.3049 40.5203C48.4882 36.2705 49.0751 31.8769 49.0487 27.4655C48.9821 23.0365 47.4942 18.746 44.8044 15.2267C41.7882 11.5313 36.3026 10.5144 33.5688 14.997C30.835 19.4795 30.9557 25.7627 32.2716 30.6618C34.4837 37.8877 37.9207 44.6799 42.4326 50.7422C43.6975 59.3007 45.3908 67.7903 47.5062 76.1791C47.3149 75.5982 47.0492 75.0419 46.8282 74.4708C45.372 70.3023 43.3348 66.3601 40.7769 62.7609C38.1855 59.1653 34.5061 56.4988 30.2825 55.1554C25.7104 53.8543 20.6242 56.1563 20.9471 61.3988C21.27 66.6414 24.9161 71.6482 28.8559 74.9899C34.7286 79.9405 42.877 83.6795 50.2019 86.1213C52.8992 95.2913 56.0839 104.311 59.7424 113.142C58.3945 111.555 57.0564 109.998 55.6787 108.421C52.9233 104.961 49.6945 101.906 46.0872 99.3459C42.4609 96.8034 38.1171 95.4861 33.6894 95.5863C28.938 95.8466 24.8726 99.6945 26.8978 104.542C28.923 109.389 34.0124 112.963 38.8106 114.8C46.242 117.333 54.0605 118.542 61.91 118.371C66.2641 128.343 71.1972 138.052 76.6843 147.449C74.1579 145.391 71.4571 143.606 68.8063 141.673C65.3207 138.969 61.4729 136.769 57.3757 135.135C53.2484 133.522 48.7118 133.279 44.436 134.443C39.9383 135.824 36.8665 140.534 39.9898 144.755C43.1132 148.977 48.9115 151.244 54.0067 151.878C61.6247 152.853 70.426 151.606 78.0398 149.66C82.1302 156.568 101.923 185.594 106.57 192.088C107.375 191.724 108.174 191.394 108.994 191.075C107.839 189.474 91.3205 165.527 90.1315 163.872C93.0221 161.269 95.4382 158.228 98.0472 155.322C101.103 152.141 103.692 148.543 105.738 144.635C107.8 140.686 108.533 136.178 107.828 131.779Z" fill="#D0E2FF"/>
<path d="M254.395 123.159C250.506 135.437 260.166 144.61 263.051 155.774C264.069 159.577 264.144 163.571 263.27 167.409C266.193 163.111 269.591 159.155 273.4 155.618C273.407 155.592 273.407 155.565 273.4 155.539C269.354 148.075 268.241 136.064 269.433 127.737C270.903 118.632 275.486 110.319 282.401 104.216C282.552 104.065 282.743 103.961 282.951 103.916C283.159 103.87 283.376 103.886 283.576 103.96C283.776 104.034 283.95 104.165 284.078 104.335C284.206 104.506 284.283 104.709 284.298 104.922C286.603 121.418 287.434 137.35 278.59 151.164C281.727 148.577 284.863 146.021 287.67 143.246L287.92 143.057L288.704 142.258L288.61 142.116L289.191 141.772C292.182 138.756 294.765 135.361 296.874 131.673L297.737 130.105C298.102 129.054 298.314 127.955 298.364 126.844C298.474 121.23 297.203 115.679 296.796 110.065C296.383 102.451 297.641 94.8396 300.483 87.7639C303.325 80.6883 307.68 74.3204 313.245 69.1072C313.297 69.0653 313.363 69.0424 313.43 69.0424C313.497 69.0423 313.563 69.0651 313.615 69.1069C313.668 69.1487 313.705 69.2071 313.72 69.2727C313.736 69.3382 313.728 69.407 313.699 69.4678C310.171 75.1756 310.407 82.7964 311.786 89.5391C313.355 97.1286 316.083 104.718 315.268 112.417C314.546 119.27 310.312 126.373 304.73 132.457C312.407 127.77 319.83 122.677 326.965 117.2V117.074C324.216 108.361 323.267 99.1796 324.174 90.0879C325.637 80.9805 330.221 72.6651 337.142 66.5669C337.291 66.4144 337.481 66.3084 337.689 66.262C337.897 66.2156 338.114 66.2307 338.313 66.3056C338.513 66.3804 338.686 66.5117 338.812 66.6834C338.939 66.8551 339.012 67.0598 339.024 67.2725C341.188 82.6082 342.003 97.4578 335.025 110.583C336.515 109.25 337.973 107.901 339.4 106.521C344.104 101.974 348.391 97.0147 352.211 91.7031C352.228 84.1856 353.659 76.7385 356.429 69.7501C359.859 62.4119 365.736 56.4963 373.051 53.0187C373.214 52.9271 373.4 52.8845 373.587 52.896C373.773 52.9075 373.953 52.9725 374.104 53.0834C374.254 53.1943 374.37 53.3464 374.436 53.5213C374.502 53.6961 374.517 53.8864 374.478 54.0694C372.549 67.79 369.585 80.7266 360.114 90.135C358.687 91.9836 356.858 93.4847 354.767 94.5256C354.674 94.5805 354.574 94.6227 354.469 94.651C351.234 99.0843 347.681 103.277 343.838 107.196C347.343 104.853 351.099 102.907 355.034 101.394C363.781 98.4411 373.283 98.624 381.911 101.911C382.113 101.975 382.294 102.097 382.43 102.26C382.566 102.424 382.652 102.623 382.679 102.834C382.705 103.046 382.671 103.26 382.579 103.452C382.487 103.644 382.342 103.806 382.161 103.918C369.35 113.139 356.335 120.885 341.125 120.508C338.473 120.78 335.794 120.453 333.285 119.552C332.935 119.446 332.624 119.242 332.387 118.964C332.151 118.686 332 118.346 331.952 117.984C322.934 125.13 313.447 131.663 303.554 137.538C315.048 134.402 327.373 135.97 339.871 138.322C340.032 138.371 340.179 138.456 340.302 138.572C340.425 138.687 340.519 138.829 340.578 138.986C340.638 139.144 340.66 139.313 340.643 139.481C340.626 139.648 340.571 139.81 340.482 139.953C334.526 146.114 326.748 150.199 318.294 151.603C309.278 152.968 296.451 151.337 288.673 146.57L288.469 146.711H288.344C281.46 152.983 273.431 157.97 267.708 165.418C266.673 166.751 265.717 168.131 264.791 169.558C279.265 160.839 295.557 162.439 312.21 165.606C312.397 165.65 312.57 165.743 312.71 165.875C312.85 166.007 312.953 166.173 313.009 166.357C313.064 166.542 313.07 166.737 313.027 166.925C312.983 167.112 312.89 167.285 312.759 167.425C306.795 173.584 299.012 177.668 290.555 179.076C281.883 180.377 269.637 178.903 261.812 174.528C260.652 176.63 254.364 183.184 234.935 216.788L232.332 215.69C249.989 186.32 252.858 180.503 260.558 171.612C261.561 167.425 252.121 159.773 249.581 156.605C246.973 153.607 245.137 150.016 244.234 146.146C242.493 137.114 247.37 128.898 253.219 122.625C253.674 122.045 254.615 122.484 254.395 123.159Z" fill="#D0E2FF"/>
<path d="M198.66 119.612C200.58 132.347 213.293 136.324 220.804 145.075C223.393 148.04 225.221 151.592 226.128 155.422C226.857 150.276 228.164 145.227 230.025 140.373C230.019 140.347 230.007 140.323 229.99 140.303C223.069 135.386 216.776 125.094 214.176 117.095C211.484 108.274 211.934 98.7918 215.451 90.266C215.52 90.0642 215.646 89.8866 215.813 89.754C215.98 89.6214 216.181 89.5396 216.393 89.5182C216.606 89.4969 216.819 89.5369 217.009 89.6335C217.199 89.7301 217.358 89.8793 217.466 90.0632C226.805 103.855 234.572 117.79 232.721 134.088C234.396 130.384 236.085 126.707 237.381 122.979L237.523 122.699L237.875 121.636L237.728 121.551L238.097 120.985C239.453 116.96 240.276 112.774 240.544 108.534L240.627 106.747C240.492 105.642 240.198 104.563 239.752 103.543C237.377 98.455 233.791 94.0319 230.951 89.1724C227.225 82.5199 225 75.1325 224.432 67.5287C223.865 59.9249 224.969 52.2891 227.666 45.1572C227.695 45.0964 227.743 45.0471 227.804 45.0174C227.864 44.9877 227.933 44.9793 227.998 44.9936C228.064 45.0079 228.123 45.0441 228.166 45.0962C228.208 45.1483 228.232 45.2133 228.233 45.2805C227.581 51.959 231.151 58.6962 235.361 64.1407C240.114 70.2624 245.907 75.8726 248.569 83.1432C250.941 89.6122 250.271 97.8544 247.941 105.776C252.767 98.1848 257.185 90.342 261.177 82.2811L261.122 82.1685C254.814 75.5584 249.915 67.7353 246.723 59.1741C244.022 50.3541 244.473 40.8694 247.998 32.3453C248.064 32.1428 248.188 31.964 248.354 31.8307C248.521 31.6974 248.722 31.6154 248.934 31.5946C249.146 31.5739 249.36 31.6153 249.549 31.7138C249.738 31.8123 249.894 31.9637 249.998 32.1494C258.699 44.9619 265.975 57.9324 265.496 72.7891C266.245 70.9361 266.96 69.0829 267.633 67.2154C269.851 61.0604 271.514 54.7193 272.602 48.2679C269.305 41.5123 267.307 34.1967 266.714 26.7028C266.559 18.6043 269.227 10.7043 274.261 4.35869C274.367 4.20458 274.515 4.08432 274.688 4.01235C274.861 3.94037 275.05 3.91972 275.234 3.95288C275.418 3.98605 275.589 4.07165 275.726 4.19936C275.862 4.32707 275.959 4.49151 276.005 4.67293C280.32 17.8393 283.361 30.7579 279.006 43.3774C278.539 45.6661 277.559 47.8192 276.141 49.6751C276.081 49.7655 276.01 49.8475 275.929 49.919C274.978 55.3244 273.636 60.6538 271.914 65.865C274.028 62.2172 276.541 58.8157 279.407 55.7228C285.958 49.2174 294.568 45.194 303.761 44.3427C303.971 44.311 304.186 44.3403 304.381 44.4272C304.575 44.514 304.741 44.6548 304.857 44.8328C304.974 45.0108 305.037 45.2185 305.04 45.4314C305.042 45.6442 304.983 45.8533 304.871 46.0338C297.434 59.9563 289.165 72.6455 275.345 79.0109C273.085 80.4237 270.535 81.3111 267.886 81.6075C267.526 81.6668 267.156 81.6211 266.821 81.4756C266.487 81.3301 266.201 81.0911 265.998 80.7873C261.053 91.1762 255.416 101.221 249.125 110.855C258.06 102.974 269.815 98.9502 282.07 95.5539C282.236 95.5269 282.406 95.5386 282.567 95.588C282.728 95.6373 282.875 95.723 282.998 95.8385C283.121 95.9539 283.215 96.096 283.274 96.2538C283.333 96.4115 283.354 96.5807 283.337 96.7482C280.707 104.904 275.524 111.999 268.555 116.985C261.062 122.183 248.829 126.372 239.747 125.521L239.626 125.737L239.514 125.792C236.099 134.456 231.089 142.471 229.234 151.679C228.892 153.332 228.642 154.992 228.44 156.681C237.59 142.476 252.92 136.732 269.264 132.236C269.452 132.193 269.647 132.2 269.831 132.257C270.015 132.313 270.181 132.417 270.312 132.558C270.444 132.699 270.535 132.872 270.578 133.06C270.622 133.247 270.615 133.443 270.559 133.627C267.919 141.784 262.733 148.88 255.762 153.871C248.551 158.86 236.908 162.934 227.957 162.456C227.841 164.853 225.085 173.508 222.454 212.235L219.634 212.396C222.54 178.251 222.552 171.764 225.545 160.39C224.601 156.19 212.755 153.481 209.079 151.757C205.416 150.215 202.186 147.801 199.67 144.725C194.127 137.384 194.883 127.859 197.369 119.652C197.522 118.93 198.56 118.91 198.66 119.612Z" fill="#D0E2FF"/>
<g style="mix-blend-mode:multiply" opacity="0.4">
<path d="M144.875 239.322C68.6367 239.322 6.83371 235.345 6.83371 230.439C6.83371 225.532 68.6367 221.555 144.875 221.555C221.112 221.555 282.915 225.532 282.915 230.439C282.915 235.345 221.112 239.322 144.875 239.322Z" fill="#A8B7FF"/>
</g>
<path d="M147.155 144.186H258.895V232.03H147.155V144.186Z" fill="#C2783A"/>
<path d="M147.139 145.017H223.52V232.86H147.139V145.017Z" fill="#F39749"/>
<path d="M169.296 144.186H190.198V161.294H169.296V144.186Z" fill="white"/>
<path d="M203.312 145.033H91.5717L91.5717 57.1898L203.312 57.1898V145.033Z" fill="#C2783A"/>
<path d="M203.328 145.033H126.947L126.947 57.1898L203.328 57.1898V145.033Z" fill="#F39749"/>
<g style="mix-blend-mode:multiply" opacity="0.34">
<path d="M185.311 128.317C193.308 122.327 198.671 114.409 203.328 105.831V145.033H135.556C153.197 143.528 170.618 139.325 185.311 128.317Z" fill="#F39749"/>
</g>
<path d="M181.187 74.3131H160.285V57.2055H181.187V74.3131Z" fill="white"/>
<path d="M147.276 232.86H35.535L35.535 145.017H147.276V232.86Z" fill="#C2783A"/>
<path d="M147.292 232.86H70.9108L70.9108 145.017H147.292V232.86Z" fill="#F39749"/>
<g style="mix-blend-mode:multiply" opacity="0.34">
<path d="M129.274 216.145C137.271 210.155 142.634 202.236 147.291 193.659V232.86H79.5194C97.1602 231.355 114.581 227.153 129.274 216.145Z" fill="#F39749"/>
</g>
<path d="M125.15 162.14H104.248V145.033H125.15V162.14Z" fill="white"/>
</svg>
