<svg width="11" height="20" viewBox="0 0 11 20" fill="none" xmlns="http://www.w3.org/2000/svg">
<path d="M10.4367 0.255126C10.4367 0.159857 10.4026 0.130793 10.315 0.124334C10.1056 0.113031 9.89628 0.104957 9.69017 0.0742772C9.42889 0.0355239 9.16112 0.0742772 8.9047 0H7.13902C7.13678 0.0106503 7.13678 0.0216441 7.13902 0.0322944C6.92381 0.0435449 6.70992 0.0727118 6.4996 0.119489C5.65158 0.273866 4.8738 0.689612 4.27627 1.30792C3.48593 2.14758 3.15649 3.17454 3.11267 4.29354C3.07534 5.22201 3.09157 6.1537 3.09806 7.0854C3.09806 7.26625 3.06398 7.32599 2.86762 7.32438C1.98477 7.31146 1.10193 7.32438 0.219089 7.31307C0.0324584 7.31307 0 7.36959 0 7.54075C0.0075734 8.57417 0.0075734 9.60867 0 10.6442C0 10.8251 0.0308361 10.8832 0.227204 10.88C1.11005 10.8671 1.99289 10.88 2.87573 10.8703C3.06236 10.8703 3.09806 10.9236 3.09806 11.0964C3.09806 13.9867 3.09806 16.8755 3.08833 19.7658C3.08833 19.9725 3.14837 20.0016 3.335 19.9999C4.40826 19.9924 5.48098 19.9924 6.55316 19.9999C6.73654 19.9999 6.7901 19.966 6.78848 19.7723C6.78848 16.8658 6.78848 13.9673 6.78848 11.0641C6.78848 10.9026 6.82742 10.8703 6.9816 10.8703C7.87742 10.8703 8.77487 10.8703 9.6707 10.8703C9.81189 10.8703 9.87356 10.8396 9.89141 10.6895C10.0229 9.6302 10.1559 8.57256 10.302 7.51653C10.328 7.33406 10.2809 7.305 10.1089 7.30661C9.06212 7.30661 8.01699 7.30661 6.97024 7.30661C6.88747 7.30661 6.78685 7.34537 6.78848 7.18713C6.79821 6.35393 6.78848 5.52073 6.80795 4.68754C6.83229 3.92054 7.22341 3.48618 7.96019 3.36024C8.19334 3.32573 8.4288 3.309 8.66452 3.31018C9.21305 3.31018 9.7632 3.31018 10.3117 3.31018C10.3994 3.31018 10.4545 3.31018 10.4545 3.1923C10.4394 2.21701 10.4334 1.23795 10.4367 0.255126Z" fill="#161616"/>
</svg>
