<svg width="21" height="20" viewBox="0 0 21 20" fill="none" xmlns="http://www.w3.org/2000/svg">
<path d="M19.9129 3.83901C19.686 2.8828 19.1796 2.01577 18.4582 1.34833C17.5414 0.492635 16.47 0.00366726 15.2048 0.00366726C11.7388 -0.00122242 8.27262 -0.00122242 4.80625 0.00366726C4.50738 -0.00182726 4.20884 0.0264677 3.91633 0.088014C2.93119 0.304091 2.03555 0.815887 1.34925 1.55492C0.493552 2.47173 0.00458407 3.54257 0.00458407 4.80655C-0.00152802 8.27293 -0.00152802 11.7393 0.00458407 15.2057C-0.000972765 15.5109 0.0281432 15.8158 0.0913748 16.1145C0.226663 16.7193 0.474432 17.2932 0.821771 17.8064C1.39473 18.6603 2.21273 19.3209 3.16821 19.7011C3.58597 19.8614 4.02424 19.962 4.47008 20H15.4761C15.6833 19.9487 15.8985 19.9737 16.1075 19.9254C16.7044 19.7927 17.2715 19.5502 17.7798 19.2103C18.6472 18.6384 19.3174 17.8131 19.699 16.8468C19.8607 16.431 19.9636 15.9946 20.0046 15.5504V4.51012C19.9435 4.29008 19.9673 4.06088 19.9129 3.83901ZM18.3305 10.0122H18.3219C18.3219 11.7493 18.339 13.4857 18.3164 15.2222C18.2975 16.6958 17.0201 18.0875 15.5574 18.2904C15.345 18.3202 15.1308 18.3351 14.9163 18.3351C11.6451 18.3351 8.37347 18.3351 5.10146 18.3351C3.65717 18.332 2.61323 17.6627 1.97879 16.3688C1.76426 15.9312 1.68602 15.4581 1.68602 14.9704C1.68602 11.6662 1.68113 8.36196 1.68602 5.05837C1.6903 3.42583 2.72508 2.14107 4.30444 1.76701C4.5654 1.71061 4.8321 1.68517 5.09902 1.69122C8.37062 1.69122 11.6422 1.69122 14.9138 1.69122C16.4376 1.69122 17.6539 2.54263 18.1532 3.94658C18.2805 4.3294 18.3399 4.73151 18.3286 5.13477C18.3278 6.7614 18.3284 8.38742 18.3305 10.0128V10.0122Z" fill="#161616"/>
<path d="M15.4186 5.84683C15.256 5.84715 15.0949 5.81544 14.9446 5.7535C14.7942 5.69157 14.6575 5.60063 14.5423 5.48587C14.4271 5.3711 14.3356 5.23477 14.2731 5.08466C14.2105 4.93454 14.1782 4.77358 14.1779 4.61096C14.1771 4.44669 14.2088 4.28388 14.271 4.13184C14.3332 3.9798 14.4248 3.84151 14.5405 3.72487C14.6561 3.60823 14.7937 3.51552 14.9452 3.45205C15.0967 3.38857 15.2592 3.35557 15.4235 3.35493C15.7519 3.35917 16.0658 3.49115 16.2986 3.72288C16.5313 3.95462 16.6647 4.26789 16.6704 4.59629C16.6703 4.7606 16.6379 4.92327 16.5749 5.07504C16.512 5.22681 16.4197 5.36469 16.3035 5.48081C16.1873 5.59693 16.0493 5.68902 15.8975 5.75182C15.7456 5.81463 15.5829 5.84691 15.4186 5.84683Z" fill="#161616"/>
<path d="M9.98082 5.01803C7.21082 5.05226 4.97624 7.31373 5.01352 10.0452C5.05081 12.8097 7.29272 15.0296 10.0254 15.0089C12.7875 14.9881 15.03 12.7272 15.0031 9.99083C14.9768 7.22389 12.7172 4.98625 9.98082 5.01803ZM10.0364 13.339C8.20281 13.3647 6.70168 11.8844 6.68212 10.0312C6.66379 8.20365 8.13313 6.71353 9.98265 6.68786C11.8163 6.66218 13.3174 8.14192 13.3364 9.99511C13.3535 11.8232 11.8841 13.3134 10.0364 13.339Z" fill="#161616"/>
</svg>
