<svg width="227" height="236" viewBox="0 0 227 236" fill="none" xmlns="http://www.w3.org/2000/svg">
<path d="M216.192 87.4263C216.727 84.9775 216.108 83.2125 214.181 81.6958C190.203 62.9712 164.955 43.2071 136.993 21.2674C136.317 20.691 135.508 20.2902 134.64 20.1003C133.772 19.9104 132.87 19.9373 132.015 20.1787C94.7548 29.0929 64.5108 36.2876 36.8447 42.8239C34.2859 43.4441 32.9293 44.8087 32.3551 47.4343C24.8122 82.1427 17.4327 115.887 10.4217 147.728C9.8354 150.409 10.4897 152.255 12.6082 153.914C36.5601 172.612 60.9056 191.687 84.4362 210.134L87.0696 212.196C87.3906 212.446 87.7249 212.684 88.0549 212.941C88.8522 213.421 89.5517 214.048 90.1163 214.789L90.3462 215.14L93.6535 215.864L94.0515 215.374C94.1459 215.257 94.3381 215.225 94.7578 215.169C94.9699 215.144 95.1807 215.109 95.3892 215.063C127.205 207.477 158.35 200.061 189.443 192.73C192.205 192.08 193.616 190.584 194.235 187.757C200.539 158.735 207.504 126.863 216.192 87.4263ZM118.3 113.106C118.53 112.056 118.777 111.797 119.767 111.575C125.566 110.293 131.43 108.835 137.093 107.47L139.127 106.973C140.807 106.552 142.088 105.531 142.528 104.146C142.722 103.536 142.755 102.887 142.625 102.261C142.495 101.635 142.206 101.053 141.787 100.571C141.255 99.8944 140.505 99.4236 139.665 99.2394C138.791 99.0859 137.893 99.1357 137.041 99.385L129.595 101.159C125.57 102.12 121.407 103.109 117.307 104.122C116.954 104.247 116.572 104.271 116.205 104.191C115.839 104.11 115.502 103.929 115.232 103.668C113.667 102.358 111.97 101.023 109.735 99.339C107.739 97.8444 105.382 98.0485 104.002 99.8365C102.622 101.624 103.002 103.951 104.914 105.512C106.481 106.791 108.348 108.294 110.284 109.697C110.859 110.119 110.902 110.308 110.75 110.857C110.422 112.065 110.163 113.3 109.918 114.495C109.807 115 109.697 115.504 109.586 116.009L90.2093 204.614L89.7214 204.232L76.3143 193.734C57.2884 178.833 38.2572 163.933 19.2205 149.033C18.4606 148.443 18.3266 148.282 18.4779 147.59C24.2293 121.484 30.0343 94.9402 35.6493 69.2648L39.0028 53.9302L40.4176 55.0332L46.1325 59.5051L92.6476 95.9196L92.8088 96.0289C94.3585 97.2408 95.7169 97.7548 96.9515 97.6015C97.4266 97.5357 97.8833 97.3733 98.2934 97.1246C98.7035 96.8758 99.0585 96.5459 99.3365 96.155C100.44 94.7402 101.041 92.4963 97.6772 89.8559L62.0549 61.9608L45.4337 48.9348L51.1054 47.6039C57.8594 46.0176 64.2437 44.525 70.731 42.8275C73.1267 42.2033 74.6959 42.5518 76.7396 44.1415C101.588 63.7495 127.638 84.1018 148.573 100.457C149.323 101.045 149.428 101.385 149.225 102.314C147.242 111.139 145.283 120.123 143.394 128.81L142.373 133.475C141.895 135.662 142.162 137.27 143.159 138.255C144.155 139.24 145.796 139.478 148.005 138.955L154.035 137.534C159.014 136.347 164.166 135.12 169.24 133.981C171.728 133.419 173.078 132.037 173.618 129.494C175.432 120.934 177.344 112.241 179.198 103.832L180.446 98.1266C180.477 97.9852 180.509 97.8388 180.541 97.6924C180.641 97.0899 180.671 97.0966 180.931 97.0211C187.986 95.3895 194.879 93.7226 202.201 91.9853L207.364 90.7547L204.074 105.796C198.463 131.457 192.661 157.985 186.994 184.068C186.79 185.002 186.55 185.251 185.631 185.462C161.996 191.055 137.97 196.768 114.756 202.3L98.3481 206.203L97.9694 206.289L101.657 189.425C107.099 164.421 112.755 138.558 118.29 113.104L118.3 113.106ZM166.357 125.732L166.335 125.833C166.163 126.615 166.136 126.62 165.762 126.707C162.247 127.494 158.692 128.336 155.251 129.17L151.202 130.142L153.059 121.654C154.357 115.716 155.7 109.576 156.995 103.532C157.158 102.79 157.302 102.636 157.987 102.479C161.146 101.778 164.34 101.011 167.428 100.269L172.168 99.1361L169.047 113.405C168.142 117.511 167.243 121.614 166.35 125.714L166.357 125.732ZM200.118 84.3819L196.014 85.3415C191.049 86.5273 186.087 87.7172 181.128 88.9112C180.874 89.0142 180.597 89.0448 180.326 88.9997C180.056 88.9546 179.804 88.8355 179.597 88.6556C160.567 73.7008 141.213 58.5324 122.45 43.8845L109.453 33.7094L113.527 32.7432C119.744 31.2669 126.176 29.7478 132.471 28.204C132.845 28.1164 132.967 28.1855 133.488 28.6115L133.765 28.8416L203.674 83.5565L200.118 84.3819ZM170.429 91.4335L167.808 92.0456C164.271 92.8591 160.606 93.7242 157.038 94.7004C155.288 95.1801 154.122 94.9199 152.574 93.7243C134.756 79.6904 116.601 65.4772 99.0412 51.7329L83.9405 39.9071L86.548 39.2816C90.9352 38.2359 95.0782 37.2425 99.3045 36.1828C99.724 36.0788 99.9026 36.1813 100.498 36.6766L100.791 36.9099C117.018 49.6082 133.241 62.3107 149.459 75.0176L154.717 79.1355C159.96 83.2272 165.197 87.3265 170.429 91.4335Z" fill="#ECF3FF"/>
<path d="M56.8273 136.597C54.7461 134.985 52.6718 133.365 50.6044 131.739L47.107 129.006L43.9469 126.521C41.1022 124.312 38.1702 121.993 35.2497 119.767C34.8199 119.408 34.3214 119.139 33.7845 118.978C33.2476 118.817 32.6837 118.767 32.1268 118.83C31.6111 118.911 31.1171 119.096 30.6746 119.373C30.2322 119.65 29.8504 120.013 29.5523 120.442C28.229 122.211 28.5646 124.305 30.4172 125.922C30.8625 126.305 31.3167 126.648 31.7664 127.011L37.2906 131.314C42.1868 135.15 47.0885 138.985 51.9955 142.82C52.6182 143.313 53.3426 143.661 54.1164 143.839C54.8547 144.011 55.6264 143.971 56.3428 143.723C56.9382 143.502 57.4667 143.131 57.8775 142.646C58.2883 142.162 58.5676 141.58 58.6886 140.956C59.1999 138.449 57.4185 137.038 56.8273 136.597Z" fill="#ECF3FF"/>
<path d="M43.7765 142.203C39.6191 138.907 35.8664 135.939 32.0557 133.042C31.6622 132.722 31.2077 132.485 30.7199 132.346C30.2321 132.208 29.7212 132.169 29.2182 132.234C28.7152 132.299 28.2305 132.465 27.7937 132.723C27.3569 132.98 26.9771 133.324 26.6773 133.733C25.3251 135.416 25.5155 137.521 27.1702 139.1C27.5861 139.487 28.0244 139.85 28.4829 140.186L28.8898 140.502L31.5958 142.644C33.878 144.45 36.2495 146.308 38.6107 148.115C39.1668 148.545 39.8101 148.848 40.4957 149.003C41.2323 149.171 42.0016 149.122 42.7113 148.863C43.3221 148.629 43.8621 148.242 44.2791 147.738C44.6961 147.234 44.9759 146.631 45.0915 145.987C45.2696 145.297 45.2397 144.57 45.0058 143.896C44.7718 143.223 44.3441 142.634 43.7765 142.203Z" fill="#ECF3FF"/>
</svg>
