<svg width="20" height="20" viewBox="0 0 20 20" fill="none" xmlns="http://www.w3.org/2000/svg">
<path d="M2.69473 0C2.74683 0.0710034 2.82603 0.0323689 2.89116 0.045421C4.22914 0.317949 5.07528 1.69468 4.72099 3.02965C4.36409 4.3735 2.93492 5.15036 1.63393 4.69144C0.816442 4.40273 0.302714 3.81956 0.0708583 2.98423C0.0510595 2.91375 0.067733 2.82761 0 2.7754V1.99227C0.133382 1.1371 0.634083 0.56124 1.38227 0.171765C1.58651 0.0673485 1.81107 0.0428106 2.03147 0.000521797L2.69473 0Z" fill="#161616"/>
<path d="M19.9624 11.4206C19.9135 10.7053 19.8197 9.99791 19.6097 9.3098C19.245 8.11997 18.5676 7.1938 17.3808 6.71505C16.3533 6.30156 15.2784 6.21071 14.1978 6.383C12.8906 6.59184 11.8402 7.23609 11.1472 8.39772C11.129 8.428 11.1196 8.47656 11.0524 8.44993C11.0524 7.91532 11.0446 7.37601 11.0571 6.83721C11.0613 6.66754 11.0081 6.63935 10.8518 6.63987C9.65381 6.64648 8.45546 6.64648 7.25676 6.63987C7.10045 6.63987 7.06763 6.6832 7.06763 6.83304C7.0718 11.1611 7.0718 15.4894 7.06763 19.8178C7.06763 19.9854 7.12755 20.0005 7.26562 20C8.51607 19.9958 9.76653 19.9958 11.017 20C11.1759 20 11.2197 19.9676 11.2191 19.8021C11.2129 17.5958 11.2129 15.3893 11.2191 13.1826C11.2135 12.7072 11.264 12.2328 11.3697 11.7693C11.574 10.9236 12.0147 10.2856 12.9067 10.0548C13.2291 9.9731 13.5623 9.9428 13.8941 9.96502C14.7845 10.0172 15.3529 10.4605 15.6306 11.3104C15.8104 11.8612 15.851 12.4329 15.8526 13.0056C15.8595 15.2767 15.8595 17.5483 15.8526 19.8204C15.8526 19.9666 15.888 20 16.0329 19.9995C17.3547 19.9932 18.676 19.9958 19.9979 19.9958V11.5991C19.9343 11.5511 19.9661 11.4822 19.9624 11.4206Z" fill="#161616"/>
<path d="M0.327378 13.2975C0.327378 11.1507 0.326162 9.00351 0.32373 6.85601C0.32373 6.6926 0.350824 6.63673 0.53214 6.6383C1.78259 6.6477 3.03201 6.6477 4.28038 6.6383C4.4445 6.6383 4.48201 6.6832 4.48149 6.84296C4.47732 11.1637 4.47732 15.4841 4.48149 19.8042C4.48149 19.953 4.45127 19.9995 4.29288 19.999C3.03027 19.9916 1.76766 19.9916 0.505049 19.999C0.357599 19.999 0.32373 19.9619 0.32373 19.8167C0.328941 17.6442 0.330157 15.4711 0.327378 13.2975Z" fill="#161616"/>
</svg>
