<svg width="290" height="59" viewBox="0 0 290 59" fill="none" xmlns="http://www.w3.org/2000/svg">
<g clip-path="url(#clip0_201_139)">
<path d="M54.2194 0.0523109H41.3252V0.848573H54.2194V0.0523109Z" fill="#231F20"/>
<path d="M54.2194 2.34616H41.3252V3.14242H54.2194V2.34616Z" fill="#231F20"/>
<path d="M54.2194 4.55671H41.3252V5.35297H54.2194V4.55671Z" fill="#231F20"/>
<path d="M54.2194 6.76919H41.3252V7.56545H54.2194V6.76919Z" fill="#231F20"/>
<path d="M54.2194 9.06886H41.3252V9.86512H54.2194V9.06886Z" fill="#231F20"/>
<path d="M54.2194 11.2804H41.3252V12.0766H54.2194V11.2804Z" fill="#231F20"/>
<path d="M54.2194 13.488H41.3252V14.2843H54.2194V13.488Z" fill="#231F20"/>
<path d="M0.030998 0.0524902H0V0.848752H0.826291L0.030998 0.0524902Z" fill="#231F20"/>
<path d="M5.14566 0.848573H27.0332L26.2388 0.0523109H4.3494L5.14566 0.848573Z" fill="#231F20"/>
<path d="M7.43857 3.14146H29.3222L28.5279 2.34616H6.6423L7.43857 3.14146Z" fill="#231F20"/>
<path d="M2.32388 2.34616H0V3.14146H3.12014L2.32388 2.34616Z" fill="#231F20"/>
<path d="M4.53443 4.55671H0V5.35297H5.33069L4.53443 4.55671Z" fill="#231F20"/>
<path d="M9.64911 5.35297H31.5289L30.7345 4.55671H8.85284L9.64911 5.35297Z" fill="#231F20"/>
<path d="M11.8616 7.56545H33.7375L32.9432 6.76919H11.0653L11.8616 7.56545Z" fill="#231F20"/>
<path d="M6.74691 6.76919H0V7.56545H7.54317L6.74691 6.76919Z" fill="#231F20"/>
<path d="M9.04755 9.06886H0V9.86512H9.84284L9.04755 9.06886Z" fill="#231F20"/>
<path d="M14.1613 9.86512H36.0333L35.2389 9.06886H13.366L14.1613 9.86512Z" fill="#231F20"/>
<path d="M16.3737 12.0766H38.2409L37.4466 11.2804H15.5775L16.3737 12.0766Z" fill="#231F20"/>
<path d="M11.2591 11.2804H0V12.0766H12.0553L11.2591 11.2804Z" fill="#231F20"/>
<path d="M13.4667 13.488H0V14.2843H14.263L13.4667 13.488Z" fill="#231F20"/>
<path d="M47.4202 43.1241H54.2194V42.3278H46.6249L47.4202 43.1241Z" fill="#231F20"/>
<path d="M49.6269 45.3307H54.2194V44.5345H48.8316L49.6269 45.3307Z" fill="#231F20"/>
<path d="M51.8655 47.5684H54.2194V46.7731H51.0692L51.8655 47.5684Z" fill="#231F20"/>
<path d="M46.7508 46.7731H0V47.5684H47.5471L46.7508 46.7731Z" fill="#231F20"/>
<path d="M54.1351 49.838H54.2194V49.0427H53.3389L54.1351 49.838Z" fill="#231F20"/>
<path d="M49.0205 49.0427H0V49.838H49.8167L49.0205 49.0427Z" fill="#231F20"/>
<path d="M22.7322 14.2843C24.1107 14.1506 25.524 14.0808 26.9644 14.0808C28.4049 14.0808 29.8182 14.1506 31.1966 14.2843H40.4447L39.6504 13.488H17.7851L18.5814 14.2843H22.7322Z" fill="#231F20"/>
<path d="M38.8918 15.7877C39.6881 16.0298 40.4605 16.2953 41.2089 16.5839H54.2194V15.7877H38.8918Z" fill="#231F20"/>
<path d="M44.3456 18.0002C44.8305 18.2546 45.3 18.52 45.754 18.7964H54.2194V18.0002H44.3456Z" fill="#231F20"/>
<path d="M47.3563 19.8591C47.7118 20.1167 48.0518 20.3831 48.3802 20.6544H54.2223V19.8591H47.3563Z" fill="#231F20"/>
<path d="M49.9824 22.1558C50.2284 22.4141 50.4622 22.6796 50.6837 22.9521H54.2194V22.1558H49.9824Z" fill="#231F20"/>
<path d="M51.7057 24.3683C51.8703 24.6299 52.0237 24.895 52.1658 25.1636H54.2194V24.3683H51.7057Z" fill="#231F20"/>
<path d="M52.7935 26.5779C52.8884 26.8407 52.9727 27.1058 53.0463 27.3732H54.2194V26.5779H52.7935Z" fill="#231F20"/>
<path d="M53.3379 28.8766C53.3676 29.1401 53.3867 29.4055 53.395 29.6729H54.2194V28.8766H53.3379Z" fill="#231F20"/>
<path d="M53.3369 31.0929C53.3059 31.3603 53.2643 31.6257 53.212 31.8892H54.2194V31.0929H53.3369Z" fill="#231F20"/>
<path d="M52.8235 33.2996C52.7286 33.5683 52.6227 33.8337 52.5058 34.0959H54.2194V33.2996H52.8235Z" fill="#231F20"/>
<path d="M51.7027 35.5973C51.5342 35.8666 51.354 36.1311 51.1613 36.3936H54.2194V35.5973H51.7027Z" fill="#231F20"/>
<path d="M49.9765 37.8147C49.7221 38.0846 49.4544 38.35 49.1735 38.6109H54.2194V37.8147H49.9765Z" fill="#231F20"/>
<path d="M47.4531 40.0262C47.0824 40.2994 46.6969 40.5648 46.2965 40.8225H54.2165V40.0262H47.4531Z" fill="#231F20"/>
<path d="M16.3069 44.5345H0V45.3307H20.0518C18.7625 45.1205 17.511 44.8541 16.3069 44.5345Z" fill="#231F20"/>
<path d="M37.6219 44.5345C36.4178 44.8541 35.1663 45.1157 33.875 45.3307H45.3056L44.5093 44.5345H37.6219Z" fill="#231F20"/>
<path d="M10.3088 42.3278H0V43.1241H12.0834C11.4731 42.8735 10.8816 42.6081 10.3088 42.3278Z" fill="#231F20"/>
<path d="M41.8444 43.1241H43.1037L42.7269 42.7472C42.4369 42.8764 42.1428 43.002 41.8444 43.1241Z" fill="#231F20"/>
<path d="M6.47762 40.0262H0V40.8225H7.62842C7.22932 40.5648 6.84572 40.2994 6.47762 40.0262Z" fill="#231F20"/>
<path d="M3.95225 37.8147H0V38.6109H4.75432C4.47469 38.3487 4.20733 38.0833 3.95225 37.8147Z" fill="#231F20"/>
<path d="M2.22606 35.5973H-0.00192261V36.3936H2.76465C2.57479 36.1311 2.39461 35.8666 2.22606 35.5973Z" fill="#231F20"/>
<path d="M1.10527 33.2996H0V34.0959H1.423C1.30547 33.833 1.19956 33.5676 1.10527 33.2996Z" fill="#231F20"/>
<path d="M0.591868 31.0929H0V31.8892H0.716829C0.66452 31.6257 0.622866 31.3603 0.591868 31.0929Z" fill="#231F20"/>
<path d="M0.5909 28.8766H0V29.6777H0.532778C0.541819 29.4071 0.561194 29.1401 0.5909 28.8766Z" fill="#231F20"/>
<path d="M1.1353 26.5779H0V27.3732H0.882475C0.955449 27.1065 1.03973 26.8414 1.1353 26.5779Z" fill="#231F20"/>
<path d="M2.22313 24.3683H-0.00485229V25.1636H1.75816C1.90282 24.8956 2.05781 24.6305 2.22313 24.3683Z" fill="#231F20"/>
<path d="M3.94547 22.1558H0V22.9521H3.24511C3.46726 22.6828 3.70071 22.4174 3.94547 22.1558Z" fill="#231F20"/>
<path d="M6.57449 19.8591H0V20.6544H5.55155C5.87897 20.3831 6.21995 20.1167 6.57449 19.8591Z" fill="#231F20"/>
<path d="M9.58323 18.0002H0V18.7964H8.17476C8.6281 18.5207 9.09759 18.2552 9.58323 18.0002Z" fill="#231F20"/>
<path d="M15.0369 15.7877H0V16.5839H12.7198C13.4664 16.2953 14.2387 16.0298 15.0369 15.7877Z" fill="#231F20"/>
<path d="M26.9644 14.6117C30.389 14.5992 33.8018 15.0135 37.124 15.8448C40.2238 16.6324 43.001 17.759 45.385 19.1926C47.7496 20.6147 49.6017 22.2643 50.89 24.0971C52.2045 25.9657 52.871 27.9457 52.871 29.9809C52.871 32.0161 52.2045 33.9951 50.89 35.8637C49.6017 37.6965 47.7496 39.351 45.385 40.7682C43.001 42.2019 40.2219 43.3284 37.124 44.117C30.4507 45.7611 23.4781 45.7611 16.8048 44.117C13.705 43.3284 10.9268 42.2019 8.54384 40.7682C6.17927 39.3471 4.32714 37.6965 3.03782 35.8637C1.72331 33.9951 1.05297 32.0151 1.05297 29.9809C1.05297 27.9467 1.71943 25.9657 3.03394 24.0971C4.32326 22.2643 6.1754 20.6147 8.53996 19.1926C10.9229 17.759 13.7021 16.6324 16.8009 15.8448C20.1231 15.0135 23.5359 14.5992 26.9605 14.6117M26.9605 14.0808C12.3595 14.0808 0.523102 21.1988 0.523102 29.9809C0.523102 38.763 12.3634 45.88 26.9644 45.88C41.5654 45.88 53.4018 38.7621 53.4018 29.9809C53.4018 21.1997 41.5654 14.0818 26.9644 14.0818L26.9605 14.0808Z" fill="#231F20"/>
<path d="M9.64038 28.4407H12.4951V29.1614H11.4295V31.9706H9.12697L6.78372 29.8714V31.2528H7.84927V31.9745H4.92093V31.2528H5.98649V29.1614H4.92093V28.4407H8.4983L10.6294 30.4265V29.1614H9.64038V28.4407Z" fill="#ED008C"/>
<path d="M18.6589 31.2489H19.6934V31.9706H15.7131V31.2489H16.5733L16.3195 30.7907H14.8451L14.5943 31.2489H15.4729V31.9706H12.7683V31.2489H13.7767L15.3266 28.4397H17.1041L18.6589 31.2489ZM15.2181 30.1194H15.9495L15.5833 29.4549L15.2181 30.1194Z" fill="#ED008C"/>
<path d="M24.7354 28.4407H27.5534V29.1614H26.5014V31.9706H24.2278L21.9156 29.8714V31.2528H22.9656V31.9745H20.076V31.2528H21.128V29.1614H20.076V28.4407H23.6079L25.7138 30.4265V29.1614H24.7354V28.4407Z" fill="#ED008C"/>
<path d="M32.0151 28.4407C32.7952 28.4407 33.4087 28.597 33.8556 28.9095C34.0624 29.0563 34.2309 29.2504 34.3473 29.4756C34.4636 29.7009 34.5243 29.9507 34.5243 30.2042C34.5243 30.4577 34.4636 30.7075 34.3473 30.9327C34.2309 31.158 34.0624 31.3521 33.8556 31.4988C33.4081 31.8127 32.7946 31.9699 32.0151 31.9706H27.7946V31.2489H28.8911V29.1614H27.7946V28.4407H32.0151ZM31.71 31.2499C31.8245 31.2529 31.9382 31.2298 32.0424 31.1823C32.1467 31.1348 32.2387 31.0641 32.3115 30.9757C32.4665 30.7927 32.545 30.536 32.545 30.2066C32.545 29.8772 32.4665 29.6196 32.3115 29.4365C32.2386 29.3483 32.1465 29.2777 32.0423 29.2302C31.9381 29.1828 31.8245 29.1595 31.71 29.1624H30.6783V31.2499H31.71Z" fill="#ED008C"/>
<path d="M40.4902 31.2489H41.518V31.9706H37.5599V31.2489H38.4162L38.1624 30.7907H36.7007L36.4517 31.2489H37.3235V31.9706H34.6316V31.2489H35.6351L37.1782 28.4397H38.9461L40.4902 31.2489ZM37.0678 30.1194H37.7953L37.432 29.4549L37.0678 30.1194Z" fill="#ED008C"/>
<path d="M46.5677 28.4407H49.4195V29.1614H48.354V31.9706H46.0553L43.7149 29.8714V31.2528H44.7805V31.9745H41.8541V31.2528H42.9197V29.1614H41.8541V28.4407H45.4276L47.5587 30.4265V29.1614H46.5677V28.4407Z" fill="#ED008C"/>
<path d="M12.1725 25.429C14.3502 20.078 20.2562 16.2401 27.2017 16.2401C34.1472 16.2401 40.0533 20.078 42.2309 25.429H45.3307C42.7288 19.9618 35.5935 16.0328 27.1969 16.0328C18.8003 16.0328 11.6659 19.9598 9.06403 25.429H12.1725Z" fill="#231F20"/>
<path d="M42.228 34.5395C40.0494 39.8886 34.1453 43.7237 27.2017 43.7237C20.2582 43.7237 14.354 39.8886 12.1745 34.5395H9.04367C11.6301 40.0281 18.78 43.9736 27.1959 43.9736C35.6119 43.9736 42.7627 40.0281 45.3491 34.5395H42.228Z" fill="#231F20"/>
<path d="M26.9731 16.2662C30.1838 16.2559 33.3843 16.6283 36.5069 17.3754C39.413 18.0806 42.0178 19.088 44.2564 20.3705C46.4709 21.6415 48.2048 23.1148 49.4099 24.7509C50.6353 26.4122 51.2562 28.1714 51.2562 29.9819C51.2562 31.7923 50.6353 33.5466 49.4099 35.2128C48.2048 36.8489 46.4709 38.3223 44.2564 39.5932C42.0217 40.8757 39.413 41.8832 36.5069 42.5884C30.2383 44.0608 23.7137 44.0608 17.4451 42.5884C14.539 41.8832 11.9342 40.8757 9.69559 39.5932C7.48214 38.3087 5.74819 36.8353 4.54023 35.1992C3.31775 33.5369 2.69973 31.7788 2.69973 29.9683C2.69973 28.1578 3.32066 26.4035 4.54605 24.7374C5.75109 23.1013 7.48504 21.6279 9.69946 20.357C11.9342 19.0744 14.5429 18.067 17.449 17.3618C20.5708 16.6166 23.7703 16.2458 26.9799 16.2575M26.9799 15.7267C13.2797 15.7267 2.17276 22.1006 2.17276 29.9664C2.17276 37.8321 13.273 44.208 26.9731 44.208C40.6733 44.208 51.7802 37.8331 51.7802 29.9683C51.7802 22.1035 40.6733 15.7286 26.9731 15.7286L26.9799 15.7267Z" fill="#231F20"/>
<path d="M0.612213 52.7189H1.55862V58.2937H0.612213V52.7189Z" fill="#231F20"/>
<path d="M3.45047 56.4135L3.45822 56.4677L3.46694 56.5297C3.47721 56.585 3.49047 56.6396 3.50665 56.6934C3.5466 56.8275 3.60882 56.9539 3.6907 57.0674C3.86422 57.2942 4.11107 57.4537 4.38913 57.5188C4.49405 57.5504 4.60124 57.5741 4.70976 57.5895C4.75251 57.5892 4.79523 57.5917 4.83763 57.5972H4.91803C5.3055 57.5972 5.61549 57.5217 5.84797 57.3706C5.96134 57.3073 6.05549 57.2146 6.12047 57.1022C6.18544 56.9898 6.21881 56.862 6.21704 56.7322C6.21731 56.6092 6.18184 56.4888 6.11494 56.3856C6.04804 56.2824 5.9526 56.2009 5.84022 56.151C5.66909 56.0573 5.32682 55.9508 4.81341 55.8313L4.65358 55.7926L4.48503 55.7538C4.362 55.7228 4.24673 55.6889 4.14017 55.6521C3.90922 55.5822 3.68619 55.4883 3.47469 55.3721C2.99357 55.0867 2.75301 54.687 2.75301 54.1729C2.74912 53.9659 2.79266 53.7608 2.88031 53.5732C2.96796 53.3857 3.09739 53.2207 3.25867 53.0909C3.63258 52.779 4.14566 52.6233 4.79791 52.624C5.43337 52.624 5.94097 52.756 6.32069 53.0202C6.74304 53.3166 6.96487 53.7451 6.98618 54.3056L6.04849 54.3599L6.04074 54.3056L6.03202 54.2427C6.02104 54.1916 6.01039 54.1451 6.00006 54.1032C5.96707 53.9876 5.91286 53.8792 5.84022 53.7835C5.6368 53.5349 5.29743 53.4106 4.82213 53.4106C4.54806 53.4007 4.27563 53.4568 4.02781 53.5743C3.78176 53.7034 3.65874 53.8852 3.65874 54.1196C3.65742 54.2202 3.68466 54.3191 3.7373 54.4049C3.78994 54.4906 3.86582 54.5596 3.95612 54.604C4.13759 54.708 4.48503 54.8171 4.99843 54.9314L5.17473 54.9701L5.35103 55.0089C5.48956 55.0457 5.61258 55.0786 5.71914 55.1058C5.96362 55.174 6.19834 55.2733 6.41756 55.4012C6.64798 55.5244 6.83927 55.7096 6.96974 55.936C7.10021 56.1623 7.16463 56.4207 7.1557 56.6818C7.16107 56.8921 7.12248 57.1011 7.04242 57.2956C6.96235 57.4901 6.84257 57.6658 6.69073 57.8113C6.30325 58.1949 5.70719 58.3867 4.90253 58.3867C4.09787 58.3867 3.48857 58.1765 3.07462 57.7561C2.748 57.4159 2.55712 56.968 2.53796 56.4968L3.45047 56.4135Z" fill="#231F20"/>
<path d="M8.5816 53.5132C9.07821 52.9217 9.78116 52.6259 10.6904 52.6259C11.5506 52.6259 12.2319 52.901 12.7344 53.4512C13.2097 53.9756 13.4476 54.6605 13.4483 55.5058C13.4489 56.3512 13.211 57.0389 12.7344 57.5691C12.2326 58.1148 11.5458 58.3874 10.674 58.3867C9.82475 58.3867 9.15151 58.1142 8.65425 57.5691C8.16732 57.0402 7.92386 56.3473 7.92386 55.4903C7.92386 54.6915 8.14311 54.0325 8.5816 53.5132ZM9.46407 57.1255C9.62571 57.2836 9.81773 57.4072 10.0285 57.489C10.2393 57.5707 10.4645 57.6089 10.6904 57.6011C11.3633 57.6011 11.8577 57.3312 12.1735 56.7913C12.2585 56.641 12.3258 56.4814 12.374 56.3157C12.4415 56.0458 12.474 55.7684 12.4709 55.4903C12.4709 54.8523 12.3159 54.3489 12.0059 53.9801C11.6908 53.6004 11.2523 53.4106 10.6904 53.4106C10.4669 53.4019 10.2438 53.4381 10.0345 53.5171C9.82519 53.5962 9.63386 53.7164 9.47182 53.8707C9.09016 54.2349 8.89933 54.78 8.89933 55.5058C8.89933 56.2123 9.08758 56.7522 9.46407 57.1255Z" fill="#231F20"/>
<path d="M17.2882 56.9153L17.2969 56.954L17.3046 57.0015L17.3366 57.11C17.361 57.1983 17.3989 57.2822 17.449 57.3589C17.5201 57.4639 17.6174 57.5486 17.7312 57.6046C17.845 57.6607 17.9714 57.6862 18.098 57.6786C18.2342 57.6826 18.3694 57.6552 18.4932 57.5984C18.6171 57.5416 18.7261 57.457 18.8119 57.3512C18.8806 57.266 18.9373 57.1718 18.9805 57.0712C18.996 57.0296 19.0124 56.986 19.0279 56.9385C19.045 56.9011 19.0586 56.8622 19.0686 56.8223C19.1112 56.6663 19.1461 56.5133 19.1723 56.3631C19.2086 56.1783 19.2274 55.9906 19.2284 55.8022H19.2129C19.1609 55.8681 19.1046 55.9306 19.0444 55.9892C18.966 56.0654 18.88 56.1332 18.7877 56.1917C18.5524 56.3367 18.2814 56.4135 18.005 56.4135C17.7884 56.4169 17.5734 56.3756 17.3734 56.2923C17.1734 56.209 16.9927 56.0853 16.8426 55.9291C16.5003 55.5875 16.3292 55.1387 16.3292 54.5827C16.3292 54.0266 16.4977 53.5746 16.8348 53.2265C17.0031 53.0513 17.2065 52.9135 17.4317 52.8224C17.6569 52.7312 17.8988 52.6887 18.1416 52.6976C18.8519 52.6976 19.3809 52.9934 19.7283 53.5849C20.0066 54.0628 20.1458 54.6882 20.1458 55.4613V55.5785C20.1458 55.6356 20.1458 55.6899 20.138 55.7422C20.1322 55.8768 20.1245 56.0095 20.1138 56.1384C20.0792 56.4742 20.0011 56.804 19.8813 57.1197C19.5442 57.9663 18.9349 58.3893 18.0534 58.3886C17.8185 58.3906 17.585 58.3512 17.3637 58.2724C17.1152 58.1874 16.8994 58.0269 16.7467 57.8132C16.6427 57.6747 16.564 57.519 16.5142 57.3531C16.492 57.2902 16.4758 57.2253 16.4657 57.1594L16.4493 57.0819L16.4338 57.0044L17.2882 56.9153ZM18.8923 53.7854C18.8126 53.6656 18.704 53.5678 18.5765 53.5011C18.449 53.4344 18.3068 53.4009 18.1629 53.4038C18.0259 53.3999 17.8901 53.4308 17.7681 53.4934C17.6462 53.5561 17.5421 53.6485 17.4654 53.7622C17.2939 54.0024 17.2063 54.2925 17.2165 54.5875C17.2033 54.8806 17.2973 55.1685 17.4809 55.3973C17.566 55.5012 17.6739 55.5839 17.7962 55.6392C17.9186 55.6945 18.052 55.7208 18.1861 55.716C18.3233 55.7222 18.4599 55.6949 18.5842 55.6367C18.7085 55.5785 18.8169 55.4911 18.9001 55.3818C19.061 55.1607 19.1428 54.8918 19.1325 54.6185C19.1414 54.3225 19.0574 54.0312 18.8923 53.7854Z" fill="#231F20"/>
<path d="M20.7997 55.3818C20.7995 55.322 20.8024 55.2622 20.8084 55.2026C20.8132 55.0573 20.821 54.912 20.8326 54.7822C20.8666 54.4605 20.9391 54.1441 21.0486 53.8397C21.3418 53.0777 21.8791 52.6963 22.6605 52.6957C23.4419 52.695 23.9789 53.0625 24.2714 53.798C24.3875 54.0983 24.4631 54.4126 24.4962 54.7328C24.5126 54.8723 24.5233 55.0234 24.5281 55.1765C24.5339 55.285 24.5359 55.407 24.5359 55.5426C24.5359 55.6783 24.5359 55.7887 24.5281 55.8923C24.5281 56.0435 24.5126 56.1829 24.4962 56.3205C24.4681 56.6432 24.3954 56.9604 24.2802 57.263C23.9857 58.0102 23.4484 58.3838 22.6683 58.3838C21.8881 58.3838 21.3483 58.0076 21.0486 57.2553C20.9379 56.9512 20.8653 56.6347 20.8326 56.3127C20.821 56.1781 20.8132 56.0357 20.8084 55.8846C20.8026 55.7809 20.7997 55.6647 20.7997 55.5349V55.3818ZM21.9069 57.0557C22.0515 57.471 22.3053 57.6786 22.6683 57.6786C23.0422 57.6786 23.3005 57.4526 23.4432 57.0005C23.5498 56.6679 23.603 56.1384 23.603 55.4119C23.603 54.0783 23.2879 53.4112 22.6576 53.4106C22.2992 53.4106 22.0451 53.6233 21.8952 54.0489C21.7829 54.3763 21.727 54.8775 21.7277 55.5523C21.7283 56.2272 21.788 56.7283 21.9069 57.0557Z" fill="#231F20"/>
<path d="M25.2256 55.3818C25.2256 55.3189 25.2256 55.2598 25.2334 55.2026C25.2392 55.0573 25.2469 54.912 25.2576 54.7822C25.2918 54.4605 25.3647 54.144 25.4746 53.8397C25.7678 53.0777 26.3047 52.6963 27.0855 52.6957C27.8663 52.695 28.4036 53.0625 28.6974 53.798C28.8126 54.0985 28.8881 54.4128 28.9221 54.7328C28.9376 54.8723 28.9483 55.0234 28.9541 55.1765C28.9589 55.285 28.9618 55.407 28.9618 55.5426C28.9618 55.6783 28.9618 55.7887 28.9541 55.8923C28.9483 56.0435 28.9376 56.1829 28.9221 56.3205C28.8938 56.6432 28.8208 56.9604 28.7051 57.263C28.412 58.0102 27.875 58.3838 27.0942 58.3838C26.3135 58.3838 25.7736 58.0076 25.4746 57.2553C25.3635 56.9513 25.2906 56.6347 25.2576 56.3127C25.2469 56.1781 25.2392 56.0357 25.2334 55.8846C25.2285 55.7809 25.2256 55.6647 25.2256 55.5349V55.3818ZM26.3357 57.0557C26.4804 57.471 26.7345 57.6786 27.0981 57.6786C27.472 57.6786 27.7303 57.4526 27.873 57.0005C27.9802 56.6679 28.0338 56.1384 28.0338 55.4119C28.0338 54.0783 27.7184 53.4112 27.0874 53.4106C26.73 53.4106 26.4752 53.6237 26.326 54.0489C26.2137 54.3763 26.1575 54.8775 26.1575 55.5523C26.1575 56.2272 26.2169 56.7283 26.3357 57.0557Z" fill="#231F20"/>
<path d="M31.4795 58.2937V54.0886C31.0717 54.4574 30.5908 54.736 30.0681 54.9062V54.1041L30.196 54.0489C30.2629 54.0217 30.3277 53.9893 30.3897 53.9521C30.551 53.8657 30.7063 53.7686 30.8547 53.6614C31.2725 53.365 31.5586 53.0421 31.7129 52.6928H32.3697V58.2908L31.4795 58.2937Z" fill="#231F20"/>
<path d="M34.4727 54.2601H35.4181V55.1794H34.4727V54.2601ZM34.4727 57.3744H35.4181V58.2937H34.4727V57.3744Z" fill="#231F20"/>
<path d="M40.1938 58.2937H36.3694C36.3862 57.9062 36.5518 57.5091 36.8663 57.1022C36.9938 56.9413 37.1334 56.7904 37.2838 56.6508C37.3419 56.5888 37.4068 56.5259 37.4776 56.4639L37.5667 56.3864L37.6461 56.3156C38.3468 55.7086 38.7853 55.2985 38.9616 55.0854C39.1622 54.8596 39.2759 54.5698 39.2822 54.2678C39.2882 54.1437 39.265 54.02 39.2145 53.9064C39.1641 53.7929 39.0877 53.6927 38.9916 53.614C38.8153 53.4705 38.593 53.3958 38.3659 53.4038C38.2717 53.4037 38.1778 53.4141 38.0859 53.4348C37.9764 53.4625 37.873 53.5101 37.7808 53.5752C37.5405 53.7418 37.4149 54.0221 37.4039 54.416L36.506 54.3192C36.5705 53.6734 36.8405 53.2139 37.3158 52.9407C37.4979 52.8436 37.694 52.7753 37.897 52.7383C37.9774 52.7228 38.0597 52.7102 38.146 52.6995C38.2147 52.6947 38.2816 52.6918 38.3455 52.6918C39.0139 52.6918 39.5112 52.8855 39.8373 53.273C39.9674 53.4214 40.063 53.5967 40.1172 53.7864C40.1706 53.939 40.1978 54.0994 40.1976 54.2611C40.1976 54.666 40.0456 55.0631 39.7414 55.4525C39.5535 55.6967 39.206 56.0367 38.6991 56.4726C38.4579 56.675 38.2661 56.8465 38.1179 56.9869C37.9504 57.1309 37.802 57.2956 37.6761 57.4771H40.1947L40.1938 58.2937Z" fill="#231F20"/>
<path d="M40.9232 55.3818C40.9231 55.322 40.926 55.2622 40.9319 55.2026C40.9368 55.0573 40.9445 54.912 40.9552 54.7822C40.9899 54.4605 41.0627 54.1442 41.1721 53.8397C41.466 53.0777 42.0033 52.6963 42.784 52.6957C43.5648 52.695 44.1018 53.0625 44.395 53.798C44.5111 54.0983 44.5866 54.4126 44.6197 54.7328C44.6352 54.8723 44.6468 55.0234 44.6517 55.1765C44.6575 55.285 44.6594 55.407 44.6594 55.5426C44.6594 55.6783 44.6594 55.7887 44.6517 55.8923C44.6468 56.0435 44.6352 56.1829 44.6197 56.3205C44.5918 56.6433 44.5188 56.9605 44.4027 57.263C44.1095 58.0102 43.5726 58.3838 42.7918 58.3838C42.011 58.3838 41.4711 58.0076 41.1721 57.2553C41.0615 56.9512 40.9887 56.6346 40.9552 56.3127C40.9445 56.1781 40.9368 56.0357 40.9319 55.8846C40.9261 55.7809 40.9232 55.6647 40.9232 55.5349V55.3818ZM42.0285 57.0557C42.1718 57.4713 42.4266 57.6786 42.7898 57.6786C43.1531 57.6786 43.4234 57.4529 43.5648 57.0005C43.6714 56.6679 43.7246 56.1384 43.7246 55.4119C43.7246 54.0783 43.4095 53.4112 42.7792 53.4106C42.4208 53.4106 42.1667 53.6233 42.0168 54.0489C41.9045 54.3763 41.8486 54.8775 41.8493 55.5523C41.8499 56.2272 41.9096 56.7283 42.0285 57.0557Z" fill="#231F20"/>
<path d="M47.177 58.2937V54.0886C46.7694 54.4576 46.2885 54.7362 45.7657 54.9062V54.1041L45.8945 54.0489C45.9614 54.0215 46.0261 53.9891 46.0882 53.9521C46.2499 53.8657 46.4055 53.7686 46.5542 53.6614C46.9707 53.365 47.2565 53.0421 47.4115 52.6928H48.0692V58.2908L47.177 58.2937Z" fill="#231F20"/>
<path d="M50.6808 56.7603C50.7337 57.1174 50.8806 57.3741 51.1215 57.5304C51.2113 57.5892 51.3122 57.6291 51.4179 57.6476C51.4937 57.6682 51.5719 57.6786 51.6504 57.6786C51.7994 57.6829 51.9473 57.6512 52.0813 57.5861C52.2154 57.521 52.3318 57.4244 52.4205 57.3047C52.5948 57.0654 52.6851 56.7752 52.6772 56.4794C52.6772 56.0744 52.5649 55.7683 52.3401 55.561C52.1469 55.3819 51.8906 55.2865 51.6272 55.2956C51.4408 55.2928 51.2565 55.3354 51.0902 55.4198C50.924 55.5042 50.7808 55.6278 50.673 55.78L49.8981 55.6782L50.4589 52.7974H53.3427V53.6149H51.1535L50.9055 54.8529C51.1877 54.6799 51.5122 54.5883 51.8432 54.5885C52.2936 54.5811 52.7287 54.7517 53.0541 55.0631C53.4228 55.406 53.6072 55.8552 53.6072 56.4106C53.6166 56.9013 53.444 57.3782 53.1228 57.7493C52.7541 58.1755 52.2546 58.3883 51.6243 58.3877C51.1831 58.4011 50.7504 58.2645 50.3969 58.0002C50.2203 57.8603 50.0741 57.6857 49.9677 57.4871C49.8612 57.2885 49.7966 57.0701 49.778 56.8455L50.6808 56.7603Z" fill="#231F20"/>
<path d="M68.4204 6.02718L70.7724 5.86541C70.8227 6.28452 70.9264 6.60419 71.0833 6.82441C71.3377 7.17959 71.7017 7.35719 72.175 7.35719C72.5276 7.35719 72.7998 7.2671 72.9906 7.08499C73.081 7.00605 73.1536 6.90887 73.2037 6.79984C73.2538 6.69081 73.2802 6.57241 73.2813 6.45243C73.2801 6.33725 73.2553 6.22354 73.2083 6.11838C73.1613 6.01322 73.0931 5.91886 73.0081 5.84119C72.826 5.6623 72.4039 5.49278 71.742 5.33263C70.6577 5.06398 69.8847 4.70879 69.423 4.26707C69.1933 4.04975 69.0122 3.78624 68.8916 3.49389C68.7711 3.20154 68.7138 2.88697 68.7236 2.5709C68.7234 2.11999 68.8471 1.67769 69.081 1.29223C69.3358 0.875554 69.7106 0.545649 70.1563 0.345822C70.6348 0.11592 71.2906 0.000968933 72.1237 0.000968933C73.1466 0.000968933 73.9261 0.20956 74.4621 0.626742C74.9981 1.04392 75.3174 1.70812 75.4201 2.61933L73.0953 2.76851C73.0307 2.37329 72.9015 2.08591 72.7078 1.90638C72.5141 1.72685 72.2402 1.63676 71.8863 1.63611C71.5957 1.63611 71.3826 1.70392 71.2364 1.8376C71.1674 1.89796 71.1122 1.97245 71.0746 2.05603C71.037 2.13961 71.0178 2.2303 71.0184 2.32195C71.0198 2.39398 71.0366 2.46487 71.0677 2.52987C71.0988 2.59487 71.1434 2.65246 71.1986 2.69877C71.3148 2.81501 71.5919 2.92253 72.0278 3.02231C73.1088 3.28062 73.8838 3.53894 74.3526 3.79726C74.7769 4.0179 75.1304 4.35362 75.3727 4.76595C75.5886 5.16514 75.6987 5.61305 75.6923 6.06689C75.6961 6.61541 75.5486 7.15436 75.2661 7.62454C74.987 8.09604 74.5725 8.4727 74.0766 8.7056C73.567 8.95165 72.9248 9.07467 72.1498 9.07467C70.7891 9.07467 69.8469 8.78697 69.3232 8.21157C68.7995 7.63617 68.4985 6.90804 68.4204 6.02718Z" fill="#ED008C"/>
<path d="M76.9981 0.150146H79.4702V3.22379H82.1709V0.150146H84.6546V8.93324H82.1738V5.38009H79.4731V8.93324H76.9981V0.150146Z" fill="#ED008C"/>
<path d="M86.4002 8.93324V0.150146H90.52C91.2846 0.150146 91.8687 0.22183 92.2724 0.365195C92.6799 0.512244 93.0245 0.794691 93.2488 1.16533C93.507 1.59399 93.6359 2.08816 93.6198 2.58834C93.6313 3.02516 93.5337 3.45796 93.336 3.84763C93.1524 4.19534 92.8838 4.49092 92.5552 4.70686C92.2861 4.87065 91.9914 4.9882 91.6834 5.05462C91.9129 5.12943 92.1297 5.23851 92.3266 5.37816C92.4755 5.51669 92.608 5.67171 92.7218 5.84022C92.8542 6.0111 92.9704 6.19401 93.0686 6.38656L94.2659 8.9313H91.4722L90.1509 6.24707C89.983 5.89963 89.8339 5.67361 89.7034 5.56899C89.5301 5.43516 89.3169 5.36351 89.098 5.36556H88.8791V8.93034L86.4002 8.93324ZM88.8829 3.70911H89.9252C90.1469 3.69024 90.3662 3.65001 90.5801 3.58899C90.7446 3.55268 90.8885 3.45364 90.9811 3.31291C91.0854 3.16407 91.14 2.98607 91.1371 2.80435C91.1448 2.68414 91.1269 2.56366 91.0844 2.45092C91.042 2.33818 90.9761 2.23577 90.891 2.15049C90.7273 1.99937 90.4202 1.92285 89.9688 1.92285H88.8829V3.70911Z" fill="#ED008C"/>
<path d="M95.1223 0.150146H101.748V2.02553H97.6002V3.42625H101.448V5.21735H97.6002V6.94937H101.868V8.93808H95.1223V0.150146Z" fill="#ED008C"/>
<path d="M103.261 0.150146H109.886V2.02553H105.739V3.42625H109.587V5.21735H105.739V6.94937H110.001V8.93808H103.256L103.261 0.150146Z" fill="#ED008C"/>
<path d="M100.879 14.6514C95.2608 14.6592 89.6446 14.6592 84.0308 14.6514C83.7189 14.6514 83.6278 14.7618 83.592 15.0495C83.5048 15.7538 83.3866 16.4532 83.2771 17.1545C83.2607 17.262 83.3159 17.4209 83.1628 17.4558C83.0098 17.4906 82.9856 17.3289 82.9333 17.233C82.5158 16.4784 82.0963 15.7257 81.6924 14.9643C81.6516 14.8643 81.5798 14.7801 81.4875 14.7239C81.3953 14.6678 81.2875 14.6427 81.1799 14.6524C76.5477 14.6601 71.9157 14.6601 67.2841 14.6524C66.979 14.6524 66.8782 14.758 66.8327 15.0466C66.5615 16.7476 66.2815 18.4487 65.9793 20.1448C65.9202 20.4732 66.0296 20.51 66.3048 20.5071C67.255 20.4955 68.2053 20.4994 69.1556 20.5023C69.7126 20.5023 69.7853 20.5866 69.6971 21.1213C69.3174 23.4384 68.937 25.7555 68.556 28.0726C68.2257 30.0904 67.9031 32.1091 67.566 34.1259C67.4517 34.8108 67.3122 34.9183 66.6312 34.9231C65.7826 34.9289 64.9331 34.9541 64.0865 34.9154C63.6777 34.897 63.5721 35.0597 63.5188 35.4133C63.2766 37.0174 63.0345 38.6216 62.7439 40.218C62.6635 40.6713 62.7342 40.7876 63.2175 40.7866C68.6648 40.7685 74.1111 40.7685 79.5564 40.7866C80.0902 40.7866 80.2916 40.6636 80.3372 40.1201C80.4098 39.2377 80.5726 38.363 80.6975 37.4892C80.9116 37.5047 80.9174 37.6471 80.9707 37.7449C81.455 38.6361 81.9481 39.5234 82.416 40.4224C82.5506 40.681 82.7066 40.7808 83.0049 40.7798C86.2985 40.7688 89.5901 40.7688 92.8797 40.7798C93.1703 40.7798 93.3031 40.6936 93.3486 40.4001C93.7729 37.6471 94.2033 34.895 94.6399 32.144C95.2114 28.5275 95.7868 24.9111 96.366 21.2947C96.4629 20.6563 96.6305 20.5197 97.2669 20.51C98.0816 20.4974 98.8992 20.4587 99.709 20.5197C100.244 20.5594 100.361 20.3347 100.426 19.8862C100.661 18.2666 100.915 16.6498 101.188 15.036C101.241 14.7299 101.186 14.6514 100.879 14.6514ZM99.5685 19.2285C99.5259 19.5288 99.4174 19.5869 99.1539 19.582C98.4923 19.5694 97.8307 19.5733 97.1691 19.582C96.244 19.5907 95.6608 20.015 95.4884 20.913C95.2482 22.1587 95.0719 23.4171 94.8723 24.6705C94.6883 25.833 94.513 26.9896 94.3279 28.1481C94.1051 29.5518 93.8765 30.9573 93.6499 32.3561C93.3544 34.1889 93.056 36.0216 92.7654 37.8554C92.6763 38.4162 92.5901 38.979 92.5368 39.5438C92.5136 39.7869 92.4293 39.8615 92.1949 39.8615C89.2765 39.8563 86.3579 39.8563 83.4389 39.8615C83.1667 39.8615 83.0941 39.6901 83.0011 39.5186C81.7631 37.2267 80.527 34.9341 79.2929 32.6409C78.7001 31.5431 78.1053 30.4452 77.5086 29.3474C77.4582 29.2553 77.4631 29.0868 77.2926 29.111C77.0853 29.1401 77.1705 29.3173 77.1521 29.4355C76.8945 31.1569 76.6455 32.8811 76.3772 34.6015C76.2745 35.2719 76.5806 35.7029 77.249 35.8192C78.1412 35.9742 79.042 35.8666 79.9613 35.916C79.8025 37.0552 79.6349 38.176 79.4963 39.2997C79.4469 39.7026 79.3375 39.8731 78.8599 39.8712C73.9906 39.8479 69.1204 39.8479 64.2492 39.8712C63.7862 39.8712 63.7745 39.7211 63.8394 39.3529C64.0183 38.3487 64.1769 37.341 64.3151 36.3297C64.3606 35.9916 64.4856 35.8918 64.8294 35.8967C65.5569 35.9064 66.2873 35.9558 67.0138 35.8628C67.8643 35.7533 68.3409 35.2486 68.4775 34.4407C68.7681 32.7068 69.0306 30.968 69.3116 29.2331C69.5227 27.9263 69.7484 26.6234 69.9616 25.3176C70.195 23.8811 70.4517 22.4464 70.6396 21.0031C70.7598 20.0751 70.2686 19.5907 69.3232 19.583C68.678 19.5782 68.0329 19.5665 67.3858 19.5878C67.103 19.5975 67.0293 19.5026 67.0749 19.2459C67.2764 18.1261 67.4866 17.0063 67.6619 15.8826C67.6987 15.6482 67.7839 15.6259 67.9757 15.6259C72.218 15.6298 76.4602 15.6278 80.7024 15.6201C80.9688 15.6201 81.0462 15.7528 81.1441 15.932C82.9691 19.2901 84.798 22.6444 86.6307 25.9947C86.683 26.0916 86.6666 26.3144 86.8555 26.2592C86.9862 26.2204 86.995 26.0354 87.0056 25.9095C87.1219 24.5359 87.4464 23.1914 87.5529 21.8149C87.6566 20.4819 86.8748 19.5869 85.5255 19.5869C85.0847 19.5869 84.643 19.5752 84.2022 19.5869C83.9484 19.5946 83.8429 19.5559 83.8932 19.2536C84.0734 18.1784 84.2226 17.0973 84.3776 16.0192C84.4115 15.7916 84.4512 15.622 84.7699 15.622C89.8768 15.6327 94.9837 15.6298 100.139 15.6298C99.9463 16.8523 99.7332 18.037 99.5685 19.2285ZM79.3617 34.8921C78.7524 34.8921 78.2196 34.8999 77.6878 34.8863C77.5212 34.8863 77.3497 34.8447 77.3914 34.587C77.526 33.7549 77.6481 32.9199 77.7924 31.9715L79.3617 34.8921ZM84.8309 20.5953C85.1709 20.5953 85.4528 20.5769 85.7318 20.5953C86.4205 20.6486 86.6133 21.0903 86.592 21.6521C86.5726 22.18 86.4515 22.7041 86.3556 23.3618C85.8238 22.4028 85.3404 21.5262 84.828 20.5953H84.8309Z" fill="#ED008C"/>
<path d="M280.132 14.6485C274.55 14.6588 268.967 14.6588 263.384 14.6485C263.057 14.6485 262.946 14.758 262.908 15.0738C262.811 15.8904 262.669 16.7031 262.547 17.5168L262.428 17.5497C261.97 16.7099 261.51 15.871 261.057 15.0311C260.941 14.8171 260.844 14.6495 260.536 14.6504C255.887 14.6621 251.237 14.6621 246.587 14.6504C246.304 14.6504 246.206 14.7473 246.162 15.0147C245.883 16.7331 245.594 18.4493 245.296 20.1632C245.246 20.4538 245.337 20.5062 245.599 20.5033C246.498 20.4916 247.398 20.4974 248.297 20.4984C249.087 20.4984 249.113 20.5304 248.987 21.2956C248.645 23.379 248.304 25.4633 247.964 27.5485C247.611 29.7158 247.258 31.8834 246.906 34.0513C246.783 34.8088 246.654 34.9173 245.877 34.9231C245.046 34.928 244.214 34.9464 243.384 34.9135C243.003 34.8989 242.9 35.0384 242.844 35.3881C242.602 37.0087 242.346 38.6284 242.064 40.2422C241.99 40.6655 242.064 40.7856 242.516 40.7837C247.98 40.7682 253.444 40.7682 258.907 40.7837C259.469 40.7837 259.618 40.6026 259.666 40.0901C259.746 39.2183 259.902 38.3465 260.031 37.435C260.235 37.5318 260.262 37.6752 260.321 37.7875C260.8 38.662 261.275 39.5386 261.747 40.4175C261.855 40.6171 261.948 40.776 262.232 40.775C265.575 40.7653 268.917 40.7653 272.259 40.775C272.5 40.775 272.617 40.7207 272.657 40.4505C272.871 39.0139 273.114 37.5822 273.335 36.1485C274.11 31.2121 274.885 26.2757 275.66 21.3392C275.767 20.6534 275.931 20.51 276.628 20.5023C277.51 20.4916 278.393 20.4878 279.275 20.5023C279.559 20.5081 279.654 20.4054 279.695 20.1371C279.953 18.4529 280.22 16.7696 280.496 15.0873C280.557 14.7676 280.498 14.6475 280.132 14.6485ZM278.873 19.2817C278.837 19.5278 278.776 19.5878 278.543 19.582C277.933 19.5685 277.322 19.5762 276.711 19.582C275.451 19.582 274.863 20.077 274.694 21.3257C274.37 23.7096 273.952 26.079 273.575 28.4542C273.154 31.1133 272.753 33.7762 272.34 36.4372C272.176 37.4921 271.992 38.5451 271.843 39.6029C271.81 39.8402 271.715 39.8654 271.518 39.8654C268.601 39.8602 265.682 39.8602 262.763 39.8654C262.41 39.8654 262.366 39.599 262.255 39.3927C260.728 36.5764 259.203 33.7581 257.682 30.938C257.388 30.3955 257.094 29.853 256.8 29.3106C256.748 29.2137 256.74 29.0577 256.576 29.0936C256.45 29.1217 256.473 29.2428 256.458 29.3425C256.21 31.0804 255.959 32.8185 255.706 34.557C255.594 35.3261 255.871 35.6923 256.628 35.8279C257.5 35.9848 258.387 35.857 259.285 35.9248C259.12 37.094 258.945 38.2225 258.811 39.3559C258.769 39.7211 258.68 39.8673 258.269 39.8654C253.365 39.8499 248.462 39.8499 243.559 39.8654C243.138 39.8654 243.085 39.7385 243.148 39.381C243.323 38.391 243.48 37.3972 243.627 36.4023C243.681 36.0371 243.815 35.8812 244.23 35.8909C244.956 35.9083 245.684 35.98 246.412 35.8356C247.214 35.6758 247.661 35.2864 247.79 34.5124C248.117 32.5654 248.407 30.6125 248.725 28.6644C249.01 26.9131 249.316 25.1655 249.605 23.4142C249.738 22.6053 249.88 21.7955 249.97 20.9808C250.067 20.0819 249.599 19.5907 248.681 19.582C248.035 19.5752 247.39 19.5627 246.743 19.5888C246.407 19.6033 246.34 19.4919 246.399 19.1849C246.606 18.099 246.82 17.0131 246.97 15.9184C247.014 15.6027 247.147 15.6278 247.352 15.6278C248.336 15.6278 249.32 15.6278 250.304 15.6278C253.493 15.6278 256.683 15.6278 259.873 15.6278C260.133 15.6278 260.319 15.6404 260.475 15.9301C262.287 19.2934 264.112 22.6489 265.952 25.9967C266.009 26.0994 266.033 26.2979 266.217 26.2427C266.347 26.204 266.319 26.049 266.335 25.9327C266.511 24.5876 266.69 23.2417 266.87 21.8953C267.05 20.5391 266.213 19.6266 264.932 19.5878C264.441 19.5733 263.948 19.5782 263.457 19.5878C263.242 19.5878 263.156 19.5462 263.197 19.2972C263.373 18.2569 263.533 17.2126 263.688 16.1684C263.742 15.808 263.829 15.6123 264.296 15.6143C269.183 15.6395 274.069 15.6298 278.955 15.6298H279.47C279.266 16.8736 279.05 18.0747 278.873 19.2817ZM258.689 34.8921C258.091 34.8921 257.569 34.897 257.047 34.8921C256.781 34.8921 256.673 34.8011 256.733 34.4814C256.883 33.6919 256.974 32.8918 257.105 31.9715L258.689 34.8921ZM264.192 20.6621C264.244 20.6292 264.269 20.6001 264.294 20.6001C265.773 20.5614 265.951 20.7425 265.827 22.1655C265.795 22.5278 265.742 22.8882 265.68 23.4016L264.192 20.6621Z" fill="#ED008C"/>
<path d="M171.256 14.6543C165.638 14.6588 160.022 14.6572 154.409 14.6495C154.094 14.6495 154.021 14.7609 153.983 15.0515C153.875 15.8787 153.724 16.6982 153.589 17.5333C153.454 17.5187 153.427 17.4364 153.387 17.3647C152.948 16.5646 152.502 15.7683 152.075 14.9633C152.034 14.8634 151.963 14.7791 151.87 14.723C151.778 14.6668 151.67 14.6417 151.563 14.6514C146.932 14.6604 142.3 14.6604 137.668 14.6514C137.356 14.6514 137.255 14.7735 137.211 15.0486C136.938 16.7292 136.664 18.4109 136.368 20.0857C136.305 20.4364 136.401 20.512 136.735 20.5052C137.618 20.4858 138.5 20.4984 139.382 20.4984C140.145 20.4984 140.175 20.5536 140.047 21.3218C139.585 24.1 139.136 26.8811 138.678 29.6603C138.424 31.2102 138.16 32.7542 137.903 34.3012C137.83 34.7459 137.578 34.928 137.128 34.9222C136.212 34.9096 135.296 34.9222 134.38 34.9222C134.148 34.9222 133.975 34.9154 133.927 35.2409C133.677 36.9264 133.415 38.61 133.113 40.2868C133.031 40.745 133.189 40.7798 133.569 40.7789C139.1 40.7698 144.631 40.7698 150.162 40.7789C150.489 40.7789 150.64 40.7159 150.679 40.3565C150.788 39.3878 150.943 38.4279 151.079 37.464L151.194 37.4534C151.731 38.4463 152.274 39.4363 152.801 40.435C152.925 40.6694 153.061 40.7798 153.346 40.7789C156.64 40.7679 159.931 40.7679 163.221 40.7789C163.512 40.7789 163.677 40.7343 163.729 40.3914C163.977 38.7049 164.258 37.0233 164.524 35.3387C165.265 30.6541 166.006 25.9692 166.745 21.284C166.842 20.6505 166.995 20.5178 167.652 20.5091C168.499 20.4965 169.35 20.4781 170.196 20.5178C170.623 20.5381 170.738 20.3705 170.794 19.9928C171.036 18.3395 171.295 16.6889 171.569 15.0408C171.626 14.7231 171.556 14.6533 171.256 14.6543ZM170.45 15.9853C170.236 17.0693 170.071 18.1639 169.927 19.2595C169.891 19.5355 169.807 19.5869 169.563 19.5811C168.982 19.5685 168.409 19.5811 167.833 19.5811C166.468 19.5811 165.93 20.078 165.733 21.409C165.418 23.5275 165.066 25.6402 164.738 27.7558C164.454 29.5905 164.191 31.4291 163.901 33.2628C163.649 34.867 163.372 36.4663 163.11 38.0685C163.031 38.546 162.916 39.0246 162.903 39.505C162.891 39.8625 162.728 39.8625 162.464 39.8615C160.919 39.8518 159.374 39.8557 157.83 39.8547C156.557 39.8547 155.285 39.8402 154.013 39.8664C153.674 39.8731 153.502 39.7695 153.348 39.4789C151.544 36.1272 149.734 32.7794 147.918 29.4355C147.85 29.3086 147.831 29.1449 147.636 29.0694C147.442 29.5246 147.442 30.0138 147.368 30.4846C147.158 31.8737 146.95 33.2647 146.787 34.6597C146.69 35.4637 146.932 35.6816 147.743 35.8279C148.602 35.9819 149.468 35.8444 150.337 35.9248C150.173 37.1162 150.002 38.2884 149.853 39.4644C149.816 39.755 149.728 39.8664 149.415 39.8654C144.461 39.8563 139.506 39.8563 134.55 39.8654C134.233 39.8654 134.131 39.7879 134.188 39.4624C134.367 38.4385 134.516 37.4098 134.686 36.3859C134.737 36.0836 134.824 35.8744 135.248 35.8889C135.989 35.916 136.739 35.9809 137.476 35.8318C138.307 35.6632 138.718 35.2322 138.851 34.3923C139.189 32.2457 139.532 30.0994 139.88 27.9534C140.254 25.6441 140.645 23.3367 141.014 21.0254C141.155 20.1448 140.68 19.6004 139.785 19.5849C139.139 19.5733 138.494 19.5704 137.847 19.5849C137.511 19.5927 137.376 19.5627 137.467 19.1442C137.696 18.0786 137.873 17.0053 138.015 15.9272C138.055 15.6249 138.17 15.623 138.388 15.6259C138.897 15.6327 139.406 15.6259 139.915 15.6259C143.581 15.6259 147.246 15.6307 150.912 15.6182C151.239 15.6182 151.414 15.7044 151.573 15.9998C153.372 19.3302 155.183 22.656 157.005 25.9773C157.063 26.0848 157.08 26.2805 157.257 26.2437C157.393 26.2156 157.361 26.05 157.377 25.9395C157.557 24.5785 157.725 23.2146 157.926 21.8565C158.105 20.6447 157.284 19.6285 156.042 19.5849C155.534 19.5685 155.024 19.5849 154.515 19.5849C154.37 19.5849 154.187 19.6285 154.231 19.3709C154.424 18.2326 154.618 17.0944 154.799 15.9533C154.836 15.7141 154.896 15.6259 155.163 15.6259C160.169 15.6356 165.174 15.6356 170.177 15.6259C170.507 15.6201 170.51 15.6811 170.45 15.9853ZM149.74 34.8912C149.148 34.8912 148.628 34.8989 148.108 34.8912C147.864 34.8912 147.712 34.8398 147.78 34.4979C147.937 33.7045 148.029 32.8976 148.168 31.9793C148.714 32.9945 149.215 33.9196 149.74 34.8912ZM155.204 20.5943H155.895C156.741 20.6021 157.091 21.067 156.922 21.9049C156.833 22.3457 156.806 22.799 156.734 23.3928L155.204 20.5943Z" fill="#ED008C"/>
<path d="M131.377 35.0055C130.648 35.0181 129.919 35.0142 129.19 34.9977C128.462 34.9813 128.402 34.929 128.256 34.2141C127.935 32.6293 127.621 31.0426 127.301 29.4568C126.34 24.6825 125.381 19.9075 124.423 15.1319C124.351 14.7706 124.229 14.6427 123.835 14.6475C119.646 14.6643 115.456 14.6643 111.266 14.6475C110.901 14.6475 110.731 14.7715 110.576 15.0815C108.368 19.489 106.152 23.8933 103.93 28.2944C102.961 30.225 101.964 32.1469 101.004 34.0843C100.697 34.7032 100.235 34.988 99.5589 34.988C98.8827 34.988 98.2356 35.0268 97.575 35.0045C97.2185 34.9919 97.1178 35.1266 97.0703 35.454C96.8427 37.0242 96.5937 38.5916 96.3457 40.1589C96.2488 40.774 96.2421 40.773 96.8475 40.773H113.539C119.119 40.773 124.7 40.776 130.281 40.7818C130.676 40.7818 130.849 40.6849 130.91 40.281C131.157 38.6468 131.426 37.0165 131.705 35.3871C131.757 35.0791 131.672 35.0055 131.377 35.0055ZM130.602 36.2531C130.427 37.342 130.259 38.4317 130.09 39.5215C130.037 39.8683 129.792 39.8547 129.524 39.8547C126.894 39.8496 124.264 39.8496 121.634 39.8547C119.019 39.8547 116.403 39.845 113.796 39.8644C113.403 39.8644 113.35 39.7288 113.408 39.4053C113.584 38.4191 113.751 37.432 113.919 36.4449C113.978 36.102 114.09 35.8957 114.526 35.9209C115.286 35.9645 116.052 35.9335 116.815 35.9151C117.542 35.8976 117.897 35.5053 117.843 34.7827C117.801 34.2131 117.729 33.6445 117.674 33.0749C117.64 32.7184 117.492 32.5566 117.093 32.5605C115.261 32.5818 113.429 32.5818 111.596 32.5605C111.223 32.5605 111.061 32.6874 110.949 33.0235C110.766 33.5757 110.525 34.1085 110.323 34.6548C110.016 35.485 110.275 35.8909 111.137 35.9141C111.763 35.9325 112.396 35.9529 113.018 35.9141C113.405 35.8918 113.445 36.0836 113.397 36.3616C113.212 37.4165 113.009 38.4666 112.831 39.5225C112.787 39.7869 112.691 39.8644 112.42 39.8596C111.386 39.8402 110.35 39.8499 109.315 39.8499C105.463 39.8499 101.612 39.8499 97.76 39.8576C97.4171 39.8576 97.3357 39.8015 97.4055 39.4401C97.606 38.3881 97.7765 37.3294 97.9102 36.2677C97.9489 35.9625 98.0516 35.9219 98.3141 35.9209C98.9399 35.9209 99.5734 35.9209 100.19 35.856C101.037 35.7688 101.511 35.1663 101.862 34.4746C103.315 31.6199 104.746 28.7594 106.187 25.8988C107.866 22.575 109.54 19.2507 111.208 15.9262C111.323 15.6966 111.448 15.6162 111.702 15.6162C115.554 15.6246 119.405 15.6246 123.257 15.6162C123.468 15.6162 123.547 15.6385 123.602 15.8952C124.053 18.2356 124.534 20.5711 125.01 22.9075C125.542 25.523 126.089 28.1278 126.611 30.7413C126.879 32.081 127.069 33.4352 127.444 34.7517C127.708 35.6729 128 35.8841 128.953 35.9073C129.393 35.918 129.835 35.9403 130.276 35.9219C130.541 35.916 130.65 35.9742 130.604 36.257L130.602 36.2531ZM116.779 34.3661C116.996 34.8999 116.692 34.9474 116.278 34.9474C114.668 34.9396 113.059 34.9474 111.45 34.9415C111.404 34.9352 111.358 34.9222 111.315 34.9028C111.313 34.8704 111.316 34.8379 111.322 34.8059C111.77 33.5786 111.77 33.5786 113.084 33.5786C114.149 33.5786 115.215 33.5922 116.286 33.5718C116.635 33.5641 116.841 33.6096 116.763 34.0213C116.738 34.1371 116.744 34.2575 116.781 34.37L116.779 34.3661Z" fill="#ED008C"/>
<path d="M239.738 35.0055C239.145 35.021 238.55 35.0123 237.956 35.0055C236.829 34.9977 236.824 34.989 236.607 33.908C235.349 27.6438 234.092 21.3796 232.838 15.1154C232.763 14.7396 232.625 14.6359 232.246 14.6369C228.054 14.6517 223.863 14.6517 219.672 14.6369C219.333 14.6369 219.164 14.7337 219.012 15.0389C216.674 19.7099 214.328 24.377 211.973 29.0403C211.121 30.7316 210.251 32.4133 209.406 34.1085C209.116 34.6897 208.675 34.9658 208.037 34.9725C207.376 34.9784 206.712 35.0249 206.053 34.989C205.643 34.9667 205.532 35.1333 205.48 35.4889C205.247 37.0765 205.014 38.6642 204.739 40.2451C204.659 40.7043 204.787 40.7701 205.209 40.7692C210.791 40.7556 216.374 40.7527 221.957 40.7605C227.54 40.7605 233.123 40.7637 238.706 40.7701C239.105 40.7701 239.262 40.6733 239.322 40.2645C239.56 38.6442 239.824 37.0268 240.112 35.4123C240.182 35.0413 240.056 35.0055 239.738 35.0055ZM239.033 36.2318C238.845 37.3197 238.655 38.4085 238.482 39.4992C238.44 39.7743 238.354 39.8615 238.046 39.8586C235.399 39.8392 232.752 39.8479 230.103 39.8479C227.473 39.8479 224.843 39.848 222.213 39.8547C221.89 39.8547 221.735 39.8644 221.826 39.444C222.05 38.3988 222.218 37.341 222.394 36.2851C222.44 36.01 222.53 35.9073 222.845 35.918C223.657 35.947 224.473 35.9277 225.287 35.9054C225.918 35.8889 226.212 35.5819 226.224 34.9687C226.247 34.2971 226.192 33.6251 226.059 32.9664C225.993 32.6651 225.885 32.5537 225.564 32.5557C223.68 32.5712 221.797 32.5712 219.913 32.5557C219.648 32.5557 219.5 32.6525 219.412 32.8773C219.167 33.5127 218.908 34.1434 218.682 34.7856C218.45 35.4511 218.742 35.8792 219.437 35.9015C220.131 35.9238 220.827 35.9296 221.522 35.9209C221.755 35.9209 221.882 35.9519 221.833 36.2173C221.631 37.3361 221.419 38.454 221.24 39.5777C221.197 39.846 221.069 39.8518 220.865 39.8518C215.944 39.848 211.023 39.848 206.102 39.8518C205.849 39.8518 205.769 39.8431 205.828 39.5225C206.015 38.5044 206.142 37.4747 206.273 36.4469C206.325 36.0468 206.481 35.8754 206.92 35.9093C207.445 35.9493 207.972 35.9399 208.495 35.8812C209.409 35.7795 209.937 35.1576 210.322 34.3942C212.028 31.0116 213.732 27.6276 215.432 24.2424C216.814 21.5 218.203 18.7616 219.57 16.0085C219.721 15.7044 219.882 15.6056 220.22 15.6065C223.986 15.6201 227.753 15.6201 231.52 15.6065C231.861 15.6065 231.976 15.6637 232.049 16.0492C232.515 18.4709 233.046 20.8869 233.535 23.3076C234.259 26.8917 234.966 30.4807 235.681 34.0688C235.721 34.2625 235.752 34.464 235.805 34.6577C236.062 35.6196 236.386 35.8734 237.406 35.9025C237.847 35.916 238.289 35.9257 238.729 35.9131C238.971 35.918 239.081 35.9742 239.035 36.2347L239.033 36.2318ZM219.695 34.9309C219.862 34.5153 220.028 34.1404 220.163 33.7549C220.232 33.5612 220.366 33.5728 220.519 33.5728C221.944 33.5728 223.369 33.5825 224.794 33.5679C225.114 33.5679 225.197 33.6852 225.205 33.9825C225.234 34.9512 225.244 34.9406 224.266 34.9338C222.763 34.9261 221.259 34.9338 219.697 34.9338L219.695 34.9309Z" fill="#ED008C"/>
<path d="M205.001 21.2017C204.523 18.2288 202.958 16.1006 199.972 15.1716C198.594 14.7425 197.176 14.6572 195.748 14.6572C188.894 14.6572 182.042 14.665 175.188 14.6437C174.704 14.6437 174.59 14.8277 174.526 15.2249C174.267 16.8394 173.998 18.4538 173.718 20.0683C173.662 20.3899 173.718 20.5188 174.079 20.5091C174.994 20.4858 175.911 20.5003 176.827 20.5023C177.462 20.5023 177.505 20.5517 177.42 21.1678C177.407 21.2646 177.381 21.3673 177.365 21.4671L176.133 29.0616C175.856 30.7607 175.585 32.4607 175.298 34.1579C175.188 34.8011 175.034 34.9164 174.383 34.9202C173.502 34.926 172.619 34.9328 171.737 34.9202C171.452 34.9202 171.312 34.9832 171.264 35.2922C171.012 36.9435 170.746 38.5925 170.467 40.2393C170.397 40.6491 170.474 40.7885 170.932 40.7866C174.934 40.7682 178.938 40.776 183.704 40.776C186.944 40.7198 190.949 40.8796 194.95 40.6917C198.551 40.5222 201.247 38.9403 202.853 35.6477C203.655 34.0064 204.237 32.266 204.583 30.472C205.178 27.4023 205.5 24.3102 205.001 21.2017ZM204.032 27.9176C203.782 30.2424 203.246 32.4888 202.288 34.6238C201.32 36.7937 199.946 38.5664 197.524 39.2842C196.636 39.5427 195.722 39.7006 194.799 39.755C191.851 39.9429 188.899 39.8218 185.948 39.8518C184.862 39.8615 183.777 39.8518 182.692 39.8518C179.108 39.8518 175.532 39.845 171.952 39.8625C171.564 39.8625 171.488 39.7424 171.547 39.4062C171.72 38.4211 171.919 37.4379 172.031 36.4459C172.086 35.9771 172.259 35.8647 172.693 35.8947C173.269 35.9275 173.846 35.9259 174.422 35.8899C175.526 35.825 176.033 35.3968 176.214 34.34C176.571 32.2631 176.892 30.1804 177.24 28.1007C177.568 26.1061 177.918 24.1145 178.224 22.1171C178.293 21.6734 178.385 21.2288 178.37 20.7696C178.346 20.0334 177.935 19.5966 177.176 19.582C176.48 19.5685 175.785 19.5656 175.089 19.582C174.827 19.5898 174.761 19.4978 174.799 19.2643C174.98 18.1987 175.167 17.1332 175.333 16.057C175.384 15.7247 175.497 15.6065 175.869 15.6104C178.397 15.6327 180.925 15.622 183.452 15.622C187.965 15.622 192.478 15.6027 196.99 15.6337C198.407 15.6443 199.786 15.9388 201.045 16.6401C202.775 17.603 203.661 19.1587 204.003 21.0244C204.426 23.3144 204.278 25.6179 204.03 27.9176H204.032Z" fill="#ED008C"/>
<path d="M87.5674 30.3945C87.6643 29.6099 87.7515 28.8989 87.8445 28.1879C88.0382 26.7242 88.2668 25.2653 88.415 23.7978C88.5361 22.5966 88.8238 21.4099 88.7822 20.1942C88.7318 18.7412 87.9007 18.5668 86.9853 18.4777C86.5448 18.447 86.1027 18.4454 85.662 18.4729C85.4228 18.4816 85.3714 18.3857 85.4082 18.1745C85.479 17.7958 85.539 17.4151 85.6088 17.0353C85.6562 16.7738 85.7783 16.6479 86.0863 16.6479C90.1412 16.6595 94.1965 16.6595 98.2521 16.6479C98.6347 16.6479 98.6783 16.8213 98.6221 17.1177C98.5601 17.4461 98.4555 17.7745 98.4497 18.1048C98.4439 18.4535 98.2763 18.4661 98.0041 18.4729C97.3628 18.4884 96.7235 18.4729 96.0783 18.5378C95.0128 18.6453 94.4664 19.2362 94.2882 20.202C94.0121 21.6996 93.7884 23.2049 93.5462 24.7103C93.3302 26.05 93.1229 27.3906 92.9049 28.7303C92.6472 30.317 92.3809 31.9018 92.1232 33.4875C91.849 35.174 91.5739 36.8605 91.3143 38.5499C91.2669 38.8589 91.0576 38.763 90.8959 38.764C88.7919 38.7708 86.6879 38.764 84.5839 38.7775C84.3059 38.7775 84.1896 38.6584 84.0627 38.4279C81.7857 34.2948 79.5015 30.1617 77.2102 26.0286C77.0417 25.7235 76.8683 25.4203 76.6542 25.0396C76.474 26.0655 76.3026 27.0245 76.1398 27.9844C75.8812 29.5014 75.6158 31.0184 75.3765 32.5373C75.239 33.4091 75.0113 34.2732 75.0132 35.1673C75.0132 36.2938 75.6138 36.9002 76.7511 36.9167C77.2093 36.9235 77.6684 36.9283 78.1256 36.9167C78.3949 36.908 78.548 36.9525 78.4821 37.278C78.3949 37.7033 78.3378 38.1343 78.2738 38.5644C78.2244 38.8977 77.9629 38.7582 77.7973 38.7582C75.0995 38.7669 72.4017 38.7582 69.7048 38.7582C68.3642 38.7582 67.0235 38.7524 65.6838 38.7679C65.3486 38.7679 65.1995 38.702 65.3312 38.3445C65.3632 38.2315 65.3869 38.1162 65.4019 37.9997C65.6422 36.9148 65.6422 36.9177 66.7784 36.9138C67.1339 36.9138 67.4991 36.9467 67.844 36.8818C69.1033 36.6445 69.5111 36.1805 69.7155 34.8883C70.0429 32.825 70.4004 30.7665 70.7278 28.7032C71.0813 26.4752 71.4155 24.2414 71.7594 22.0096C71.833 21.5252 71.9309 21.0515 71.9813 20.5691C72.112 19.2885 71.4398 18.5242 70.1407 18.4642C69.7174 18.4448 69.2931 18.4593 68.8689 18.4642C68.6441 18.4642 68.5114 18.4768 68.5705 18.1338C68.8282 16.6547 68.8078 16.6517 70.2899 16.6517C73.3103 16.6517 76.3297 16.6566 79.3501 16.6382C79.7511 16.6382 79.9487 16.7845 80.1337 17.1225C82.5593 21.5029 84.9936 25.8788 87.4367 30.2502C87.4764 30.3017 87.5201 30.3499 87.5674 30.3945Z" fill="#ED008C"/>
<path d="M266.91 30.3606C267.123 28.4697 267.37 26.6079 267.64 24.748C267.843 23.3396 268.005 21.925 268.124 20.5042C268.235 19.1858 267.555 18.4952 266.217 18.47C265.829 18.4622 265.436 18.4535 265.047 18.47C264.727 18.4874 264.659 18.3508 264.739 18.0825C264.743 18.066 264.749 18.0496 264.755 18.0341C264.914 17.5982 264.729 16.9637 265.137 16.7331C265.487 16.5394 266.026 16.6595 266.481 16.6585C270.129 16.6585 273.778 16.6585 277.427 16.6585C277.982 16.6585 278.032 16.7234 277.919 17.2804C277.908 17.3298 277.884 17.3773 277.874 17.4257C277.674 18.469 277.674 18.4671 276.594 18.4709C276.173 18.4753 275.753 18.5028 275.335 18.5533C274.408 18.6598 273.888 19.1529 273.675 20.0305C273.399 21.1707 273.266 22.336 273.07 23.4897C272.841 24.8459 272.637 26.202 272.419 27.5582C272.161 29.1449 271.903 30.7313 271.644 32.3174C271.35 34.1191 271.054 35.9206 270.758 37.7217C270.752 37.7375 270.747 37.7537 270.743 37.7701C270.725 38.1004 270.769 38.5567 270.54 38.702C270.282 38.8667 269.854 38.7746 269.5 38.7746C267.683 38.7746 265.868 38.7746 264.053 38.7834C263.732 38.7834 263.544 38.7059 263.375 38.4017C260.936 33.9748 258.482 29.5576 255.981 25.0483C255.829 25.8969 255.684 26.6651 255.552 27.4362C255.29 28.9706 255.014 30.503 254.778 32.0423C254.621 33.0846 254.358 34.1143 254.331 35.1711C254.303 36.2706 254.954 36.909 256.07 36.9274C256.562 36.9361 257.054 36.9274 257.546 36.9274C257.793 36.9274 257.934 36.9855 257.815 37.2887C257.743 37.4708 257.753 37.6839 257.713 37.8805C257.53 38.7679 257.528 38.7708 256.657 38.7717C252.788 38.7717 248.92 38.7717 245.051 38.7872C244.682 38.7872 244.576 38.7088 244.642 38.3165C244.874 36.9293 244.857 36.9322 246.247 36.9235C246.617 36.9225 246.987 36.8999 247.354 36.8557C248.314 36.7365 248.768 36.1553 248.925 35.3C249.215 33.6881 249.474 32.0684 249.742 30.4507C250.109 28.2382 250.482 26.0267 250.839 23.8123C251.016 22.707 251.226 21.6008 251.307 20.4878C251.383 19.4038 251.024 18.6153 249.475 18.4826C249.037 18.4448 248.593 18.469 248.152 18.4748C247.945 18.4748 247.842 18.4477 247.898 18.1929C247.995 17.7686 248.041 17.3347 248.115 16.9055C248.171 16.582 248.428 16.6614 248.637 16.6614C251.437 16.6614 254.236 16.6614 257.037 16.6614C257.528 16.6614 258.024 16.6973 258.511 16.6479C259.03 16.5956 259.286 16.8145 259.528 17.2533C261.884 21.5323 264.256 25.8029 266.644 30.0652C266.702 30.162 266.703 30.3345 266.91 30.3606Z" fill="#ED008C"/>
<path d="M157.924 30.4342C158.193 28.4601 158.457 26.5856 158.699 24.7093C158.875 23.3444 159.043 21.9795 159.176 20.6108C159.31 19.2178 158.633 18.4961 157.221 18.469C156.833 18.4613 156.44 18.4603 156.05 18.469C155.796 18.4768 155.713 18.3886 155.787 18.1397C155.849 17.9314 155.884 17.7163 155.934 17.5032C156.115 16.6527 156.115 16.6517 156.954 16.6517L168.458 16.6469C169.014 16.6469 169.079 16.7244 168.982 17.262C168.764 18.4632 168.763 18.4748 167.51 18.4583C167.056 18.4574 166.602 18.4969 166.154 18.5765C165.353 18.7083 164.904 19.2333 164.725 19.9937C164.402 21.3789 164.241 22.7923 164.01 24.194C163.788 25.5501 163.561 26.8985 163.34 28.2518C163.121 29.5886 162.905 30.926 162.69 32.2641C162.434 33.8479 162.184 35.4327 161.928 37.0174C161.847 37.5105 161.734 38.0007 161.681 38.4966C161.658 38.7369 161.557 38.7688 161.368 38.7679C159.214 38.7679 157.058 38.7572 154.904 38.7679C154.648 38.7679 154.557 38.6361 154.453 38.4482C152.343 34.618 150.229 30.7891 148.11 26.9615C147.772 26.3502 147.424 25.7438 147.025 25.0386C146.838 26.1226 146.665 27.1107 146.497 28.0987C146.272 29.4161 146.032 30.7316 145.834 32.0529C145.678 33.0943 145.41 34.1211 145.383 35.1769C145.356 36.2328 146.014 36.8973 147.087 36.9206C147.579 36.9312 148.071 36.9206 148.563 36.9206C148.82 36.9206 148.964 36.9429 148.875 37.2974C148.757 37.7633 148.875 38.4124 148.563 38.6787C148.219 38.9693 147.587 38.764 147.083 38.765C143.452 38.7708 139.818 38.7562 136.19 38.7746C135.699 38.7746 135.599 38.6332 135.745 38.2012C135.826 37.9984 135.867 37.7821 135.867 37.5638C135.825 36.9109 136.218 36.907 136.703 36.9109C137.275 36.9109 137.845 36.9341 138.424 36.8489C139.323 36.7162 139.805 36.197 139.973 35.3784C140.215 34.1676 140.393 32.9441 140.594 31.7255C140.959 29.5295 141.325 27.3344 141.679 25.1384C141.93 23.5885 142.234 22.0386 142.382 20.4781C142.496 19.2759 141.916 18.5746 140.473 18.4729C140.066 18.4501 139.659 18.4501 139.252 18.4729C139.008 18.4835 138.912 18.4215 138.961 18.1629C139.045 17.7347 139.099 17.3017 139.179 16.8736C139.227 16.6188 139.44 16.6556 139.625 16.6556H143.188C145.309 16.6556 147.43 16.6731 149.551 16.6392C150.085 16.6304 150.345 16.8106 150.599 17.2707C152.941 21.5223 155.314 25.7574 157.678 29.9964C157.74 30.1223 157.815 30.2453 157.924 30.4342Z" fill="#ED008C"/>
<path d="M128.532 36.9138C127.186 36.9138 126.647 36.5554 126.344 35.2554C125.752 32.7232 125.231 30.1737 124.705 27.627C123.982 24.1352 123.275 20.6398 122.584 17.1409C122.509 16.7622 122.371 16.6459 121.99 16.6469C118.919 16.6611 115.848 16.6611 112.778 16.6469C112.399 16.6469 112.217 16.7748 112.05 17.1041C109.79 21.5504 107.518 25.9912 105.233 30.4265C104.377 32.0849 103.605 33.7888 102.605 35.3736C102.045 36.2609 101.314 36.8499 100.229 36.9235C99.7971 36.9535 99.2712 36.7423 98.9583 37.0203C98.6454 37.2984 98.7878 37.8495 98.6493 38.2641C98.6427 38.2961 98.6385 38.3285 98.6367 38.361C98.5882 38.6419 98.6367 38.8037 98.9931 38.7727C99.3806 38.7388 99.7729 38.7601 100.163 38.7601H111.105C111.339 38.7601 111.594 38.8153 111.653 38.4773C111.723 38.082 111.789 37.6849 111.875 37.2925C111.941 36.9971 111.843 36.8809 111.543 36.9157C111.117 36.9642 110.697 36.8818 110.29 36.7869C109.274 36.5496 108.855 35.8037 109.102 34.774C109.345 33.7617 109.797 32.8366 110.22 31.8931C110.317 31.6771 110.441 31.6393 110.644 31.6393C113.222 31.6432 115.801 31.6432 118.379 31.6393C118.563 31.6393 118.661 31.6538 118.724 31.8776C118.991 32.8308 119.25 33.7772 119.209 34.7836C119.169 35.7194 118.724 36.3771 117.853 36.6978C117.174 36.9487 116.461 36.9361 115.754 36.908C115.342 36.8905 115.076 36.9458 115.094 37.4514C115.101 37.7246 114.979 38.0007 114.923 38.2767C114.853 38.6187 114.923 38.7766 115.349 38.7717C117.52 38.7446 119.692 38.7591 121.864 38.7591C124.052 38.7591 126.24 38.7591 128.429 38.764C128.712 38.764 128.927 38.7262 128.965 38.3978C129 38.0995 129.023 37.7982 129.079 37.5037C129.173 37.0591 129.006 36.9128 128.532 36.9138ZM111.706 28.894L116.102 19.6324C116.77 22.7758 117.416 25.8233 118.068 28.894H111.706Z" fill="#ED008C"/>
<path d="M236.805 36.9196C235.484 36.8673 235.182 36.4198 234.849 35.5334C234.558 34.7468 234.442 33.9205 234.268 33.1117C233.65 30.1717 233.062 27.225 232.459 24.2821C231.975 21.9272 231.469 19.5782 231.021 17.2175C230.933 16.7515 230.766 16.6488 230.336 16.6517C227.349 16.6663 224.363 16.6711 221.377 16.6469C220.872 16.6469 220.618 16.7961 220.386 17.2533C218.139 21.6892 215.873 26.1162 213.59 30.534C212.728 32.205 211.975 33.936 210.932 35.5102C210.386 36.3316 209.654 36.8857 208.624 36.9244C207.201 36.9768 207.201 36.969 207.075 38.3949C207.074 38.4118 207.073 38.4287 207.07 38.4453C206.987 38.7359 207.13 38.7795 207.387 38.7795C211.476 38.773 215.565 38.773 219.654 38.7795C219.944 38.7795 220.046 38.6536 220.095 38.424C220.173 38.0491 220.246 37.6742 220.31 37.2974C220.348 37.0707 220.317 36.8905 220.008 36.9215C219.635 36.9593 219.269 36.876 218.901 36.8247C217.81 36.6774 217.275 35.8938 217.516 34.8185C217.752 33.7694 218.249 32.8259 218.659 31.8466C218.756 31.616 218.893 31.6529 219.052 31.6529C221.631 31.6529 224.21 31.6528 226.789 31.647C227.039 31.647 227.101 31.7294 227.177 31.9667C227.394 32.6156 227.544 33.2848 227.625 33.9641C227.757 35.2845 227.607 36.5321 225.634 36.8595C225.089 36.9496 224.554 36.908 224.014 36.9186C223.738 36.9244 223.581 36.9632 223.544 37.2887C223.492 37.7643 223.374 38.2331 223.284 38.7039C223.468 38.8095 223.657 38.7717 223.841 38.7717C227.979 38.7717 232.119 38.7717 236.26 38.7717C237.282 38.7717 237.282 38.7717 237.478 37.7614C237.632 36.9477 237.619 36.9516 236.805 36.9196ZM226.193 28.9192C224.193 28.9018 222.194 28.9115 220.122 28.9115C221.589 25.8184 223.036 22.7709 224.521 19.6392C225.167 22.6605 225.793 25.5811 226.411 28.5036C226.446 28.6703 226.625 28.9231 226.193 28.9192Z" fill="#ED008C"/>
<path d="M202.7 21.6376C202.394 20.1274 201.72 18.8516 200.425 17.9382C198.932 16.891 197.212 16.6721 195.469 16.6653C189.53 16.643 183.591 16.6566 177.652 16.6556C176.619 16.6556 176.627 16.6556 176.407 17.6388C176.37 17.8035 176.355 17.9692 176.318 18.129C176.255 18.4051 176.334 18.4874 176.608 18.4738C177.015 18.4554 177.424 18.4564 177.83 18.4738C179.136 18.53 179.871 19.2905 179.712 20.4887C179.485 22.1994 179.214 23.9033 178.944 25.6073C178.73 26.9634 178.483 28.3118 178.26 29.6651C177.948 31.5637 177.673 33.4682 177.324 35.3591C177.176 36.1621 176.709 36.7152 175.796 36.8479C175.099 36.9506 174.41 36.8925 173.72 36.9186C173.455 36.9283 173.283 36.9409 173.252 37.2819C173.207 37.7604 173.081 38.2312 172.991 38.7039C173.197 38.8076 173.404 38.7659 173.603 38.7659C179.746 38.7659 185.889 38.7659 192.031 38.7659C193.178 38.7659 194.321 38.7524 195.466 38.5654C197.946 38.1615 199.722 36.8315 200.853 34.6364C202.072 32.2699 202.576 29.7029 202.79 27.0806C202.933 25.2673 203.065 23.4471 202.7 21.6376ZM196.031 25.4775C195.749 27.2802 195.464 29.0829 195.16 30.8818C194.966 32.0442 194.853 33.2279 194.395 34.3429C193.759 35.8928 192.548 36.5961 190.956 36.8247C189.721 37.001 188.484 36.8692 187.457 36.9215C186.265 36.9215 185.281 36.9109 184.297 36.9274C183.992 36.9274 183.939 36.8557 183.99 36.5564C184.3 34.7255 184.582 32.8908 184.881 31.0581C185.137 29.4907 185.41 27.9263 185.663 26.359C185.953 24.5601 186.228 22.7584 186.508 20.9576C186.619 20.2485 186.72 19.5375 186.833 18.8265C186.873 18.5717 186.98 18.4496 187.296 18.4535C189.061 18.4768 190.826 18.4487 192.59 18.4719C193.266 18.4733 193.937 18.5842 194.577 18.8003C195.884 19.2556 196.389 20.2533 196.484 21.533C196.584 22.8785 196.236 24.1726 196.031 25.4804V25.4775Z" fill="#ED008C"/>
<path d="M113.458 27.8004C114.147 26.2447 114.796 24.7752 115.451 23.3086C115.482 23.2388 115.555 23.1478 115.617 23.14C115.768 23.1216 115.735 23.263 115.753 23.3541C115.988 24.5114 116.222 25.6689 116.455 26.8268C116.517 27.1339 116.714 27.5815 116.585 27.7209C116.383 27.9389 115.947 27.7926 115.611 27.7975C114.917 27.8081 114.224 27.8004 113.458 27.8004Z" fill="#ED008C"/>
<path d="M223.464 27.8004C223.058 27.8004 222.651 27.7936 222.244 27.8004C221.986 27.8052 221.862 27.7781 222.004 27.4662C222.64 26.0751 223.256 24.6744 223.878 23.2756C223.915 23.1933 223.965 23.1206 224.057 23.1206C224.168 23.1206 224.167 23.2117 224.183 23.2969C224.455 24.689 224.714 26.0829 225.018 27.4681C225.089 27.7955 224.975 27.8043 224.735 27.8004C224.313 27.7965 223.89 27.8004 223.464 27.8004Z" fill="#ED008C"/>
<path d="M194.929 21.2162C194.624 20.2291 193.582 19.6014 192.239 19.584C190.98 19.5675 189.729 19.584 188.474 19.5714C188.147 19.5714 188.029 19.6682 188.023 20.0005C188.023 20.3134 187.918 20.6243 187.867 20.9382C187.616 22.5075 187.367 24.0774 187.119 25.648C186.872 27.1979 186.634 28.7555 186.378 30.3083C186.087 32.0578 185.788 33.8062 185.494 35.5547C185.45 35.8172 185.565 35.916 185.834 35.9083C186.415 35.8938 186.988 35.9035 187.564 35.9035C188.394 35.9122 189.224 35.9238 190.05 35.8066C191.82 35.5576 192.791 34.9716 193.331 33.1834C193.815 31.5792 193.966 29.9102 194.244 28.2654C194.517 26.6515 194.783 25.0348 195.019 23.4142C195.121 22.6847 195.152 21.935 194.929 21.2162ZM193.927 24.2618C193.539 26.7803 193.118 29.2902 192.705 31.803C192.658 32.0691 192.595 32.3324 192.518 32.5915C192.051 34.2451 191.452 34.7633 189.736 34.8776C188.79 34.9396 187.836 34.9018 186.887 34.9251C186.62 34.9309 186.585 34.8398 186.624 34.5977C187.212 31.0012 187.795 27.4035 188.373 23.8045C188.532 22.8223 188.708 21.842 188.843 20.8568C188.883 20.5662 188.993 20.4945 189.261 20.5042C189.736 20.5207 190.212 20.5091 190.686 20.5091C191.482 20.5207 192.278 20.4693 193.063 20.6747C193.665 20.8326 193.965 21.2036 194.074 21.7974C194.227 22.6344 194.052 23.449 193.927 24.2618Z" fill="#ED008C"/>
<path d="M198.848 6.74207L197.19 0.492093H198.037L198.988 4.59449C199.075 4.98196 199.171 5.39753 199.258 5.86928C199.355 5.47599 199.433 5.07496 199.538 4.70685L200.725 0.491123H201.72L202.62 3.65099C202.826 4.37948 202.988 5.11998 203.104 5.86831C203.201 5.39656 203.305 4.9345 203.41 4.50634L204.387 0.491123H205.217L203.509 6.74207H202.714L201.396 1.98484C201.344 1.81048 201.265 1.55668 201.196 1.24283C201.143 1.47822 201.082 1.74945 201.012 1.98484L199.694 6.74207H198.848Z" fill="#231F20"/>
<path d="M206.512 4.67295C206.564 5.66004 207.114 6.20929 207.882 6.20929C208.476 6.20929 208.851 5.90415 209.07 5.28419L209.864 5.38106C209.62 6.29744 208.904 6.83894 207.917 6.83894C206.512 6.83894 205.717 5.96712 205.717 4.51409C205.717 3.04749 206.538 2.11368 207.83 2.11368C209.044 2.11368 209.89 2.97775 209.89 4.4705V4.67102L206.512 4.67295ZM209.079 4.03652C209.072 3.84246 209.033 3.6508 208.965 3.46887C208.87 3.25091 208.712 3.06615 208.511 2.93789C208.311 2.80963 208.077 2.74361 207.839 2.74817C207.106 2.74817 206.609 3.29838 206.556 4.0404L209.079 4.03652Z" fill="#231F20"/>
<path d="M213.758 6.74207V0.492096H215.913C216.655 0.492096 217.269 0.51825 217.85 0.963847C218.54 1.48694 218.924 2.38588 218.924 3.57349C218.924 5.23189 218.216 6.33135 217.038 6.63745C216.701 6.71669 216.354 6.75185 216.008 6.74207H213.758ZM214.587 6.00877H215.913C216.655 6.00877 217.144 5.91191 217.519 5.476C217.894 5.04009 218.069 4.40269 218.069 3.56477C218.069 2.69295 217.869 2.04587 217.406 1.6274C216.978 1.23992 216.498 1.22636 215.895 1.22636H214.587V6.00877Z" fill="#231F20"/>
<path d="M220.696 4.67295C220.748 5.66004 221.299 6.20929 222.067 6.20929C222.661 6.20929 223.036 5.90415 223.254 5.28419L224.049 5.38106C223.804 6.29744 223.088 6.83894 222.102 6.83894C220.696 6.83894 219.902 5.96712 219.902 4.51409C219.902 3.04749 220.722 2.11368 222.015 2.11368C223.227 2.11368 224.075 2.97775 224.075 4.4705V4.67102L220.696 4.67295ZM223.263 4.03652C223.256 3.84241 223.217 3.65076 223.149 3.46887C223.054 3.25011 222.897 3.06443 222.696 2.93541C222.496 2.80639 222.262 2.73987 222.023 2.74429C221.29 2.74429 220.792 3.29451 220.74 4.03652H223.263Z" fill="#231F20"/>
<path d="M225.969 6.74207H225.201V0.492096H225.969V6.74207Z" fill="#231F20"/>
<path d="M227.356 1.36488V0.493061H228.124V1.36488H227.356ZM227.356 6.74207V2.22023H228.124V6.74207H227.356Z" fill="#231F20"/>
<path d="M230.735 6.74207L229.014 2.22023H229.826L230.795 4.92675C230.899 5.23189 231.004 5.53702 231.091 5.84313C231.188 5.51087 231.285 5.22317 231.37 4.97906L232.376 2.22023H233.17L231.459 6.74207H230.735Z" fill="#231F20"/>
<path d="M234.593 4.67295C234.645 5.66004 235.195 6.20929 235.963 6.20929C236.557 6.20929 236.931 5.90415 237.15 5.28419L237.945 5.38106C237.701 6.29744 236.985 6.83894 235.998 6.83894C234.593 6.83894 233.798 5.96712 233.798 4.51409C233.798 3.04749 234.618 2.11368 235.91 2.11368C237.124 2.11368 237.971 2.97775 237.971 4.4705V4.67102L234.593 4.67295ZM237.159 4.03652C237.152 3.84246 237.114 3.6508 237.046 3.46887C236.951 3.25019 236.793 3.06461 236.592 2.93563C236.392 2.80665 236.158 2.74006 235.919 2.74429C235.186 2.74429 234.689 3.29451 234.637 4.03652H237.159Z" fill="#231F20"/>
<path d="M239.769 2.90122C240.013 2.46434 240.253 2.11562 240.764 2.11562C241.04 2.12033 241.309 2.20513 241.539 2.35973L241.277 3.06687C241.102 2.95924 240.901 2.90193 240.696 2.90122C240.172 2.90122 239.849 3.38557 239.849 4.36782V6.74207H239.081V2.22023H239.771L239.769 2.90122Z" fill="#231F20"/>
<path d="M262.299 6.74207V1.22539H260.239V0.492096H265.198V1.22539H263.129V6.74207H262.299Z" fill="#231F20"/>
<path d="M265.86 1.36488V0.493061H266.628V1.36488H265.86ZM265.86 6.74207V2.22023H266.628V6.74207H265.86Z" fill="#231F20"/>
<path d="M271.438 6.74207H270.67V3.80016C270.67 3.15405 270.461 2.77917 269.867 2.77917C269.679 2.77634 269.493 2.82333 269.329 2.91537C269.165 3.00742 269.029 3.14123 268.933 3.30323C268.767 3.59383 268.75 3.95709 268.75 4.39397V6.74207H267.982V2.22023H268.671V2.84504C268.819 2.6142 269.023 2.42536 269.265 2.29687C269.506 2.16837 269.777 2.1046 270.051 2.11174C270.661 2.11174 271.124 2.36457 271.316 2.90606C271.674 2.382 272.11 2.11174 272.713 2.11174C273.612 2.11174 274.127 2.61836 274.127 3.63936V6.73916H273.359V3.88734C273.359 3.32066 273.272 2.77917 272.538 2.77917C271.936 2.77917 271.438 3.16664 271.438 4.11499V6.74207Z" fill="#231F20"/>
<path d="M276.003 4.67295C276.056 5.66004 276.606 6.20929 277.374 6.20929C277.968 6.20929 278.343 5.90415 278.561 5.28419L279.355 5.38106C279.111 6.29744 278.395 6.83894 277.409 6.83894C276.003 6.83894 275.209 5.96712 275.209 4.51409C275.209 3.04749 276.03 2.11368 277.322 2.11368C278.535 2.11368 279.381 2.97775 279.381 4.4705V4.67102L276.003 4.67295ZM278.57 4.03652C278.562 3.84246 278.524 3.6508 278.456 3.46887C278.361 3.25019 278.204 3.06458 278.003 2.93557C277.803 2.80657 277.569 2.74 277.331 2.74429C276.597 2.74429 276.099 3.29451 276.047 4.03652H278.57Z" fill="#231F20"/>
<path d="M253.687 2.85763C253.844 2.62201 254.059 2.43027 254.311 2.30046C254.562 2.17066 254.843 2.10705 255.126 2.11562C255.746 2.11562 256.244 2.37716 256.482 2.77917C256.683 3.12789 256.683 3.51246 256.683 3.95709V6.74207H255.915V3.99196C255.915 3.66067 255.906 3.37297 255.74 3.13661C255.649 3.0198 255.531 2.92645 255.396 2.86429C255.261 2.80214 255.114 2.77296 254.965 2.77917C254.521 2.77917 254.11 2.99712 253.927 3.34682C253.796 3.59093 253.77 3.90478 253.77 4.27191V6.74207H253.002V2.22023H253.687V2.85763Z" fill="#231F20"/>
<path d="M248.088 1.29514C248.663 1.29514 249.224 1.46557 249.702 1.7849C250.18 2.10422 250.553 2.55808 250.773 3.0891C250.993 3.62011 251.05 4.20442 250.938 4.76814C250.826 5.33186 250.549 5.84968 250.143 6.2561C249.736 6.66252 249.218 6.93929 248.655 7.05142C248.091 7.16355 247.507 7.10601 246.976 6.88605C246.445 6.6661 245.991 6.29362 245.671 5.81572C245.352 5.33782 245.182 4.77596 245.182 4.2012C245.183 3.43086 245.49 2.69243 246.034 2.14772C246.579 1.603 247.317 1.29642 248.088 1.29514ZM248.088 0.886349C247.432 0.886157 246.79 1.08052 246.245 1.44486C245.699 1.80919 245.274 2.32714 245.023 2.93319C244.772 3.53923 244.706 4.20616 244.834 4.84962C244.962 5.49307 245.277 6.08416 245.741 6.54812C246.205 7.01207 246.796 7.32806 247.439 7.45612C248.083 7.58418 248.75 7.51855 249.356 7.26754C249.962 7.01653 250.48 6.59141 250.845 6.04595C251.209 5.50048 251.404 4.85918 251.404 4.20314C251.404 3.76762 251.318 3.33634 251.151 2.93393C250.985 2.53153 250.741 2.16588 250.433 1.85787C250.125 1.54987 249.759 1.30554 249.357 1.13884C248.955 0.972148 248.523 0.886349 248.088 0.886349Z" fill="#ED008C"/>
<path d="M248.292 1.06652H247.885V1.78723H248.292V1.06652Z" fill="#ED008C"/>
<path d="M248.292 6.58223H247.885V7.30294H248.292V6.58223Z" fill="#ED008C"/>
<path d="M245.691 3.98131H244.971V4.38816H245.691V3.98131Z" fill="#ED008C"/>
<path d="M247.119 3.01925L246.853 3.28571L247.939 4.37138L248.205 4.10492L247.119 3.01925Z" fill="#ED008C"/>
<path d="M249.521 2.54219L247.958 4.1046L248.225 4.37105L249.787 2.80864L249.521 2.54219Z" fill="#ED008C"/>
<path d="M251.207 3.98131H250.486V4.38816H251.207V3.98131Z" fill="#ED008C"/>
<path d="M248.088 4.71654C248.37 4.71654 248.598 4.48798 248.598 4.20604C248.598 3.9241 248.37 3.69555 248.088 3.69555C247.806 3.69555 247.577 3.9241 247.577 4.20604C247.577 4.48798 247.806 4.71654 248.088 4.71654Z" fill="#ED008C"/>
<path d="M72.6516 53.0085L76.6804 54.1158C76.4098 55.1426 75.9836 56.0005 75.4017 56.6896C74.8187 57.3792 74.0748 57.9145 73.2357 58.2482C72.3729 58.5988 71.2751 58.7742 69.9422 58.7742C68.3277 58.7742 67.0067 58.5607 65.9793 58.1339C64.9518 57.707 64.0674 56.9556 63.326 55.8797C62.5808 54.8038 62.2085 53.427 62.2091 51.7493C62.2091 49.5116 62.864 47.7922 64.1736 46.591C65.4833 45.3898 67.3364 44.7892 69.7329 44.7892C71.6057 44.7892 73.0791 45.1338 74.1531 45.8228C75.227 46.5119 76.0236 47.5697 76.5428 48.9962L72.483 49.8177C72.3416 49.405 72.1928 49.1034 72.0365 48.9129C71.7839 48.5966 71.4608 48.3438 71.093 48.1748C70.7005 47.9989 70.2744 47.911 69.8443 47.9171C68.8033 47.9171 68.0051 48.2978 67.4497 49.0592C67.03 49.6249 66.8204 50.5126 66.8211 51.7221C66.8211 53.2217 67.0713 54.2491 67.5718 54.8045C68.0723 55.3599 68.7746 55.6379 69.6787 55.6385C70.5583 55.6385 71.2228 55.4125 71.6723 54.9605C72.1217 54.5084 72.4482 53.8578 72.6516 53.0085Z" fill="#ED008C"/>
<path d="M78.6449 51.7909C78.6449 49.5823 79.3229 47.8632 80.6791 46.6336C82.0353 45.404 83.9194 44.7905 86.3314 44.7931C88.8074 44.7931 90.715 45.3976 92.0544 46.6065C93.3938 47.8154 94.0638 49.508 94.0644 51.6843C94.0644 53.2652 93.7716 54.5617 93.1858 55.5736C92.5916 56.5938 91.7089 57.4155 90.6489 57.9353C89.5433 58.4984 88.1651 58.7797 86.5145 58.779C84.8354 58.779 83.447 58.5362 82.3491 58.0506C81.2465 57.562 80.3143 56.756 79.6717 55.7354C78.9871 54.686 78.6449 53.3712 78.6449 51.7909ZM83.2413 51.8093C83.2413 53.1739 83.5206 54.1548 84.0792 54.7522C84.6378 55.3495 85.3969 55.6479 86.3566 55.6473C87.3447 55.6473 88.1093 55.355 88.6504 54.7706C89.1916 54.1861 89.4622 53.1374 89.4622 51.6243C89.4622 50.3514 89.1797 49.4212 88.6146 48.8335C88.0495 48.2458 87.2836 47.9523 86.3169 47.953C85.3895 47.953 84.6452 48.2513 84.0841 48.848C83.5229 49.4447 83.2426 50.4318 83.2432 51.8093H83.2413Z" fill="#ED008C"/>
<path d="M106.53 45.0188H111.117V53.0764C111.122 53.8499 110.982 54.6175 110.706 55.3402C110.43 56.0541 109.988 56.6924 109.417 57.203C108.888 57.7002 108.261 58.0816 107.577 58.3228C106.684 58.6237 105.611 58.7742 104.36 58.7742C103.568 58.7701 102.777 58.7239 101.99 58.6357C101.134 58.5433 100.418 58.3605 99.8436 58.0874C99.2499 57.8014 98.7148 57.4072 98.2656 56.925C97.8283 56.4844 97.4938 55.9524 97.2863 55.3673C97.0021 54.5071 96.8601 53.7448 96.8601 53.0802V45.0188H101.447V53.2691C101.447 54.006 101.673 54.582 102.125 54.9973C102.577 55.4125 103.201 55.6198 103.997 55.6192C104.788 55.6192 105.409 55.4148 105.859 55.006C106.309 54.5972 106.535 54.0182 106.537 53.2691L106.53 45.0188Z" fill="#ED008C"/>
<path d="M114.534 58.5446V45.0188H122.196C123.617 45.0188 124.703 45.1296 125.454 45.3511C126.178 45.5535 126.816 45.986 127.273 46.5832C127.733 47.1832 127.963 47.9132 127.963 48.7734C127.963 49.5245 127.787 50.1703 127.435 50.7108C127.07 51.2675 126.57 51.723 125.982 52.035C125.589 52.2501 125.051 52.4283 124.368 52.5697C124.916 52.7363 125.314 52.9026 125.564 53.0686C125.733 53.179 125.978 53.416 126.299 53.7796C126.541 54.0378 126.757 54.3191 126.944 54.6195L129.172 58.5388H123.978L121.52 54.4054C121.209 53.8707 120.931 53.5232 120.688 53.3631C120.35 53.1526 119.959 53.0436 119.561 53.0492H119.155V58.5446H114.534ZM119.152 50.5045H121.089C121.298 50.5045 121.704 50.4431 122.307 50.3204C122.598 50.2726 122.862 50.1221 123.052 49.8961C123.242 49.6789 123.345 49.3998 123.343 49.1115C123.343 48.6756 123.191 48.3404 122.886 48.106C122.581 47.8716 122.009 47.7547 121.171 47.7554H119.152V50.5045Z" fill="#ED008C"/>
<path d="M131.133 45.0188H135.74V58.5446H131.133V45.0188Z" fill="#ED008C"/>
<path d="M139.34 45.0188H151.66V47.9065H143.947V50.056H151.103V52.8148H143.948V55.4806H151.884V58.5446H139.34V45.0188Z" fill="#ED008C"/>
<path d="M154.731 58.5446V45.0188H162.394C163.815 45.0188 164.9 45.1296 165.651 45.3511C166.374 45.5541 167.012 45.9865 167.468 46.5832C167.928 47.1832 168.158 47.9132 168.157 48.7734C168.157 49.5245 167.981 50.1703 167.63 50.7108C167.264 51.2675 166.765 51.723 166.176 52.035C165.784 52.2501 165.247 52.4283 164.563 52.5697C165.11 52.7363 165.508 52.9026 165.759 53.0686C165.928 53.179 166.173 53.416 166.494 53.7796C166.736 54.0378 166.952 54.3191 167.138 54.6195L169.366 58.5388H164.172L161.715 54.4054C161.403 53.8707 161.126 53.5232 160.883 53.3631C160.545 53.1526 160.154 53.0436 159.756 53.0492H159.35V58.5446H154.731ZM159.349 50.5045H161.287C161.496 50.5045 161.902 50.4431 162.504 50.3204C162.796 50.2726 163.06 50.1221 163.25 49.8961C163.44 49.6789 163.543 49.3998 163.541 49.1115C163.541 48.6756 163.388 48.3404 163.083 48.106C162.779 47.8716 162.207 47.7547 161.369 47.7554H159.349V50.5045Z" fill="#ED008C"/>
<path d="M178.392 45.0188H182.988V55.2133H190.163V58.5446H178.392V45.0188Z" fill="#ED008C"/>
<path d="M192.748 45.0188H197.355V58.5446H192.748V45.0188Z" fill="#ED008C"/>
<path d="M200.914 45.0188H206.959L209.291 53.2527L211.606 45.0188H217.652V58.5446H213.883V48.23L210.982 58.5446H207.577L204.682 48.231V58.5446H200.917L200.914 45.0188Z" fill="#ED008C"/>
<path d="M221.075 45.0188H225.682V58.5446H221.075V45.0188Z" fill="#ED008C"/>
<path d="M228.247 45.0188H242.22V48.3588H237.532V58.5446H232.936V48.3588H228.247V45.0188Z" fill="#ED008C"/>
<path d="M244.602 45.0188H256.922V47.9065H249.21V50.056H256.364V52.8148H249.21V55.4806H257.145V58.5446H244.602V45.0188Z" fill="#ED008C"/>
<path d="M259.994 45.0188H266.824C268.17 45.0188 269.257 45.1851 270.087 45.5177C270.876 45.8225 271.581 46.3129 272.141 46.9475C272.687 47.5758 273.088 48.3157 273.318 49.1154C273.566 49.9666 273.689 50.8492 273.683 51.7357C273.683 53.181 273.503 54.3017 273.141 55.098C272.797 55.8709 272.281 56.5556 271.634 57.1003C271.037 57.6146 270.328 57.9824 269.564 58.1746C268.668 58.4058 267.749 58.5297 266.824 58.5436H259.994V45.0188ZM264.591 48.0828V55.4729H265.718C266.678 55.4729 267.361 55.376 267.768 55.1823C268.174 54.9885 268.492 54.6501 268.722 54.1671C268.951 53.6847 269.066 52.902 269.067 51.819C269.067 50.3866 268.808 49.4057 268.292 48.8761C267.775 48.3466 266.923 48.0821 265.734 48.0828H264.591Z" fill="#ED008C"/>
<path d="M284.37 15.7218V11.6427H286.052C286.475 11.6427 286.782 11.6791 286.974 11.7521C287.166 11.826 287.328 11.9625 287.434 12.1396C287.55 12.3333 287.61 12.5558 287.606 12.7818C287.617 13.0584 287.523 13.3289 287.345 13.5403C287.169 13.7399 286.908 13.8655 286.562 13.9171C286.721 14.0099 286.864 14.1255 286.989 14.2601C287.16 14.4671 287.312 14.6884 287.445 14.9217L287.929 15.7179H286.974L286.393 14.8296C286.265 14.6213 286.124 14.4214 285.971 14.231C285.906 14.1555 285.824 14.097 285.731 14.0605C285.6 14.0244 285.465 14.009 285.329 14.015H285.169V15.7179L284.37 15.7218ZM285.169 13.3679H285.76C286.148 13.3679 286.383 13.3505 286.478 13.3175C286.57 13.2872 286.649 13.2264 286.702 13.1451C286.759 13.0535 286.787 12.9469 286.783 12.839C286.789 12.719 286.751 12.601 286.676 12.5067C286.599 12.4183 286.492 12.3612 286.375 12.3459C286.31 12.3372 286.117 12.3324 285.794 12.3324H285.169V13.3679Z" fill="#ED008C"/>
<path d="M285.931 10.1664C286.625 10.1662 287.303 10.3719 287.881 10.7574C288.458 11.1429 288.908 11.6909 289.174 12.3322C289.439 12.9735 289.509 13.6792 289.374 14.36C289.238 15.0409 288.904 15.6663 288.413 16.1572C287.923 16.6481 287.297 16.9825 286.617 17.118C285.936 17.2535 285.23 17.184 284.589 16.9184C283.947 16.6528 283.399 16.203 283.014 15.6258C282.628 15.0487 282.422 14.3701 282.422 13.6759C282.423 12.7455 282.793 11.8535 283.45 11.1955C284.108 10.5375 285 10.1674 285.931 10.1664ZM285.931 9.60648C285.126 9.60648 284.339 9.84509 283.67 10.2921C283.001 10.7392 282.48 11.3746 282.172 12.118C281.864 12.8614 281.783 13.6795 281.94 14.4687C282.097 15.2579 282.485 15.9828 283.054 16.5518C283.623 17.1208 284.348 17.5083 285.137 17.6653C285.926 17.8223 286.744 17.7417 287.487 17.4338C288.231 17.1258 288.866 16.6044 289.313 15.9353C289.76 15.2662 289.999 14.4796 289.999 13.675C289.999 12.5959 289.57 11.5611 288.807 10.7981C288.044 10.0351 287.01 9.60648 285.931 9.60648Z" fill="#ED008C"/>
</g>
<defs>
<clipPath id="clip0_201_139">
<rect width="290" height="58.7742" fill="white"/>
</clipPath>
</defs>
</svg>
