<svg width="25" height="20" viewBox="0 0 25 20" fill="none" xmlns="http://www.w3.org/2000/svg">
<path d="M0 17.7413C2.74948 17.9932 5.17708 17.3305 7.32716 15.6719C6.85543 15.6219 6.39508 15.5514 5.94852 15.3972C4.44161 14.8767 3.39984 13.8646 2.79923 12.385C2.70213 12.144 2.72011 12.1325 2.97906 12.1687C3.61137 12.2595 4.25553 12.2185 4.87138 12.0482C4.09875 11.8458 3.39505 11.512 2.78785 10.9951C1.63219 10.0107 1.0142 8.75943 0.957252 7.23101C0.950059 7.02377 1.03158 7.07378 1.14607 7.13101C1.72262 7.42535 2.35286 7.59836 2.99823 7.63947C3.04259 7.63947 3.08695 7.63947 3.18885 7.63947C2.74491 7.32653 2.35098 6.94746 2.0206 6.5153C1.43747 5.74804 1.0883 4.82725 1.0154 3.86453C0.940274 2.91017 1.13497 1.9539 1.57704 1.10591C1.67175 0.919758 1.7161 0.954098 1.824 1.08302C3.17652 2.71513 4.8757 4.02192 6.79668 4.90737C8.13436 5.53171 9.56319 5.93589 11.0285 6.10443C11.2892 6.13456 11.5518 6.15203 11.8119 6.18516C11.9702 6.20565 12.0301 6.19781 11.9995 5.99479C11.7118 4.11575 12.2231 2.50058 13.6557 1.23544C14.809 0.217302 16.1768 -0.164048 17.6981 0.0636779C18.7479 0.215166 19.7192 0.70897 20.4626 1.46919C20.5585 1.56558 20.6424 1.58305 20.7773 1.55293C21.7505 1.33971 22.6871 0.983236 23.5567 0.495032C23.6113 0.464307 23.6694 0.439003 23.7701 0.389C23.3853 1.56317 22.6798 2.43311 21.7052 3.10906C22.6444 3.02231 23.5309 2.74759 24.4444 2.37467C24.0898 2.91835 23.6813 3.42458 23.2252 3.88561C22.8726 4.24581 22.4917 4.57701 22.0864 4.87604C22.042 4.90159 22.0056 4.93911 21.9814 4.98436C21.9571 5.02961 21.9459 5.08078 21.9491 5.13208C22.0414 7.50754 21.5343 9.7607 20.5207 11.897C19.3219 14.4303 17.559 16.4786 15.1698 17.9552C13.4981 18.989 11.6789 19.6029 9.73498 19.8626C8.36677 20.05 6.9793 20.0457 5.61225 19.8499C3.61182 19.5632 1.69707 18.8438 0 17.7413Z" fill="#161616"/>
</svg>
